<svg xmlns="http://www.w3.org/2000/svg" viewBox="0 0 400.7 339.7"><path d="M141 264.5c-.2-1.2-.6-2.4-.9-3.6-.2-.9-.5-1.7-.9-2.5-.5-.9-1.1-1.7-1.7-2.5-1.2-1.6-2.6-2.9-4.3-4-1.9-1.2-4-2.3-5.9-3.4-.7-.4-1.4-.9-2.3-1-.2 0-.4-.2-.6-.3-.1-.5.2-.7.4-.9.9-.7 1.8-1.3 2.7-2 .2-.1.4-.2.6-.2.6 0 1.1-.3 1.5-.7 1-1 2-2 2.9-3.1 1.2-1.5 2.4-2.9 3.1-4.7.5-1.4 1.5-2.5 1.9-3.9.5-1.4 1.1-2.8 1.6-4.2 0-.1.1-.3.1-.4-.3-1.1.4-2.1.5-3.1.2-1.8.6-3.6.6-5.5 0-.7.1-1.3-.3-1.7.2-.9.4-1.6.5-2.3.1-1 0-2.1 0-3.1-.1-.8-.1-1.6-.4-2.4-.7-1.8-1.4-3.6-2.3-5.3-1-1.9-2.2-3.7-3.7-5.2-1.8-1.9-3.7-3.5-5.8-5-.9-.6-1.6-1.4-2.5-1.9-1.3-.8-2.6-1.4-3.9-2-2.6-1.2-5.3-2.2-8.2-2.5-2-.2-4.1-.5-6.1-.3-2.8.3-5.4.9-8.1 1.7-3.2.9-6 2.6-8.6 4.6-1.8 1.4-3.8 2.6-4.8 5l2.4-1.5c.1 1.1 0 1.4-.8 1.6-.5.1-.7.4-.8.8-.9-.3-1-.3-1.5.4-.2.3-.4.7-.5 1.1-.5 1.7-.3 3.4-.2 5.1 0 .2.1.4.1.7-.3 2.7-.7 5.4-1 8.1-.2 1.8-.4 3.6-.5 5.5-.2 2-.3 4-.5 6-.4 3.3-.8 6.7-1.2 10-.2 1.7-.3 3.4-.6 5.1-.5 2.9-.7 5.8-.9 8.7-.1 1.8-.3 3.5-.5 5.3-.2 1.6-.3 3.2-.5 4.9-.2 2.2-.7 4.3-.7 6.5v1.6c-.3 2.1-.6 4.2-.8 6.4-.2 1.6-.4 3.2-.6 4.9-.1.4 0 .8 0 1.2 0 .6 0 1.2-.1 1.7-.2 1.7-.3 3.4 0 5 .1.8.2 1.5.2 2.3v5.4c0 1.1 0 2.1.1 3.2 0 .5-.1 1.1.6 1.4.1 0 .2.2.2.3 0 .6.3 1.2 0 1.9-.1.3-.1.7.1.9.4.6.4 1.3.3 2-.1.5 0 1.1.3 1.4.2 0 .5-.1.6 0 .5.6 1.3.4 2 .5.1 0 .4-.1.4-.1 0-.5.5-.3.6-.3.6.4 1.1.1 1.6-.1.6-.2 1.1-.5 1.5.3.1-.1.3-.2.3-.2 0-.3.2-.4.4-.7.3-.3 1-.3 1-1 0-.2.4-.3.6 0 .2.2.3.5.4.8-.6.1-1.2.3-1.8.4.2.3.3.5.5.6.9-.3 1.7-.7 2.5-.9.5-.1.8-.5.9-.8 0-.5.4-.7.6-1.1.3-.7.5-1.5.7-2.3v-.3c-.3-.8-.1-1.5.1-2.3l.3-1.2c-.3.1-.5.4-.7.5-.1 0-.1.1-.2 0-.1 0-.2 0-.3-.1v.4c0 .3-.2.6-.5.8-.2-.3-.2-.3 0-.7.1-.1.2-.3.3-.4-.1-.7 0-1.4.5-2.1.1.1.2.2.4.5.1-.6.1-1 .2-1.4-.2 0-.5 0-.5-.1-.4-.6.7-.9.3-1.5.1-.1.3-.1.4-.2h.1c.1 0 .3-.1.3-.1.2-.7.8-1.2.9-1.9.2-1.2.3-2.3.5-3.5.2-1.6.1-3.3.7-4.8V281c.1-.7.2-1.5.2-2.2.1-1.6.2-3.3.3-4.9.1-.9.2-1.9.3-2.8 0-.3.2-.6.2-.9 0-1.2.1-2.4.1-3.6-.1-1.2.4-2.4.3-3.6-.1-2.2.1-4.5.3-6.8.1-1.2.2-2.3.3-3.4.1-1.5 0-2.9.1-4.4 0-1.3.1-2.7.2-4 0-.9.1-1.8.2-2.7.3-2.1.7-4.2.6-6.4 0-.3.1-.6.1-.9.1-1.6.3-3.2.4-4.8.1-1.2.1-2.5.3-3.7.3-2.2.8-4.4.9-6.6 0-1 .3-2 .3-3 0-2.6.7-5.1 1.3-7.5.1 0 .2-.1.3-.1 1-.3 1.9-.5 2.7-1.2 1.3-1.1 3.1-1 4.4-1.9h.1c1.7-.3 3.4-.1 5.1-.1.3 0 .7.3.9.2 1.3-.4 2.2.2 3.1 1.1.8.8 1.4 1.7 1.6 2.8.2 1 .3 2 .4 2.9.1 2.1.2 4.3-.2 6.4-.1.4-.2.7-.3 1.1-.1.2-.2.4-.2.6-.2 1.7-.8 3.4-1.7 4.9-.4.6-.7 1.2-.9 1.9-.5 1.4-1 2.7-1.8 3.9-.9 1.3-1.7 2.7-2.6 4.1-.5.7-.9 1.4-1.4 2.1-.4.5-.8.9-1.2 1.4l-.4.4c-1.3 1.6-2.6 3.2-3.9 4.9-1 1.2-2 2.4-2.7 3.8-1.1 2.1-1.7 4.4-1.4 6.9v.4c.1 1.7.7 3.3 1.3 4.9.4 1.2 1.3 2 2.2 2.9 1.9 1.7 4 2.6 6.5 2.7 1 0 1.9.1 2.9.3 1.8.3 3.5 1 5.2 1.7 2.8 1.1 4.7 3.1 6.1 5.7.5 1 .6 2.1.7 3.2.2 1.9.1 3.8-.3 5.7-.4 1.8-.9 3.5-1.5 5.3-.3.9-.6 1.8-1.3 2.4l-.9.9s-.7.6-.8.7c-.9.4-1.2 1.3-1.9 2-.3.3-.6.8-.9 1.1-1.3 1-2.6 1.9-3.9 2.8-.2.2-.4.3-.7.4-1.9 1-3.8 2.1-5.8 3.1-1.8.9-3.5 2-5.5 2.5-.2 0-.4.1-.5.2-3.3 1.5-6.7 2.8-10.1 3.9-2.2.7-4.6 1-6.7 1.9-1 .4-2.1.5-3.2.8-2 .6-4.1.6-6.2.7-1 0-2 0-2.9.3-.6.1-1.2.3-1.9.4-.1 0-.3 3.6-.4 3.6v3.5h1.4c-.1 0-.3-3.2-.4-3.1-.4.3-.7-1.1-1-.8.1 0 .2-.8.3-.7-.5.1-1-.4-1.1-.2-.3.4-.8.2-1.2.3-.6.1-.7.2-.6.8v.5c0 .7-.2 1.3-.5 1.9-.3.5-.2.9.1 1.2.6.6.9 1.4 1.7 1.7.1 0 .2.2.3.4-.3.2-.6.3-.8.5-.4.2-.8.4-1.2.8-.3.4.1.8 0 1.2-.3.1-.6.3-.9.4 0 .9-.1.9-.9 1.4 0 .2.1.4.1.5.1.1.1.3.2.4 0 .1.1.2.1.3s.1.2.1.3c0 .2-.1.5-.4.7.2.2.5.6.7.6.6-.1.6.4.8.5-.4.5-.7.9-1 1.4.3.8-.8.9-.7 1.6 1.4 1 3.1 1.1 4.8 1.2.4 0 .9 0 1.4-.1h.5c.4 0 .8-.1 1.2-.1.4 0 .8 0 1.2-.1.3 0 .5-.1.8-.1.7-.1 1.4-.3 2.1-.5 1.2-.3 2.5-.5 3.7-.8.5-.1.9-.4 1.4-.4 1 0 1.9-.8 3-.5.1 0 .2-.1.3-.1.6-.2 1.2-.5 1.8-.6 1.8-.5 3.7-1 5.5-1.5 1.6-.5 3.1-1.1 4.7-1.6 2-.7 4.1-1.4 6.1-2.3 2.3-1 4.6-2.1 6.9-3.2.3-.1.5-.4.8-.5.9-.5 1.8-1.1 2.7-1.6.9-.5 1.9-.7 2.7-1.3 1-.8 2.2-1.3 3.4-1.7.3-.1.5-.3.7-.4.4-.4.8-.8 1.2-1.1 1.8-1.5 3.7-2.9 5.5-4.4.6-.5 1.2-1.1 1.7-1.7.3-.3.4-.8.8-1 .6-.5 1.3-1 2-1.1.5-.1.7-.2 1-.6.6-1 1.2-1.9 1.9-2.9.3-.5.7-.9.9-1.3.5-.9 1-1.9 1.6-2.7.8-1.2 1.4-2.5 1.9-3.9.6-1.6 1-3.3 1.5-4.9.8-2.6 1.1-5.3 1.3-8 .1-1.1.1-2.3 0-3.4-.1-.5.2-1 .1-1.5-.2-1.1.1-2.2.1-3.3 0-1.3.1-2.6 0-3.9-.9-2.3-1.2-3.7-1.4-5.1zm-54.5-49.3c.2-2 .4-5.4.6-6.6l.1-1.5c0 .1.1-.4.1-.3-.1 1-2.5 1.7-2.6 2.7 0 .1-2.5-.3-2.5-.3 0 .5 2.4 1 2.1 1.5.1-.5 1.2 2 1.3 1.5-.2 0 .9 3 .9 3zm-4.4 3.9zm0-8zm4.5 13.2c.1-.1-.1-.4-.2-.7.2-.3.3-.6.7-1.2.5 1.5-.2 2.7-.2 3.8-.2-.1-.4-.1-.6-.2 0-.5-.3-1.2.3-1.7zm.3 6.4c0-.6-.1-1.1-.1-1.7.4.3.4.3.1 1.7zm-.4-2.7c0 .5.1.9-.5 1.2.1-.4.3-.7.5-1.2zm-.3 33.2c.1-.1.3-.2.3-.3.3-.9.6-1.9 1-2.8.1-.3.3-.5.3-.7.4 0 .6 0 1-.1 0 .1.2.3.1.4-.3.5-.1 1.1-.2 1.6 0 .5-.1 1.1-.2 1.6-.1.2-.4.3-.7.4l.3.3c.1.1.3.2.3.4s.1.6-.1.7c-.4.3.1.5 0 .7-.1.2-.2.4-.5.6-.3-.7-.1-1.4-.4-2.1 0 .2-.1.4-.1.5-.6.3-1.1.5-1.8.8 0-.8.1-1.4.7-2zm2.5 3.8c0 .4-.1.7-.1.9-.1-.2-.6-.5.1-.9zm-.4 1.1c-.4.3-.4.3-.8-.4.3.2.5.3.8.4zm-7.2-2c1 .3 1 .4 0 1v-1zm2.3-24.7c.5 1 .1 1.8-.1 2.6.1-.8-.3-1.6.1-2.6zm-.7 5.7c0-.2.1-.4.1-.6-.2-.6.1-1 .4-1.5l-.3 2.7c.5-.5.4-1.2.5-1.8.1-.6.2-1.3.4-2 .3.6.3.6.1 1.9.1-.1.2-.1.4-.2.2.3.4.6.7.9-.2.4-.2 1-.7 1.2-.1 0-.1.4-.1.7 0 .2 0 .4.1.9-.8-.7-.2-1.3-.4-1.9-.2.7-.4 4.3-.6 4.9v-2.6c-.2 0-.4-.3-.6-.3-.1-.8 0-1.7 0-2.3zM80.5 273c-.1.4-.2.7-.3 1-.1-.5-.1-.5.3-1zm-.7 12.2l-6.7-5c0-.5 3.1-1.1 3.3-1.6h2.5c.1-.9.7-1.8.8-2.8.1.1.5.2.5.3-.1.9.1 1.8-.6 2.5v.1c.2.3.2.6.2.9 0 .2-.1.5-.1.7.1 0-3.2-.1-3.1-.1-.1 0-3.6.1-3.6.1v5h6.4s-6.4-5-6.4-5.1h3.5c0 .9 1.8 1.8 1.9 2.8h1.3c-.1-.1 0-.2 0-.4-.3-.6-.4 1.1-.1.5.1-.2.2 2.1.2 2.1zm-.2-1c0 .3.6.7-.1 1 .1-.4.1-.7.1-1zm1 4l-.3.9c-.1 0-.2-.1-.3-.1-.2.7-3.2 1.9-3.1 2.4.2.6-3.8.9-3.8.9v-6.6s3.6.2 3.7.4c.1.4 1.7.9 2 1.2.3.3 1.8.6 1.8.9zm.2-8.2h-.2c0-.2-.1-.3-.2-.7.3.2.4.3.4.4.1.1 0 .2 0 .3zm.6-9.8c-.2-.1-.4-.3-.4-.4 0-.6.1-1.2.2-1.8h.3c0 .8 0 1.5-.1 2.2zm1.5-10.5c-.2.9-.3 1.7-1.5 1.8 0-.2-.1-.4-.1-.6l.6-4.8c.1-1 .2-2.1.4-3.1.1-.6.4-1.2.5-1.9.1 0 .2.1.3.1-.2 1.2-.4 2.3-.5 3.5.1 0 .1 0 .2.1.1-.1.2-.3.3-.4.1-.2.1-.3.2-.5h.6c.5 0 .9.4.7.8-.4.9-.3 1.8-.3 2.7-.1.7.2 1.5.4 2.3-.9-.4-1.3.3-1.8 0zm1.2 35.6c.6.7 0 1.2 0 1.8-.1 0-.1.1-.2.1 0-.1-.1-.2-.1-.2-.1-.7-.2-1.4-.2-2 0-.3.2-.7.3-1 .5-.1.7.2.8.6.1.3-.2.5-.6.7zm1.4-11.2v-.7h.2c.1.4.2.7.2 1.1-.5-.1-.4-.1-.4-.4zm.3-1.9c.4-.2.4-.2.7.4-.3-.2-.5-.3-.7-.4zm.8-1h-.2c-.2 0-2.8.1-2.9.1h-2.3v.4c-2 .1 1.7 0 1.4-.2.1-.3 1.4-.4 1.6-.4.1 0 .8 3.1.9 3.1l.8 3.1s-.3-3.7-.5-3.8c.3-.4.5-2.4.8-2.8.2 0 .5-.8.6-1 .1-.1.1-.8.1-1.1.1 0 .1-.3.2-.3.2 0 .3 0 .4.2.1.4-.1 1-.4 1.1-.3.7-.4 1.1-.5 1.6zm.4 21.9c0-.2-.1-.4-.1-.6.5.1.4.3.1.6zm.5-21.9c-.1-.6-.6-1.3.4-1.7.4.7-.1 1.2-.4 1.7zm.6-1.7v-1.4c.5 0 .3 0 .5.1.1.5.4 1-.5 1.3zm1.7 5.3l-.2-.2c.1-.2.3-.3.5-.6.2.5-.1.6-.3.8zm2.1-5.3c-.2 0-.5 0-.5-.1-.1-.1-.1-.4 0-.6.1-.2.4-.4.7-.7-.1.6-.2 1-.2 1.4zm-.1-1.5l-.3-.3c.1-.1.2-.2.3-.4.1.1.3.2.2.3 0 .2-.1.3-.2.4zm-.4-1.1c.3-.3-.2-1 .6-1.1.1.8.1.8-.6 1.1zm.6-2.1c-.4-.4-.1-.6 0-.8.1.2.1.4 0 .8zm.2-2.1c0 .1 0 .2-.1.3 0 .2-.1.3-.1.4h-.2c-.3 0-.5-.4-.9-.4h-.2c-.4.1-.9.1-1.4.2-.1.4-.3.8-.5 1.2-.4-.2-.4-.6-.6-.9l-2-.1c-.1-.1-2.2-.1-2.2-.2h1.9c.1.4 1.1.8.9 1.1l.4.1c0 .1.1.1.1.2.2.2.2.4 0 .5-.2.2-.4.4-.4.6 0 .7-.2 1.3-.9 1.5-.1 0-.1.2-.1.3-.3-.1-.5-.3-.3-.6.1-.2.4-.3.6-.4 0-.3-.2-.7-.1-.9.3-.5.7-.8 1.1-1.2.1 0 .2 0 .2.1-.1-.1-.2-.2-.2-.3v-.2s0-.1.1-.1c.2-.2.3-.4.5-.7v-.1c.1-.2.1-.3.2-.4.2-.3.3-.3.9-.3.8 0 .8 0 1.4-.8 0-.1.1-.1.2-.1H89c.2 0-1.2.2-1.2.3v-1.1c0 .1 1.4.2 1.3.3l.8-.1c0-.1.5-.3.5-.4.2-.6.5-1.1.6-1.7.1-.6-2-1.3-1.4-1.7.2-.1-1.8-.4-1.8-.8s2.2 0 2.2 0c.5 1.7 2.5 4.9 2.2 6.4zm1.1-26.7c.1 0 .1 0 0 0-.1.1-.1.3-.2.5l-.3-.3c.2-.2.4-.2.5-.2-.1-.4-.2-.7-.3-1.2 0 0-.2 0-.4-.1.1-.3.3-.5.4-.9.2.5.4.9.5 1.3.2.3.3.7-.2.9zm16.3 10.7c.2.1.4.1.7.2-.3.3-.3.3-.7-.2zm2-5.6c.4-.4.6-.8 1.1-1.3.1 1 .1 1-1.1 1.3zm-41.8 70.1c-.2 0-.3-.1-.5-.1v-.2c.2 0 .3.1.5.1.1.1 0 .1 0 .2zm4.9-7.9c0 .6-.5.4-.7.5-.9.5-1.9.3-2.9.3-.1 0-.1 2.7-.3 2.6.4-.3 1.1 1.6.8 1.6h.9c.3 1 .3-1.9 1.1-2-.2-.1-.3-1.6-.4-1.6-.1-.1-.3-.9-.4-1v-.6c0-.1.1-.2.1-.2.7-.1 1.4-.2 2.2-.3v.2c.1.2-.4.3-.4.5zm.8-.1c.1-.8.2-.9 1.7-.6-.6.2-1.1.4-1.7.6zm33.7-11.1c-.5.3-1 .6-1.6.9-.5.3-1.1.6-1.6.8-.2.1-.5-.1-.8-.1v-.2c2.3-1.2 4.7-2.5 7.2-3.8-1 1.1-2.1 1.8-3.2 2.4zm4.8 12.6c-.1-.9.1-1.3.9-1.4.6-.1 1.2-.3 1.8-.4.3 0 .6 0 .9.1-1.3.5-2.3 1.4-3.6 1.7zm7.2-3.7c.1-1 .6-1.4 3.2-2.3-1 .8-2.1 1.5-3.2 2.3zm-2.2-59.6c.8-.4 1.5-1.1 2.3-1.6.1-.1.2-.1.5-.2-.9 1.3-2.1 1.8-3.1 2.7-.1-.7-.1-.7.3-.9zm1.1 8.6c-1 .2-1.6-.5-2.3-.6 2-1.3 2-1.3 2.8-1.2-.2.3-.4.5-.6.8-.2.3-.4.6.1 1zm4.9-8.7c-1 .8-2 1.5-3.2 1.9-.6.2-1.3.2-1.5 1.1 0 .2-.3.4-.6.5-1.6.9-3.1 1.8-4.9 2.1-.3 0-.6 0-1 .1.4-.4.4-.4 1.1-.5.6-.6 1.1-1.4 1.8-1.8 2.1-1.3 4-2.9 5.6-4.9.9.4 1.9.8 2.9 1.2 0 .1-.1.2-.2.3zM299.3 15.7c.1-.8-.1-1.6-.2-2.4 0-.1 0-.2-.1-.3 0-.2-.1-.5-.1-.7-.1-.2-.1-.5-.1-.7 0-.2-.1-.4-.1-.7-.1-.4-.3-.8-.4-1.2-.2-.4-.4-.7-.7-1.1-.4-.5-.9-.9-1.4-1.3-2.3-1.5-4.6-1.1-6.9.1-.3.2-.6.4-.8.6-.4.5-.7 1-1 1.6l-.3.9c-.1.3-.2.6-.2.9-.3 1.4-.5 2.8-.8 4.2-.2 1.2-.5 2.4-.8 3.7-.4 1.9-.8 3.7-1.2 5.6l-.3 1.2-.3 1.2c-.3 1.5-.6 3.1-.8 4.6-.3 1.7-.7 3.3-.9 5-.3 2.6-.6 5.3-1.1 7.9-.6 2.9-.9 5.9-1.4 8.8-.3 2.1-.7 4.2-1.2 6.2-.3 1.2-.6 2.5-.9 3.7 0 .1 0 .1-.1.2-.1.2-.2.4-.2.6-.6 2.4-1.2 4.8-1.7 7.2-.4 1.9-.8 3.8-1.1 5.7-.1.8-.2 1.6-.4 2.4-.3 1.4-.7 2.9-1 4.3-.3 1.4-.4 2.7-.6 4.1-.1.9-.3 1.9-.4 2.8-.3 2.3-.5 4.5-.8 6.8-.4 2.6-.9 5.2-1.3 7.8-.1.5-.1 1-.6 1.5-.5-1.1-.9-2.1-1.3-3.1-.6-1.8-1.2-3.6-1.9-5.5-.4-1.1-.8-2.3-1.2-3.4-.1-.3-.1-.7-.1-.9.4-1.2-.3-2.2-.7-3.3-.1-.2-.3-.4-.4-.7l-.9-3.3c-.4-1.4-.7-2.7-1.1-4.1-.5-1.8-1-3.7-1.4-5.5-.1-.5-.2-1.1-.3-1.6-.1-.6-.2-1.1-.3-1.6-.3-1.3-.7-2.6-1-3.9-.3-1-.5-2.1-.7-3.1-.3-1.2-.5-2.5-.9-3.7-.2-.6-.5-1.3-.7-1.9-.2-.4-.3-.9-.5-1.3-.1-.6-.2-1.1-.4-1.7 0-.2-.1-.4-.1-.6-.1-.2-.1-.4-.2-.7-.2-.7-.5-1.3-.6-2l-1.2-7.5c-.2-1.2-.3-2.3-.6-3.5-.7-3.4-1.4-6.7-2-10.1-.2-1-.4-2.1-.6-3.1-.2-1-.4-2.1-.7-3.1-.3-1-.6-2-.6-3.1 0-.5-.1-1-.3-1.4-.2-.4-.4-.9-.6-1.3-.2-.4-.4-.8-.7-1.2-.2-.3-.3-.6-.5-.9-.1-.3-.3-.7-.4-1-.1-.2-.2-.4-.4-.6l-.3-.3c-.3-.4-.6-.9-.8-1.4-.1-.2-.3-.5-.4-.7-.1-.1-.1-.2-.2-.3-.3-.5-.7-1-1.1-1.3-1.8-1.4-3.6-2.4-5.9-2.6h-1.2c-.4 0-.8.1-1.2.2-1.3.4-2.4 1.1-3.2 2.1 0 .1-.1.1-.1.2-.2.2-.3.4-.5.5-.7.5-1.2 1-1.5 1.7-.1.2-.2.4-.2.7-.1.2-.1.5-.1.7 0 .4-.1.7-.1 1.1-.1.7-.2 1.5-.3 2.2-.1.4-.1.7-.2 1.1-.1.5-.1 1-.2 1.4 0 .1 0 .3-.1.5-.1.5-.1.9-.2 1.3-.4 1.8-.9 3.5-1.3 5.3-.3 1.2-.3 2.4-.6 3.6-.4 2.3-.8 4.6-1.4 6.8-.8 3-1.3 6.1-1.7 9.2-.2 1.3-.3 2.6-.5 3.9-.2 1.1-.4 2.1-.6 3.2-.3 1.8-.6 3.5-1 5.3-.4 1.5-1 3-1.3 4.6-.6 3-1.2 6-1.7 9.1-.3 1.8-.6 3.7-.9 5.5 0 .1 0 .2-.1.4 0 .2-.1.5-.1.7 0 .1-.1.2-.1.3-.6 2-1 4-.9 6.1v.5c-.4 2.9-.8 5.8-1.1 8.7l-.9 8.7-.9 7.5c-.5 3.6-3.6 7.2-3.1 10.8.1.7-1.8 1.2-1.8 1.6v1.1h3.4c-.1.4 1.1.8 1 1.1-.2.5.6.7 1.1.9.2-.8 1.3-1.2 1.2-1.9.3 0 .7.1 1 .1.9-.2 1-.2 1.2.7.1.3 0 .7.1 1 0 .2 0 .3.1.7.3-.7.5-1.3.7-1.8-.5-.4-.4-.8 0-1.3.2 0 .3.1.5.1.1-.2.2-.4.3-.5.1-.2.2-.3.3-.5v3.3l-.2 3.3h-4.6v-6.7 6.7h4.8c-.3 0-.6-3-.9-2.8v-1.7s0-.8-.1-.8v-.8c.1-.3-3.1-.9-3.1-1.3-.1.2-.7.2-3.7.5h1.2c-.2-1.3-1.2-1.3 1.8-2.1h2c.1.3 1.3.6 1.3.9.1.2.5.5.6.8.1.2-1.9.3-1.8.5 0 .1-2.2.2-2.2.3 0-.2 4.8 6.6 4.9 6.6h.1c.2 0 .4-3.4.6-3.4.1-.2.2-2.2.3-2.4.1-.2.2-1.2.3-1.3.1-.1.3-.6.6-.7 0 .1.1 0 .2.1h.1c.3-1 1.4-.6 1.9-1.2.2.8.2.8.8.6l-.3-.6c.7-.3 1.2-.5 1.1-1.4-.1-.3.1-.9.7-1 .2 0 .4-.2.5-.4.7-.7 1-1.5 1.2-2.4.2 0 .2-.1.3-.1.9-.2 1-.5 1.2-1.4.1-.8 0-1.7.3-2.4.1-.2 0-.4 0-.6.1-.8 0-1.7.3-2.5.3-1 .4-2 .5-3.1 0-.2.1-.5.2-.6.4-.6.2-1.2.1-1.9-.1-.6.4-1.2.2-1.9 0-.1-.1-.1-.1-.2-.2-.4-.1-.7.1-1.1.2-.3.4-.7.5-1.1.1-.4.1-.8.2-1.2.2-.9.5-1.7.5-2.6 0-.7 0-1.5.1-2.2.3-1.2-.4-2.5.6-3.6v-.1c.1-1.1.3-2.2.5-3.3.2-1.4.6-2.8.3-4.3-.1-.3-.1-.6-.1-.9 0-.3-.1-.6-.1-.9V83c.2-.8.4-1.5 0-2.3v-.6c.1-.5.2-1.1.3-1.6 0-.3.1-.5.1-.8.1-.5.1-1.1.2-1.6.1-.8.1-1.6.2-2.4 0-.5 0-1 .2-1.6.2-.6.3-1.3.4-2l.6-4.8c.1-.9.3-1.8.6-2.8.1.2.2.3.2.4.3 1.6.9 3.1 1.6 4.6.4.8.7 1.6.9 2.5.4 1.5.6 3.1.9 4.6.3 1.4.6 2.9.9 4.3.3 1.6.4 3.2.8 4.7.6 2.6 1.3 5.1 1.9 7.7.5 2.1 1.3 4 2.1 6 .3.7.6 1.5.7 2.3.3 2.2 1.1 4.2 1.8 6.3.6 1.6 1.3 3.2 1.9 4.8 1.3 3.3 2.5 6.6 3.9 9.9 1.1 2.6 2.5 5.1 3.6 7.6.5 1.2 1.4 2 2.1 3.1 1.4 2.4 3.3 4.2 6.1 5 .5.2 1.1.2 1.7.4 1.6.6 3.2.5 4.7-.1h.3c.9-.2 1.8-.6 2.8-.7.5 0 .9-.4 1.4-.6.1-.1.3-.2.4-.2.5.3.7-.2 1-.3.3-.2.6-.6.9-.9.1-.6.2-1.2.4-1.8.4-1.2.9-2.5 1-3.8 0-.5.1-1.1.3-1.5.4-.9.7-1.8.7-2.8 0-.2.1-.4.2-.6.8-1.5 1.3-3.2 1.4-4.9 0-.6.2-1.3.1-1.9-.1-.8.5-1.2.6-1.9.4-1.8.9-3.5 1.3-5.3.1-.4.3-.7.3-1.1.1-1.3.4-2.4.7-3.7.3-1.1.3-2.4.7-3.5.7-2.2.8-4.4 1.4-6.6.3-1.3.5-2.6.8-3.9.1-.4 0-.8.2-1.1.4-1 .3-2.1.8-3.1.1-.2 0-.4 0-.6 0-.5.1-1 .1-1.5.1-.7.2-1.4.3-2.2.1-.7.2-1.4.4-2.2.1-.4.1-.7.2-1.1.1-.4.2-.7.2-1.1v-.9c0-.3 0-.7.1-1 0-.2 0-.3.1-.5.3-1.3.5-2.7.6-4.1 0-.5.1-.9.1-1.4.1-1.4.3-2.7.5-4.1.1-.7.3-1.4.2-2.1-.1-1.2.3-2.2.4-3.3.1-1.5.4-3 .5-4.5 0-.4 0-.7.1-1.1.1-.7.2-1.4.4-2.1.1-.4.1-.7.2-1.1.2-1 .3-2 .5-3 .1-.6.1-1.3.4-2 .1-.2 0-.4.1-.6l.3-1.8c0-.1.1-.2.1-.4 0-.1.1-.2.1-.4.2-1.2.3-2.4.5-3.6.1-.4.1-.8.2-1.2.3-1.9.6-3.8.9-5.6.3-1.9.6-3.8.9-5.6l.3-1.5c.2-.7.3-1.4.5-2.1.2-.7.3-1.4.5-2.1 0-.2.1-.4.1-.5.1-.5.2-1.1.3-1.6.3-1 .7-2 1-3-.3-.2-.5-.5-.5-.8zm-83.9 98.9h.3c-.1.2-.1.5-.2.7h-.2c0-.2 0-.4.1-.7zm0 1.6v.6h-.2v-.6c0-.1.1-.1.2 0zm-1.5 7.6c-.1 0-.1 0-.2.1.3-2.7.6-5.3.9-8 0 2.6-.1 5.1-.7 7.9.4-.2.6-.3.9-.5.2.6-.1.9-.3 1.3-.2-.2-.4-.5-.6-.8zm.7 3.8c.2-.8.3-1.4 1.2-1.7.1.5.2.9.4 1.4-.6.1-1.1.2-1.6.3zm4.6-35.9h.2c0 .3 0 .5-.1.8h-.1v-.8zm.1 24.8c-.1-.5-.1-.8.4-.9-.2.3-.3.5-.4.9zm13.1-101.4c.4-.2.6-.7.9-1.1l.2.2c-.2.5-.3 1.1-.9 1.4-.2.1-.2.4-.4.6-.1.2-.2.5-.4.6-.4.3-.6.6-.5 1.2 0 .2-.3.5-.5.7 0-1.5.3-2.7 1.6-3.6zm.9 8.4c-.8-.4-.5-.7-.1-1.1 0 .4.1.7.1 1.1zM226 45.9c.2-1 .4-2.1.7-3.1.3-1 .1-2 .9-2.9-.5 3-1.1 6-1.6 9h-.3c.1-1 .1-2 .3-3zm-4.6 59.7c.1.7-.2.4-.6.3.3-.1.4-.2.6-.3zm-.8 9.9c-.2 0-.4 0-.7.1v-.5c.3.1.5.2.7.3v.1zm-.4-2.1c0-.2.1-.3.1-.5h.1v.5h-.2zm.4-1.5c-.2-.2-.4-.3-.8-.5.4-.1.6-.1.9-.1 0 .2-.1.3-.1.6zm.3-2.2c-.2-.1-.4-.2-.7-.3.3-.2.4-.3.7-.5.1.4.1.6 0 .8zm-.1-.9c.1-.6.2-1.1.3-1.6.2 0 .3-.1.5-.1.1.3.3.6.2.9-.1.5-.3 1.1-.4 1.6-.3-.1.3-1-.6-.8zm.7 4.2c.1-.7.1-1.3.2-2.1.4.6.4.7-.2 2.1zm.3 4.9c-.1-.1-.2-.2-.2-.3-.2-.3-.2-.7 0-1.1.2.2.3.4.5.7-.1.3-.2.5-.3.7zm.3-1.5c-.4-.7 0-1.1.2-1.7.3.5.3.5-.2 1.7zm1.4-2.9c-.5.1-.6.8-1.2.6-.4-.8 0-1.5.2-2.2.3-.8.3-.8-.3-1.3-.1-.1-.3-.4-.3-.4.5-.5-.1-1.1.3-1.8.2.2.2.3.3.4l.1-.1c0-.2-.1-.5-.1-.7-.1-.2-.1-.5-.2-.7-.2-.4.5-.5.3-1-.1-.3 0-.8.2-1.2 0 .2.1.3.2.7.2-.6.3-1 .5-1.5h.1c0 .3.1.7.1 1 .3-.6.7-1.1.3-1.8-.1.2-.2.3-.3.5 0-.5.1-.9.1-1.5.1.4.2.6.2.8h.1c.1-.2.1-.5.2-.7.4-.9.7-1.8 1.2-2.6.2.5.2 1.1-.1 1.4-.5.7-.5 1.5-.8 2.2-.1.3-.2.6-.2 1 .1 0 .2 0 .2.1.2-.6.4-1.1.6-1.7.3.6.3 1.3.1 2v.3c-.1.4-.1.8-.2 1.2v.1c0 1.1-.4 2.1-.6 3.1-.2.8 0 1.6-.5 2.3-.1.2 0 .5 0 .7 0 .4-.1.7-.5.8zm1.9.9c-.1.3-.3.6-.3.9.1.9-.5 1.1-1.1 1.6 0-.8.9-1.5.2-2.3.5-.8.4-1.9 1.5-2.4.1.8-.1 1.5-.3 2.2zm.1-2.4c-.1-.4-.3-.7.3-.7.2.2.2.5-.3.7zm-.8-.8c-.1-1.3.9-2.3 1.1-3.5.5 1 .2 1.9-1.1 3.5zm1.4-3.7c-.1-.2-.2-.3-.3-.5.1-.1.2-.1.3-.2.1.2.2.3.3.5-.1.1-.2.1-.3.2zm.4-6s.1 0 0 0c0 .3.1.4 0 .5v.1c-.1.1-.2.1-.5.2.1-.3.1-.5.2-.9.1 0 .2 0 .3.1.1 0 .2 0 .2-.1v-.6c.2.1.3.2.3.3l-.1.1c0 .1 0 .2-.4.3zM226 42c-.5 2.8.5 5.6 0 8.4-.2 1.3.4 2.6.3 3.9 0 .5.5.9.5 1.4 0 .2.2.4.2.7v.7c-.7 3-1.1 8.5-1.6 11.6-.2 1.3-.4 4.6-.6 6.6h.4v.1s-1.1-2.8-1.5-2.9c-.1-1.1-.2-3.4.4-4.4.2-.4.2-1.6.3-2.1.1-.4.1-1.1.3-1.5.3-.6 0-1.5.3-2.1.4-.7.5-1.6.8-2.4.2-.4.1-1 .1-1.4 0-.2-.1-.4 0-.6.2-.9.1-1.7-.2-2.6-.5-1.6-3.5-3.4-3-5.1 0-.2-2.5-.3-2.5-.7v2.2c0-.2 3.2-.3 3.2-.4.1-.4 1.5-.9 1.6-1.3.2-.8 1.1-1.6 1.3-2.4.2-.6.8-1.2.9-1.8.3-1.2.7-2.5 1.1-3.7.1-.3-2.6-.6-2.5-.9.1-.4-2.6-.9-2.6-1.4-.1.6 2.9 1.4 2.8 2.1zm3.4 42.5c-.1-.4 0-.7.4-1 0 .6 0 .6-.4 1zm.7-2.3c-.5-.3-.5-.5 0-1.1 0 .2-.1.4-.1.5.1.2.1.4.1.6zm-.4-24.6h-.3c0-1.6.3-3.2.9-4.8h.3l-.9 4.8zm.5 17.2c.3-.4.4-.9 1-1.1-.2 1.1-.2 1.1-1 1.1zm-.2-47.4c-.5 1.9-.9 3.9-1.4 5.8-.2-1.4.4-2.7.6-4 .2-1.3.4-2.7.6-4 .3-1.4.5-2.7.7-4.1.5.1.4.9 1.1.4-.6 2-1.1 3.9-1.6 5.9zm2 3.2c-.2-1.4-.2-2.5.3-3.6-.2-.2-.4-.3-.5-.4-.3-.2-.4-.5-.1-.8.3-.4.6-.8 1-1.2.2-.3.4-.5.6-.8.3.4.2.8.1 1.2-.5 1-.5 2.1-.4 3.2.1.6 0 1.1-.3 1.5-.3.2-.4.5-.7.9zm1.5 1.5c-.3.8-.6 1.7-.9 2.5-.3-1.3.2-2.5.5-3.8.4.4.6.8.4 1.3zm.7-12.8c.2-.5.3-1.1 1.2-1-.5.4-.9.7-1.2 1zm1.6-1.4c-.1 0-.2-.1-.2-.2l.1-.1c.1 0 .2.1.5.2-.3.1-.4.2-.4.1zm.3 41c1 1.5 1.2 3.2 1.6 4.9-.5-1.7-1-3.3-1.6-4.9zm6.8 26.5c-.2-1-.4-1.9-.6-2.7.1 0 .2 0 .3-.1.1.4.1.7.3 1.1.1.2.3.4.5.7-.1.2-.3.5-.5 1zm.9 1.2v.6c-.5-.2-.2-.5 0-.6zm4.1-10.2l.3 1.5h-.3c-.1-.5-.1-1-.2-1.5h.2zm-.8-2.8c.1.3.2.7.2 1h-.2l-.3-.9c.2 0 .3-.1.3-.1zm.2 3h-.2c0-.3 0-.6-.1-1h.2c0 .3.1.7.1 1zM245.2 90c.1 0 .1 0 .2-.1.1.4.3.8.4 1.2-.1 0-.2.1-.2.1-.1-.4-.2-.8-.4-1.2zm-6.1 3.3v-1.7c0 .8 1 1 0 1.7zm6.8 10.8c-.2-.3 1.3-.7 1.2-1-.1-.2.7 3.5.7 3.2-.1-.3.7 2.9.6 2.9-.1 0-.1-3.9-.2-3.9s-.1-1.9-.1-1.9c-.3-.6-.7-2.2-.7-2.9v-1.3c0-.5-.2 3-.4 2.6-.2-.6-.5 2.5-.8 2.5h.4s-3.5-4.6-3.5-4.7c-.2 0-4-4.2-4-4.3v-2s3.7 0 3.7-.1c.5.7 2.7 1.4 2.7 2.3 0 .8 1.4 1.5 1 2.3.1 0 .6 3.4.6 3.4.1-.1.6 3 .7 3l.1-3.3c.7 1 .5.6.7 1.7.1.3-3-.2-2.9.2.2-.2-2.7-1-2.7-1.1 2.1.9 3.3 1.6 2.9 2.4zm5.2 3.4l-.6-1.2c.5.3.7.7.6 1.2zm11.2 24c.1 0 .1-.1.2-.1.2.3.3.6.5.8-.5 0-.7-.3-.7-.7zm3.1 2.1c-.3-.1-.5-.2-.8-.3 0-.1.1-.2.1-.2.3.1.5.2.8.3-.1.1-.1.2-.1.2zM80.9 100c.1 2.1.2 4.2.4 6.3.2 2 .4 4.1.6 6.1.3 2.4.7 4.8 1.1 7.2.3 1.7.6 3.3 1.2 4.9.5 1.3 1 2.6 1.5 3.8.7 2 1.7 3.9 2.8 5.8.3.6.7 1.1 1 1.6 1.1 2.4 2.7 4.4 4.3 6.5.6.7 1.3 1.4 1.9 2 1.4 1.4 3 2.7 5 3.3 1.8.5 3.7.8 5.6.7 1.5-.1 2.8-.5 4-1.2.1-.1.2-.1.3-.1 1.8-.7 3.3-1.9 4.5-3.3 1.1-1.3 2.2-2.7 2.4-4.5 0-.3.2-.7.4-.8.5-.2.6-.6.9-1 .4-.5.8-1.1 1-1.8 0 0 0-.1.1-.1.4-.4.6-.8.7-1.3.1-.2.3-.4.4-.6.4-.7 1.2-1.2.8-2.2-.1-.2.2-.6.4-.9.1-.1.3-.2.3-.3 0-.9.5-1.5.8-2.3.5-1.2 1.1-2.4 1.2-3.8 0-.1 0-.2.1-.3.5-1.3.9-2.6 1.4-4 .1-.3.4-.6.5-1 .2-.4.4-.7.5-1.1.3-1.1.3-2.3.8-3.4.2-.5.4-1.1.5-1.7.2-.9.3-1.7.5-2.6.1-.5.2-.9.3-1.4.2-1 .4-2.1.7-3.1.4-1.3.8-2.5 1-3.8.2-1.7.6-3.3.9-5 .3-1.7.5-3.4.8-5.2.1-.6.3-1.2.3-1.9 0-1.1-.1-2.3 0-3.4.1-.9.4-1.8.1-2.7v-.2l.3-3c0-.2-.1-.4-.1-.6 0-.2-.1-.3-.1-.5.4-1.1 0-2.3.3-3.5.2-.8-.2-1.8-.1-2.7 0-.9-.3-1.7-.2-2.6 0-.5-.1-1.1-.1-1.6 0-.2 0-.4.1-.6 0-.1.1-.2.2-.3.1-.1 0-.3 0-.4-.1-.3-.1-.6-.1-.9 0-.3 0-.6.1-.9 0-.3.1-.6.1-.9v-.8c.1-.2.2-.5.2-.7.1-.2-2.5-.5-2.5-.7 0-.2-2.6-.3-2.6-.5v-.5c0-.3 2.6-.7 2.6-1 0-.2 1.3-.3 1.4-.5.1-.4.5-.8.6-1.2 0-.2.4-.3.4-.5 0-.3.2-.6.2-1 0-.2.1-.3.1-.5v-4.5c0-.8 0-1.7-.1-2.5v-1.6c-.1-.8-.2-1.5-.3-2.3-.1-2.2-.1-4.4-.2-6.6-.2-3.2-.5-6.4-.7-9.6-.2-2.4-.6-4.8-1.4-7.1-.2-.8-.7-1.6-.1-2.4v-.3l-.3-1.2c-.1-.2-.1-.4-.2-.6-.1-.2-.1-.4-.2-.5-.1-.2-.2-.5-.3-.7-.4-.7-.8-1.3-1.2-2-1.1-1.7-2.5-3-4.5-3.6-.1 0-.3-.1-.4-.1-.2-.1-.5-.2-.7-.4-.1-.1-.2-.1-.4-.2-.3-.1-.5-.3-.8-.4-.3-.1-.5-.2-.8-.3-1.3-.5-2.7-.6-4.2-.6h-1.7c-2.4.4-4.5 1.2-6.4 2.5-.6.4-1.2.9-1.8 1.4-2 1.8-3.9 3.8-5.6 6-1.6 2.1-3.2 4.2-4.4 6.5-.6 1.2-1.3 2.4-1.9 3.6-.7 1.4-1.5 2.8-2.1 4.2-1 2.2-1.9 4.4-2.8 6.7-.4 1-.9 2-1.3 3-.1.4-.3.8-.4 1.2-.2.8-.5 1.6-.7 2.4l-.3 1.2c-.2.8-.5 1.7-.7 2.5-.2.8-.5 1.7-.7 2.5-.4 1.3-.7 2.6-1.1 3.9-.1.3 0 .7-.1 1 0 .1-.1.3-.2.4 0 .1-.1.1-.1.2l-.3 1.5c-.4 1.5-1 2.9-1.5 4.4-.6 1.7-.8 3.5-.9 5.3-.1 1.7-.1 3.4-.3 5.1-.1.6 0 1.2-.1 1.7-.2 2.3-.4 4.5-.6 6.8-.1 1 0 2.1-.1 3.1-.1 1.6-.3 3.2-.2 4.9 0 3 .1 5.8.3 8.7zm38.7-57.2c0-.3 0-.5.1-.9.6.4.3.6.2.9h-.3zm.3 36.7v-1.2c.1-.9.3-1.8.4-2.8.6 1 .4 3.1-.4 4zm.6-4.5v-1 1zm2.9-21.5c-.2-.3-.4-.4-.6-.7h.5c.4 0 .4.3.1.7zm-.1-1.2c0-.1-.1-.2-.1-.2l.3-.3.2.2c-.1.1-.3.2-.4.3zm.2-.7c-.4-.1-.8-.2-.9-.7-.1-.5.1-.9.4-1.3.2-.2.4-.5.6-.7.1 0 .1 0 .2.1-.6.9.4 1.8-.3 2.6zm1.5-3.8c-.2-.7-.5-1.4 0-2.1.1.7.4 1.4 0 2.1zm-.8-14.7c-.5 0-.5-.3-.7-.6.7-.2.7.1.7.6zm-.6-2.8c0 .4.1.7.1 1.1-.4-.5-.4-.5-.1-1.1zm-.9 4.4c0-.9.1-.9 1-.9h.9c-.1.8.4 1.5-.2 2.2v.2c.1.5.3.9.3 1.4 0 .5-.1 1.1-.1 1.6 0 .3.1.5.2.8 0 .1.1.2.1.3-.3 1.5-2 3.1-2.3 4.6l-2.4.1v7.1h4.6c0-3-.1-3.9-.1-4 .1-.4.2-2.6-.2-2.9-.1-.1 0-1.3 0-1.7-.1.1-.3-.2-.5-.1 0 0-.1-.2-.2-.1-.2.1-3.4.1-3.5.2l-3.1-.1v5.7h6.1v-4.9s-3-.3-3-.2c0 0-3.1-.4-3.1-.5l3.1.1c.2.5 1.9.9 2 1.3 0 0 .9-.1 1.1-.2.1.7-2.7.7-3.3.8h-2.8 3.2c-.1-.2 1.4-.5 1.3-.7h.8c-.1-.4.4-.9.4-1.3h.3c-.4-.7-.5-1.3-.1-2 .4-.6.1-1.1-.5-1.3-.2-1.2-.4-2.4-.6-3.7 1.3.6 1.1 1.7 1.3 2.7v.6c.1.5.3.9.5 1.4h.2c0-.3-.1-.6-.1-1v-1.1c.1 0 .3-.1.5-.1-.1-.2-.3-.3-.3-.5s.2-.4.2-.6c-.5-.4-.4.3-.7.4-.1-.4-.1-.7-.2-1.1 0-.3-.1-.6-.1-.9-.1-.5-.3-.6-.8-.4-.1-.5-.2-.9-.3-1.4.1.2.3.2.4.2zm-1.1-10.1c.2.3.3.4.5.7-.1 0-.2.1-.2 0-.4 0-.6-.2-.3-.7zm-.6 11.1c.4.5.4.6.3 1.6-.5-.9-.5-.9-.3-1.6zm-1.3-14.9c.2.1.4.3.6.4 0 .1-.1.1-.1.2l-.6-.3c0-.2.1-.2.1-.3zm-.1 14.5c.3.5.6 1 .5 1.6-.1.6.1 1 .4 1.5.3.5.8 1 0 1.7.6 0 .8.3.9.7.2.7.7 1.4.6 2.2 0 .1.1.3.2.4.6.6.6 1.3.3 2.1.1.2.3.4.4.6h-.3c-.1-.1-.1-.2-.1-.3v-.2s-2.6 0-2.6-.1c-.1.1-2.8.3-2.8.4 0 0 2.5.1 2.6.1 0 .2 1.3.3 1.3.5 0 .1.6.1.6.2h1c.1.5-1.8 1.1-1.8 1.6l-1.7 1.1v8h4.1c.2 0-2.6-3.9-2.9-3.7-.2.2-3.2-4.2-3.2-4v.1c0-.6 2-1.2 1.9-1.9-.2-.9.7-1.8.4-2.6-.1-.2.6-.5.7-.7.4-.6.9-1.3.7-1.8-.1-.2.1-.3 0-.4 0-.4.2-.9-.1-1.5v.3c0 .3 0 .4-.1.6h-.2c-.4-.3-.6-.6-.6-1.1 0-.3 0-.6-.1-.8-.1-.4-.2-.7 0-1.1 0-.1 0-.1.1-.2 0-.2-.1-.5-.1-.7-.1-.6-.3-1.1-.4-1.7.1-.5.2-.7.3-.9zm-4.4-1.1l-1 .5c.2-.6.5-.6 1-.5zm-4.9-10.9c.2-.2.3-.5.5-.9.6 1.1-.4 1.2-.7 1.8-.3-.4 0-.6.2-.9zM98.5 82c.4-.9.5-1.9.6-2.8 0-.3.1-.6.2-.9.1-.3.2-.5.2-.7 0-1.2.2-2.4.3-3.6 0-.6.4-1.1.4-1.6v-1.7c.1-1.2.4-2.3.9-3.4.2-.5.3-1 .6-1.5s.2-1.2.3-1.8c.1-.5.3-1 .3-1.6.1-.5.1-1.1.1-1.6 0-.1-.1-.3 0-.4.3-1.3.5-2.7 1.1-3.8.7-1.4.9-3 1.6-4.5.5 0 .9 0 1.1-.6-.4-.8-.3-1.6.1-2.4.3-.5.6-1.1.8-1.6.9-1.8 1.8-3.7 2.7-5.5.3-.5.6-.9 1.1-1.1 1.4.6 2.4 1.6 3.3 2.8 1.4 2.2 2.1 4.7 2.4 7.3.3 2.9.4 5.9.6 8.8.1 1.5.2 3.1.3 4.6.1 1.3 0 2.7.1 4 .1 2.2.2 4.4.2 6.6 0 1-.2 2.1-.3 3.1 0 .4-.1.8-.1 1.2 0 2.2-.5 4.4-.8 6.6-.1 1-.2 2.1-.4 3.2-.4 2.3-.8 4.7-1.2 7-.3 1.6-.5 3.2-.8 4.8-.2 1.3-.7 2.6-.8 3.8-.3 2.1-1 4.1-1.7 6.1-.6 1.6-1.1 3.1-1.7 4.7-.5 1.3-1 2.5-1.6 3.7-.2.3-.2.9-.7.9-.5 0-1.1-.1-1.4-.3-.6-.5-1.2-1.2-1.7-1.9s-.8-1.5-1.2-2.2c-.9-1.3-1.4-2.8-1.7-4.4-.3-1.9-.9-3.7-1.3-5.6-.2-.8-.6-1.5-.4-2.4.1-.3-.1-.7-.2-1-.1-.5-.4-1-.4-1.5-.1-1.2-.2-2.4-.3-3.5 0-.5-.2-.9-.3-1.4-.1-1.2-.1-2.4-.1-3.6 0-.4 0-.8-.1-1.2 0-1.2-.1-2.5-.1-3.7 0-.7-.1-1.4 0-2.1.1-.9.3-1.7-.1-2.6-.1-.1 0-.5.1-.7zM93 60.5c.2-.9.5-1.7.8-2.5.8.4.7.4.6 1.1-.2.9-.6 1.8-1.1 2.6-.1.1-.1.3-.1.5 0 .5-.1.9-.8 1.1-.1-1.1.4-1.9.6-2.8zm-1.4-2.4c.2.1.4.2.7.3.1.4.2.7.2 1.1 0 .2-.3.3-.4.5-.3.6-.5 1.1-.7 1.7-.1.2-.1.4-.1.6 0 .3.1.6-.3.7l-.1.1c.1.3.2.5.2.8 0 .2-.5.4-.1.7.1.1 0 .4 0 .7-.2-.2-.2-.3-.3-.4-.2.6.1 1.3-.9 1.4-.2-.7-.3-1.4.4-2-.4-.3-.5-.6-.2-1 .6-.7.7-1.5.9-2.4.1-.9.4-1.8.7-2.8zm-2 .6c.1-.2.2-.3.4-.4.5.7.5 1.3 0 1.9-.1.1-.2.3-.2.4 0 .5 0 1-.6 1.3-.2.1-.4.5-.6.7-.1 0-.1 0-.2-.1 0-.3 0-.6.1-.9.2-.7.3-1.6.9-2.2.2-.1.1-.4.2-.7zm-1 .4c.1 0 .2 0 .2.1-.1.3-.2.6-.3.8h-.2c.2-.3.3-.6.3-.9zm-1 3.6c.2.1.3.2.5.3-.2.3-.4.5-.5.8h-.2c.2-.4.2-.7.2-1.1zm-5.5 0v-1.2 1.2zm4.8-3.6h.2c-.1.3-.1.6-.2.9h-.2c0-.3.1-.6.2-.9zm-.3 1.3h.2c-.1.3-.1.6-.2 1h-.2c0-.4.1-.7.2-1zm-.8 4.3c.3.6.3.7-.6.8.3-.3.4-.5.6-.8zm-1.9 2.9c.1 0 .2 0 .3.1-.1.7-.3 1.3-.4 2-.3-.8 0-1.5.1-2.1zM65.3 82.4c.2-1.6.6-3.1.9-4.7.1-.4.1-.8.1-1.1v-.4c.1-.7.2-1.5.4-2.2.1-.7.3-1.5.4-2.2.2-1.2.3-2.3.5-3.5 0-.4.1-.8.1-1.2 0-.5.1-.9.1-1.4.1-.9.1-1.9.2-2.8 0-.5 0-.9.1-1.4v-.6c0-.2-.1-.4-.2-.6-.1-.2-.1-.3-.1-.4 0-.1 0-.1.1-.2 0-.1.1-.1.2-.2l.1-.1v-.7c-.1.1-.2.2-.2.3l-.1.1c0-.5.1-.9.1-1.3v-1.9c0-.8 0-1.6.1-2.5.2-1.3-.1-2.5-.2-3.7-.1-.8-.3-1.4-.6-2.1-.2-.4-.3-.8-.4-1.2-.1-.4-.3-.8-.4-1.2 0-.1 0-.2-.1-.3v-.2c0-.2-.1-.3-.2-.4-.2-.3-.3-.3-.5-.3s-.4 0-.5.1c-.1.1-.2.2-.3.4-.1.1-.1.2-.2.3 0 .1-.1.1-.1.2-.7 1.4-1.3 3-1.6 4.5-.1.3-.1.7-.4.8-.8-.8-.2-2.2-1.4-2.9-.1.1-.1.2-.2.3-.1.2-.3.3-.4.5-.1.1-.1.2-.1.3-.7 1.6-1.2 3.2-1.5 4.9-.1.5-.2 1-.4 1.7-.3-.9-.5-1.7-.7-2.4-.3-.9-.8-1.7-.7-2.8 0-.1 0-.3-.1-.4-.1-.2-.3-.3-.6-.3-.3.3-.5.6-.8 1-.8-.6-1.2-1.3-1.5-2.4-.3.5-.5.8-.7 1.2-.1.1-.1.2-.1.3-.1.4-.2.9-.3 1.3-.1.4-.2.9-.4 1.3-.5 1.3-.7 2.6-.9 3.9l-.6 4.8c-.3 1.9-.7 3.7-1 5.6-.5 2.9-1 5.7-1.5 8.6-.2 1.2-.3 2.3-.4 3.5 0 .4-.1.8-.1 1.2 0 .4-.1.8-.1 1.2 0 .4-.1.8-.1 1.2-.2 2.6-.5 5.2-.7 7.8l-.3 3.9c-.1 1.2-.3 2.3-.4 3.5-.1.8-.1 1.6-.2 2.4-.2 2.4-.5 4.7-.5 7.1v2.2c0 1.7-.1 3.3-.2 5 0 .6-.1 1.1-.1 1.7-.1 1-.2 2-.3 3.1-.1 1-.2 1.9-.3 2.9-.1 1.4-.2 2.9-.3 4.3-.1 1.9-.6 3.8-.6 5.7 0 .4 0 .7-.1 1.1-.1 1.3-.4 2.6-.4 3.9-.1 1.7 0 3.5-.4 5.2-.3 1.4-.4 2.9-.7 4.3-.5 1.8-1.2 3.5-1.8 5.3l-2.1 5.7c-.3.7-.6 1.4-1.1 2l-.5.5c-.2.1-.4.3-.6.4-.1.1-.2.1-.3.2-.3.2-.5.6-.8.8l-.2.2c-.2.1-.3.2-.5.3-.1 0-.2.1-.3.1-.3.1-.6.1-.9.2-.3 0-.7.1-1 .1-.2-.5-.4-1.1-.5-1.6-.2-.5-.3-1-.6-1.4-.7-1.2-.9-2.6-1.2-3.9-.1-.4-.2-.9-.4-1.3-.1-.3-.2-.5-.3-.8-.3-.8-.5-1.7-.7-2.5-.2-.7-.5-1.4-.7-2.1 0-.1-.1-.2-.1-.4v-.4c0-.3 0-.6-.1-.9-.1-.9-.3-1.9-.4-2.8-.3-1.7-.7-3.4-1-5.2-.3-1.8-.6-3.5-.9-5.3-.1-.4-.1-.7-.1-1.1-.1-1.1-.2-2.2-.3-3.4-.1-1.1-.2-2.3-.5-3.4-.2-.7-.3-1.3-.4-2-.1-.7-.1-1.4-.2-2v-.6c0-.2-.1-.4-.1-.6 0-.1-.1-.2-.1-.4-.1-.6-.3-1.2-.4-1.8-.2-1.1-.4-2.3-1.1-3.2-.1-.2-.2-.4-.3-.5-.1-.2-.2-.4-.2-.6-.1-.2-.1-.4-.2-.6-.3-.6-.6-1-1.2-1.4-.1 0-.1-.1-.2-.2 0-.3.1-.6.1-.8-.7-.2-1.1.1-1.3.6-.2.4-.3.8-.4 1.3-.2.8-.3 1.6-.5 2.4-1.6-.4-2.4-1.7-3.7-2.4-.9.5-.9.7-.6 1.7.3.9.4 1.9.2 2.9-.2-.1-.3-.2-.3-.4-.1-.3-.1-.8-.4-1-.5-.5-.8-1.2-.9-1.9-.1-.5-.4-.9-.8-1.1-.7-.4-1.3-.8-1.2-1.7-.1 0-.2 0-.3.1-.2.1-.4.1-.5.2l-.2.2c-.2.2-.3.4-.4.7 0 .1-.1.2-.1.3-.4 1.8-.4 3.6-.5 5.5 0 1.9.1 3.8.2 5.8 0 1.2.2 2.5.1 3.7-.1 2.1-.3 4.2-.5 6.3-.1.7-.1 1.4-.2 2.1 0 .4-.1.9-.1 1.3v1.3c0 .7.1 1.5.1 2.2v4.6c0 .6 0 1.1-.4 1.6-.3.3-.3.6-.1 1 .2.3.2.6.3.9v.3l.6 5.1c.1.6.2 1.1.3 1.7.1.3.1.6.1.9.1.6.1 1.3.2 1.9v2.2c0 .4 0 .8.1 1.2l.3 2.4c.3 1.6.7 3.2 1.2 4.7.3 1 .8 1.9 1.2 2.8.7 1.8 1.6 3.5 2.5 5.2.2.4.5.8.7 1.2l.3.6c.1.2.2.4.2.7l.3.9c.3.8.7 1.6 1.2 2.3.9 1.3 2 2.6 3.1 3.6.7.6 1.5 1.2 2.3 1.8.5.3.9.6 1.4.9.7.4 1.4.9 2.1 1.3.7.4 1.4.8 2.1 1.3.3.2.6.3 1 .5 1 .5 2 .9 3 1.3 1.2.4 2.4.7 3.6 1 .8.2 1.7.3 2.6.2 1.1-.2 2.3-.4 3.3-1 .9-.5 2-.9 2.9-1.5.9-.6 1.7-1.4 2.4-2.3 1.2-1.5 2.3-2.9 3.6-4.2.4-.5.8-1 1.1-1.6.7-1.5 1.3-3.1 2-4.6.8-2 1.6-4.1 2.4-6.1 1-2.4 1-4.9 1.8-7.3v-.2c.4-2.3.7-4.5 1.1-6.8.2-1.3.5-2.5.7-3.8.4-2.3.9-4.6 1.3-6.9.1-.4.3-.7.3-1.1.1-1.4.2-2.8.6-4.2.1-.5.2-1.1.2-1.6v-1.4c0-.5 0-.9.1-1.4.2-1.5.6-3.1.6-4.6 0-.9 0-1.9-.1-2.8 0-.8-.2-1.6-.1-2.4.1-.7.1-1.5.2-2.2.1-.7.2-1.5.2-2.2 0-.5.2-1.1.2-1.6v-.9c0-.2-.1-.5-.2-.7-.1-.2-.2-.3-.3-.4v-.3c.1-.8.1-1.5.2-2.3.2-1.3.5-2.6.6-4 .1-1.3.1-2.6.3-3.8.1-.8.3-1.6.3-2.4v-.3c0-.2 0-.4.1-.5v-.8c0-.2 0-.3-.1-.5-.5-1.3-.4-2.7-.2-4 .2-1.2.4-2.4.3-3.7V97c0-.1 0-.1.1-.2 0-.1 0-.1.1-.2s.1-.2.2-.3c0-.1.1-.2.1-.3.1-.4.2-.9.2-1.3V94c-.1-1.6.1-3.1.3-4.7.1-1.3.4-2.5.6-3.8-.5-1.1-.5-2.1-.3-3.1zm232.8 129.4c-.2.4-.4.6-.9.4 0-.1 0-.2-.1-.3-.1-.9-.2-1.7-.3-2.6-.1-.9-1.1-1.4-1-2.3 0-.1-.1-.2-.2-.2-.8-.3-1.3-.9-1.8-1.7 0 0-.1 0-.2-.1-.7.9-1.5 1.9-2.3 2.9-.2-.2-.4-.3-.6-.4-.8-.6-.9-.6-1.3.3-.2.3-.4.7-.7.7-.5.1-.6.5-.8.9-.3.7-.5 1.3-.8 2-.2.5-.4 1-.7 1.6-.2-1.1-.4-2-.5-2.9-.1-.4-.6-1-1-.9-.5.1-1.1.2-1.5.7-.7.7-1.2 1.6-1.5 2.5-.5 1.5-1 3.1-1.3 4.7-.4 1.8-.8 3.7-1.1 5.6-.3 1.6-.6 3.3-.9 4.9-.5 2.7-1 5.5-1.6 8.2-.3 1.5-.7 3.1-.9 4.6-.2 1.5-.3 3.1-.5 4.6-.2 1.9-.6 3.8-.8 5.7-.2 2.7-.3 5.3-.5 8v.5l-.6 6.3c-.2 2.9-.4 5.8-.9 8.7 0 .2-.1.3-.3.7-.6-1.2-1-2.1-1.5-3.1 0-.1-.1-.2-.2-.2-.8-1.4-1.6-2.8-2.4-4.3-.4-.7-.5-1.5-.9-2.1-.5-.8-1-1.7-1.2-2.6-.5-2.2-1.3-4.3-2.6-6.1-.1-.2-.3-.5-.3-.7.1-.6-.2-1.1-.6-1.6-.3-.5-.5-.9-.6-1.5-.1-.7-.2-1.4-.6-2-.3-.5-.5-1-.7-1.5-.1-.2-.2-.5-.3-.7-.9-1.7-1.6-3.4-2.5-5.1-.5-.9-1-1.9-1.5-2.9-.4-1-1.1-2-1.7-2.9-.5-.9-1.1-1.8-1.6-2.7-.5-.9-.9-1.8-1.4-2.7-.5-.9-.9-1.8-1.5-2.7-.4-.8-1-1.5-1.4-2.3-.6-1-1-2.1-1.7-3-.8-1.2-1.6-2.5-1.9-3.9-.1-.4-.5-.8-.9-1.1-.6-.5-1.2-.9-1.8-1.3-.6-.5-1.2-1-1.9-1.4-1-.7-1.9-.5-2.6.5-.3.4-.4.8-.6 1.2-.5 1-.6 2 .3 2.9-.1.2-.2.4-.2.6-.3 1.7-.5 3.4-1.3 5-.1.3-.3.6-.4.9-.7 2.1-1.2 4.3-1.4 6.6-.1 1.2-.2 2.4-.3 3.5-.1 1.1-.1 2.1-.2 3.2-.1 1.4-.2 2.9-.4 4.3-.1 1-.5 2.1-.6 3.1-.3 2.1-.5 4.3-.7 6.4-.1.7-.1 1.5-.1 2.2 0 .7-.1 1.4-.2 2.1-.1.9 0 1.7-.2 2.6-.2 1.1-.5 2.3-.7 3.4-.3 1.7-.5 3.5-.8 5.2-.4 2.7-.7 5.3-1.1 8-.6 3.7-.9 7.4-.8 11.2v9.8c0 .6.1 1.3.2 1.9l.3 3.9c0 .3.2.6.4 1 .6-.3.3-.7.3-1 .1-.3 0-.7.1-1 .1 0 .1 0 .2-.1 0 .1.1.2.1.2 0 .4-.1.8 0 1.2.1.6 0 1.3.4 1.8.3.3.4.7.6 1.1-.4.3-.7.5-.9.7.2 1.2.3 1.2 1.3 1 .1 0 .2-.1.3-.1.6.4-2 0-1.8-.4.9-.1-1.3.7-1.3 1.3v-.7l5.9 4.4-2.9-2.2-2.9-2.2c-.3-.3 0-.6 0-1.1h2.9c0 .4 1.6.7 1.6 1.1.1 0 .9-.1.9-.1-.1 0 .2.1.2.1h-5.5c0-.1 3.1-.1 3.2-.2.1.3 1.7.6 1.9.9h1c.1-.6.6-1.1.8-1.6.8 0 1.7.1 2.4.1.2 0 .4.1.2.3.1.1.3.2.3.2.4-.4.8 0 1 0 .7-.5-.2-1.5.8-1.9.2.2.4.4.6.5 1-.6.9-1.6 1-2.6-.4 0-.6.2-.6.5 0 .4-.2.4-.6.4.2-.3.4-.6.5-.9.2-1 .5-2.1.7-3.1 0-.2.1-.4 0-.7-.1-.5.2-1.1-.1-1.6-.1-.1.1-.3.2-.5s.1-.3.1-.5v-.8c.1-1 .2-2 .2-3s.2-2 .3-3c.1-2.2.4-4.3.6-6.5.3-2.1.6-4.3.9-6.4.1-.6.1-1.2.2-1.8.3-1.3.7-2.6.8-4 .1-1.4.5-2.8.7-4.1.1-.5.1-1 .3-1.5.2-.3.2-.7.5-1.1.2-.2 0-.8 0-1.3l.2-.2c.1.2.3.3.4.5.3.7.5 1.5.8 2.2.6 1.5 1.2 3 1.9 4.4.9 1.7 1.9 3.4 2.8 5.1.5.9.4.9-.1 1.8.2.2.4.4.5.6.4.5.9 1 1.3 1.6 1 1.7 1.8 3.5 2.8 5.2 1 1.7 2 3.3 3 4.9.5.8 1.1 1.5 1.5 2.4.6 1.2 1.1 2.4 1.7 3.6 1.1 2.2 2.2 4.4 3.8 6.4.8 1 1.3 2.2 2 3.4-.4 0-.7-.1-.9-.1 0 .3 0 .5-.1.8.4.2.9.4 1.3.7.2.1.5.3.7.5 1.3 1.4 2.9 2.5 4.6 3.2.9.4 1.9.8 3 .6h.4c1.7.1 3.7-.7 3.9-2.8.1-.9.6-1.3 1.5-1.4h.5c.4-.9.8-1.7 1-2.5.4-1.1.7-2.3.9-3.4.2-1 .4-2 .5-3 .2-1.5.3-2.9.5-4.4.1-1.1.4-2.2.5-3.3.2-1.6.4-3.2.4-4.8 0-2.2.6-4.2.8-6.4 0-.5.3-1 .4-1.5.1-.5.3-1.1.2-1.6-.1-1.1.1-2.2.4-3.2.5-1.4.7-2.8 1-4.2.1-.6.2-1.3.3-1.9l.9-4.2c.3-1.9.6-3.8.6-5.7v-.5c.3-1.5.7-3 1-4.5.2-1.2.4-2.5.6-3.8l.6-4.2c.3-2.7.5-5.3.8-8 .1-1.2.3-2.5.4-3.7.2-2.4.1-4.7.3-7.1.2-1.5.4-2.9.6-4.3.2-1.6.5-3.1.8-4.7.1-.8.2-1.6.3-2.5.2-1.5.5-2.9.7-4.4-.2-.1-.5 0-.7.4zm-67.9 88.8c0-.3-.1-.7-.1-1 0-.1 0-.2.1-.3.6.5.6.5 0 1.3zm.4-2.1c-.6-.6-.5-1.2-.4-1.7 0-.3.2-.5.7-.3 0 .5-.1 1.1-.3 2zm1.1-14.3c-.1 1.5-.3 3-.4 4.5-.1.9 0 1.7-.1 2.6-.1 1.2-.2 2.5-.4 3.7 0 .2-.2.3-.2.5-.4-.1-.4-.4-.3-.6.3-.5.3-1.1.2-1.7v-.2c.1-1.3.1-2.5.2-3.8.1-1.6.2-3.1.3-4.7 0-.7.1-1.4.2-2.1 0-.3.1-.7.2-1h.2c.1.9.2 1.9.1 2.8zm7.7 24.8c-.2-.1-.2-1.1 0-1.8.1.5.3.9.4 1.5-.1.1-.2.2-.4.3zm.7-3.4c-.3-.6-.4-1.2-.4-1.9.3-.1.5-.1.8-.2 0-.4-.2-.9-.1-1.3s0-.6-.3-.8c-.1 0-.1-.4-.1-.6.7.2.8.3.8.9 0 .4.1.7.1 1.1 0 1.1 0 2-.8 2.8zm.8-62.4v1.8c-.4.7-.3 1.5-.3 2.2 0 .6-.3 1.2-.7 1.6-.1.2-.2.4-.4.6 0-.2 0-.3-.1-.4 0-.3.1-.3.4-.2 0-.1-.1-.3-.1-.4v-.3c0-.1 0-.2.1-.3 0 0 .1-.1.2-.1.1-.1.2-.4.2-.6 0-1.3.4-2.6.6-4 0-.1.1-.3 0-.4-.4-1 .3-1.9.2-2.9 0-.1.1-.2.3-.2 0 .4-.2.8-.1 1.1.3.8-.2 1.6-.3 2.5zm.6-5.5c-.4-.7-.3-.9.3-1.5-.1.4-.2.9-.3 1.5zm1.4-13.8c-.1.4-2.8.8-2.9 1.2h-2.9v-2.7s3.3 0 3.3.4c0 .3 2.6.7 2.5 1.1zm6.3 34.7c0 .3 0 .5.1.8-.6-.3-.7-.5-.1-.8zm-.4-4.9c-.1 0-.1-.2-.1-.3.1 0 .3-.1.4-.1.1 0 .1.2.2.4-.2 0-.4.1-.5 0zm0-8.7c.4 0 .4 0 1.5.5-.2.4-.4.8-.5 1.2-1.1-.6-1.2-.7-1-1.7zm1.4 10.9c-.1-.4 0-.8 0-1.3.8.5.6 1.3.7 1.9-.6.2-.7-.3-.7-.6zm.6-18.5c-.4-.8-.3-1.6-.6-2.3.8.5 1 1.2.6 2.3zm3.8 11.7c-.4-1.1-.6-2.1-.3-3.4.7 1.3.8 2.3.3 3.4zm1.8 2.7c-.4-.2-.6-.6-.6-1 0-.2.1-.5.2-.7.2-.5.4-1.1-.2-1.5-.1-.1-.1-.4-.1-.5-.1-.7-.2-1.4-.3-2.2 1 .7 1.2 1.4.7 2.4.6-.1.8.3 1 .7.4 1 .8 2.1 1.1 3.2-.1-.1-.2-.2-.3-.4-.1.1-.3.2-.5.4-.1-.4-.1-.6-.1-.9-.5.1-.5.7-.9.5zm.5 1c0-.2.1-.4.1-.5 0 0 .2 0 .4-.1-.2.3-.3.5-.4.7l-.1-.1zm1.1 2.5c-.5-.5-.8-1.1-.9-1.5.3-.5.5-.9.7-1.3.2-.3.3.5.6.1.2.3.3.5.5.8.3.5.5 1 .8 1.5.1.1.1.2.1.3-.7.7-.8.9-.8 1.9-.8-.5-.6-1.4-1-1.8zm2.6 5.3c-.1-.7-.3-1.3-.4-2 0-.2 0 2.7.1 2.5v3.2h-6.1V258v6.2h6.1l-6.1-6v-.1s3.1-.1 3.1-.2c-.4-.1 1.2.4.9.6-.2-.3.4-.6.2-.9.5-.5.9-.8.7-1.6.1 0 .4-.1.4-.1.2.2.6.4.6.6.1.4-2.9.9-2.9 1.4h-3c0-.1 3.3-.1 3.5-.2.2.5 1.9 1 2 1.5.2.7 1.3 1 .9 1.4zm1 1.3c-.3-.7-.4-1.2-.1-1.7.3.5.5 1 .1 1.7zm-5.5 2.8v-1.3c3 .5 3 .9 0 1.3zm7.8 2.7c-.2-.4-.5-.8-.8-1.2-.1-.4-.2-.8 0-1.1l.1-.1c.1-.1.2-.2.3-.2.1.2.3.4.4.7-.2.3-.5.5-.7.7.2.1.5.1.7.3.3.3.3.5 0 .9zm.9 26.8c-.4-.3-.6-.6-.5-1.1.5.3.7.5.5 1.1zm.2.8v-.4h.2c0 .2.1.5.1.9-.2-.3-.3-.4-.3-.5zm4-17.2c0-.1-.4-.2-.6-.3.1-1.2.1-1.2.6-1.4v1.7zm2.3 3.4c.1-.4.1-.6.2-1 .4.5.3.8-.2 1zm-1.3 1.1c-.3-.5-.3-.5.2-1.2.5.5-.1.8-.2 1.2zm.4-3.6c.4.3.6.5 1 .9l-.8.8c-.1-.6-.2-1.1-.2-1.7zm1.3 7.7s-.4 0-.6.1c0-.3-.1-.5-.1-.8.2-.1.7-.2.7-.3v1zm.9.1c-.8-.7-.3-1.4-.4-1.9l.9-.6c.3.9-.7 1.5-.5 2.5zm6.2 18c-.5-.3-.4-.8-.7-1.2.4 0 .6 0 1-.1-.2.5-.2.8-.3 1.3zM156.6 159.7c0-.2 0-.3.1-.5.1-.9.4-1.9.4-2.8 0-1.8.6-3.6.8-5.4.1-.5.3-.6.7-.5.2 0 .4.1.6.2.1-.5.2-.9.3-1.4l.6-4.2c.2-1.3.6-2.5.7-3.7.2-1.6.6-3.2.9-4.8.3-1.4.7-2.8.9-4.2.3-1.5.4-3.1.6-4.7 0-.2 0-.5-.1-.7-.3-.4-.2-.7-.1-1.1.2-.9.4-1.7.6-2.6.2-1.3.4-2.6.7-3.9.1-.5.2-1.1.3-1.6.4 0 .9-.2 1.2-.1.6.1 1.2.3 1.7.4.5.1 1.1.2 1.6.2.7 0 1.4-.1 2.1.1 1.1.2 2.1.4 3.1-.2h.1c1.3-.2 2.6-.3 4-.5.2 1.9.1 3.8 0 5.7l-.3 3.6c0 .4 0 .8-.1 1.2-.2 1.7-.6 3.4-.5 5.2 0 1.2-.1 2.4-.2 3.6 0 .7-.1 1.5-.2 2.2l-.3 3.6c-.1 1.1-.2 2.2-.3 3.4-.1.7-.1 1.5-.2 2.2-.1.8-.1 1.7.2 2.6.6-.4 1.1-.8 1.6-1.1.4.1.3.4.3.7-.1.8-.1 1.6-.2 2.5-.1.7.3 1.8.9 1.7.6 0 1 .3 1.5.3.1-.3.2-.7.4-1 .6.4.3.9.4 1.4.2-.2.4-.4.6-.5.3-.3.8-.3.9-1 0-.4.5-.4.8-.1.1.1.3.3.3.2.5-.2.7.3 1 .4.2-.4-2.3-.7-2.1-1.1 0 0-2.7 0-2.7.1v1.1c0-.3 3-.4 3.2-.6.1.3 1.5.5 1.5.7 1.2-.9 2.7-2 3.3-3.3.3-.6 1.1-.6 1.6-.7h.7c0-.3.1-.5.1-.8 0-.4-.1-.9 0-1.2.6-1.3.4-2.8.7-4.1.2-1.1.3-2.1.4-3.2.1-.6.4-1.1.4-1.7.2-1.3.2-2.7.5-4 .3-1.6.7-3.2.8-4.8.1-1.4.4-2.8.6-4.3.3-2.2.5-4.4.8-6.6 0-.1.1-.3.1-.4.7-1 .7-2.2.9-3.4.2-1.2.3-2.3.5-3.5.1-.5.3-1 .4-1.5.2-1.1.3-2.3.5-3.4.2-.9.5-1.7.6-2.6.3-2.1.8-4.2 1.4-6.3.2-.8.2-1.6.2-2.4 0-.5-.4-1.1.3-1.5.1 0 0-.2 0-.4-.1-1.8.4-3.4.7-5.1.4-2.4.8-4.9 1.2-7.3.4-2.3.4-4.7 1-7 .1-.5.2-.9.3-1.4.1-.5.1-1 .2-1.4.1-.7.2-1.5.3-2.2.1-.7.2-1.4.4-2.2.4-1.9.8-3.8 1.2-5.6.2-1.2.3-2.4.6-3.5.1-.5.3-1 .4-1.5.2-1 .3-2.1.5-3.1.1-.5.1-1 .2-1.6.2-1.3.4-2.6.5-3.9.3-2.5.8-5.1.7-7.6 0-.3 0-.6.1-.9.2-.9.5-1.7.6-2.6.1-.9 0-1.8 0-2.8-.5-.1-1-.1-1.3-.5-.3-.3-.8-.3-1.2-.1-.3.2-.7.3-1.1.4-.2.5-.3 1.1-1.1 1.1-.1 0-.2.2-.2.3-.7 1.6-1.1 3.2-1.2 4.9-.1 1.3-.7 2.6-.9 3.9-.1-.4-.1-.7-.1-1l.3-3.9c.1-.6-.2-1.2-.6-1.6-.2-.2-.4-.3-.6-.4-.1 0-.2-.1-.3-.1-.1 0-.1.1-.2.2l-.2.2c-.1.1-.2.2-.4.2-.9.2-1.1.3-1.3 1.2-.2.6-.2 1.4-.6 1.8-.4-.5-.7-.9-1.1-1.3-.2-.2-.6-.3-.8-.2-.9.3-1.9.4-1.8 1.7v.1c-.4 1.2-.8 2.3-1.2 3.5-.1.2-.1.3-.1.5s-.1.3-.1.5-.1.5-.1.7c-.1.7-.3 1.4-.5 2-.4 1.4-.6 2.8-.8 4.2-.1.6-.2 1.1-.2 1.7-.1.6-.2 1.1-.3 1.7-.2 1-.4 1.9-.6 2.9s-.4 1.9-.6 2.9c-.1.5-.3.9-.4 1.4-.4 1.4-.9 2.7-1 4.1 0 .9-.2 1.8-.3 2.6-.1.6-.2 1.2-.3 1.7-.1.6-.3 1.2-.4 1.7-.1.3-.1.6-.2.9-.4 1.8-.9 3.6-1.3 5.4-.7 3.1-1.4 6.2-2.1 9.4-.2 1.1-.3 2.3-.6 3.4-.4 1.8-1 3.6-1.5 5.5-1.7.4-3.5.6-5.3.7h-3.2c-1.3 0-2.6.2-3.8-.3 0-.3.1-.6.1-.8 0-1.6 0-3.2.2-4.9.2-1.7.3-3.4.7-5 .2-1.1.6-2.2.2-3.2-.1-.2-.1-.4-.1-.6v-1.8c0-.6.1-1.3.2-1.9.1-.6.1-1.3.1-1.9 0-1.5.2-2.9.4-4.3.1-.7.2-1.4.2-2.1 0-.7 0-1.4.1-2.2.1-.7.2-1.4.4-2.1.1-.4.2-.9.2-1.3.1-.4.1-.9.2-1.3.2-1.5.3-2.9.6-4.4.2-1.2.5-2.3.6-3.5.2-1.6.2-3.2.3-4.8.1-2.1.2-4.2.4-6.2v-.4c-.8-.1-.9.8-1.5 1-.1-1.4-.3-2.8-.4-4.1-.1-.6-.3-1.2-.8-1.3-.1-.5-.2-.9-.2-1.2-.8-.4-1.3-.1-1.8.3-.2.1-.3.3-.4.4-.1.2-.2.3-.2.5 0 .1-.1.2-.1.3 0 .2-.1.4-.1.6v.3c-.8 0-1.1.6-1.3 1.2-.2.8-.5 1.6-.8 2.3-.8-.4-.8-.4-1.5.1-.1-.1-.3-.3-.3-.4.1-.3.3-.6.5-.9-.4-.5-.9-.3-1.3 0s-.8.5-1.2.8c-.7-.8-.1-1.9-.7-2.7-1 .3-1.4.9-1.6 1.7-.1.6-.1 1.1-.1 1.7-.1.7-.2 1.3-.2 2-.1.6-.2 1.2-.1 1.7.2.7.1 1.4-.2 2.1-.4.8-.6 1.7-.6 2.6 0 .4-.2.7-.2 1.1-.1.5-.2 1-.3 1.6-.1.5-.2 1-.2 1.6-.1.8-.1 1.6-.1 2.5 0 .8-.1 1.6-.1 2.5v1.6c0 .2 0 .4-.1.5-.3 2.4-.7 4.9-1.1 7.3l-.3 2.4c-.2 1.2-.4 2.3-.6 3.5-.1.4 0 .8-.5 1.1-.1.1-.2.3-.2.5-.1 1-.1 1.9-.2 2.9 0 .1-.1.4 0 .4.5.2.3.7.2.9-.3.6-.3 1.2-.4 1.9 0 .2-.1.3-.1.5-.2 1.1-.5 2.2-.6 3.3-.1 1.2-.3 2.3-.7 3.5-.1.2-.1.4-.1.7.1 1.6-.2 3.2-.5 4.8-.2 1.2-.6 2.3-.8 3.4-.4 2.5-.7 5-1 7.5-.1.5-.2 1-.2 1.5 0 1.5-.1 3-.6 4.4-.2.4-.2.9-.2 1.4-.2 1.5-.3 3-.6 4.5-.3 1.9-.7 3.8-.8 5.7-.2 2.6-.6 5.1-1 7.6-.3 1.7-.7 3.4-1 5.1-.3 1.8-.6 3.5-1 5.3-.4 1.6-.8 3.2-.9 4.9-.1.9-.2 1.7-.5 2.5s-.3 1.6 0 2.4c.5 1.5 1 2.9.5 4.6-.3 1-.3 2.1 0 3.2.4-.3.8-.4 1.1-.7.3-.3.3-.8.6-1.1.3-.3.8-.4.8-.9v3.3c.1-.2.1 2.9.2 2.9h1.4c.1 0 .2-2.9.1-2.6-.2 1.3.3.4 1.7.7.3-.3.5-1.5.7-1.6 0-.7-.1-1.8 0-2.3.2-1 .4-2.2.6-3.1.4-1.7.9-3.5 1.4-5.3l.1-.1c0 .1.1.2.1.3-.1 1-.2 1.9-.3 2.8-.3 2.5-.5 5-.8 7.4-.1.6 0 1.2.8 1.5.4-.4.7-.8.8-1.4 0-.3.1-.7.2-.9.3-.3.3-.7.4-1.1.2-1.5.4-2.9.6-4.4.1-.4 0-.8.6-1.2-.1.8-.1 1.6-.2 2.3 0 .9-.1 1.9 0 2.8 0 .5.1 1 .6 1.3.1-1.2.5-2.1.4-3.2zm23.5-60.1v.9c-4-.3-4-.5 0-.9zm-9.5-41.3c.1 0 .2.1.3.1-.1.4-.3.8-.4 1.3-.1-.6-.4-1.1.1-1.4zM157 88.6s.1 0 0 0c.1.2.1.3.1.5h-.2c0-.2.1-.3.1-.5zm72 83.6v-.3 3.4c-.2-.1-.4 3.9-.6 3.9-.1 0-.1-3.9-.2-3.9-.1-.1-.2-2.1-.2-2.3.9-.1 1.5-1.6 1.8-2.4-.6-.5-1.6-.4-2.1-1.2.2-.3.8-.6.4-1.1.2-.3.5-.6.7-.9.1-.2-.3-.6 0-.9.1-.1-.1-.6-.3-.8-.4-.4-.6-.6-.7-.9 0-.1-.1-.3-.2-.3-.4-.1-.8-.2-1.3-.4.4.7 1.5.4 1.2 1.5-.4-.1-.7-.2-1.1-.3-.4-.1-.7 3.5-1.1 3.4-.4 0-.8 3.7-1.1 3.7h-1c.6 0 1.3-3.5 1.9-3.3.6.2 1.3-1.6 1.8-1-.6 0-1-.9-1.5-.8.2.3.3-.1.4.2-.6-.1-1-.3-1.5-.5-.4-.1-.7-.2-1.1 0v3.1c0 .7.8-1 1.2-.4-.5.1-.8-.6-1.1-.6-.2-.3-.3-.9-.5-1.3-.2.3-.4.4-.7.7.6.4 1.3-.1 1.9.1-.1.4-.3.5-.8.4-.4 0-.8 0-1.3.3-.8.6-1.7 1.1-2.7.8-.5.3-.9.7-1.3.9-.4.2-.9.6-1.5 0 0 .7-.5.5-1 .6 0-.4-.1-.9-.1-1.5.6.2 1 .4 1.5.6.2-.4.1-.7-.3-.9.1-.7.9-.3 1.2-.8-.2-.1-.4-.1-.7-.3.7-.6 1.5-.7 2.4-.6.2-.3.4-.6.6-1-.1 0-.2-.1-.4-.1.4-.5-1-.5-.6.1.9 0-3.1-.2.9-.6 0 .1 1.1.1.9.1-.2 0 .4 0 .1-.1.2.1.8.1 1.1.1-.2 0-2.6 0-2.8-.1-.4-.1-3.3-.3-3.3-.5v7.1h4.8v-5.4 5.4h-.6.6-4.8v-7l2.4 3.5 2.4 3.5h-4.8v-6.9s2.4-.4 2.5-.4c.3-.1 1.7-.2 2-.3.3-.1 1.1-.4.9-.7-.2-.1-.1-.3-.3-.4-1.1.5-2.2.2-3.5.9.7-.1 1.2-.1 1.7-.2-.7.4-1.4.7-2.1.9-.6.2-1.2.3-1.8.5h-.2v-.1h-3.5s-3.5 0-3.5-.1c0 0 3.5 3.5 3.5 3.4l3.5 3.5-.1-3.5c-.2 0-.5 1.9-.7 1.9 0-.1-.1 1.6-.1 1.6h-6.1v-7.1h3.8l1.7 3.5 1.5 3.5v-3.5c.1 0 .1-1.8.2-1.8s.2-.9.4-.9c.1 0 .1-.5.2-.5s.2-.3.3-.3c.1 0 .2-.2.3-.2.1 0 .2-.1.3-.1.2-.1.3-.2.5-.2.3-.6 0-1-.2-1.3-.1-.2-.5-.3-.8-.2-.5 0-1 .1-1.5.2-3.2.5-6.3 1.3-9.4 2.2-1.8.6-3.4 1.5-5.3 1.5-.1 0-.1 0-.2.1-.4.6-.9.6-1.5.3-.1 0-.3 0-.4.1l-1.8.9c-.5.3-1 .5-1.5.8-1.3.7-2.8.7-4.1 1.2-2.2.8-4.5 1.4-6.8 2l-5.4 1.5c-1.7.5-3.3 1-5 1.4-2.3.6-4.5 1.1-6.8 1.7-.2.1-.6.2-.6.3-.1.6-.7.9-1 1.4-.1.2-.2.5-.3.7-.2 1.9-.4 3.8-.5 5.7-.1 1.3 0 2.6-.1 3.9-.1.7-.3 1.4-.4 2.2-.3 1.9-.5 3.7-.8 5.6-.1.7-.3 1.4-.4 2.1-.3 2.5-.6 5-.8 7.5-.1.6 0 1.2-.1 1.8-.3 2.2-.5 4.3-.4 6.5 0 .5-.1 1.1-.2 1.6s-.4.9 0 1.4c.1.1 0 .2 0 .4-.1.7-.1 1.4-.2 2.1-.1 1.4-.3 2.7-.4 4.1-.1 1-.1 2-.3 3.1l-.6 5.4c-.1 1.2-.2 2.5-.3 3.7l-.3 2.4c-.1 1-.3 2.1-.4 3.1-.1 1.7-.1 3.5-.3 5.2-.3 2.8-.8 5.6-1.3 8.4-.5 3.4-.8 6.7-1 10.1-.1 2.5-.1 4.9-.2 7.4 0 1.2-.1 2.4.1 3.6.1.8 0 1.6 0 2.4.1.8.3 1.6.1 2.5-.1.3.2.5.7.3 1.4-.6 2.9-.7 4.4-.7.6 0 1.1-.1 1.7-.2.6-.1 1.1-.1 1.6.3 2.1 1.4 4.5 1.4 6.8 1.3h.1c1.2-.3 2.4-.6 3.5-1.1 1.2-.5 2.3-1.3 3.5-1.9.4-.2.8-.5 1.4-.5 1.1 0 2.3-.2 3.4-.3 1.2 0 2.3-.7 3.5-.6.1 0 .2 0 .3-.1 1.4-.8 3-.4 4.4-.9 1-.3 2-.5 3-.8.6-.1 1.3-.2 1.9-.3.3.5.6.2 1 0 .8-.4 1.7-.6 2.6-.6.4 0 .7-.1.9-.3.4-.3.8-.6 1.3-.2.1.1.4 0 .6-.1 1-.5 1.8-1.3 3-1.7.6-.2.7-.4.6-1.1-.1-.3-.1-.6-.2-.8 1.3-.5 2.5-1 3.7-1.5.3-.1.4-.4.7-.7.2-.2-1.5-.5-1.3-.7.3-.2-4-.4-1-.6v-2.4c-3-.2 1.5-.7 1.6-.8.2-.5.7-.7.8-1 .1-.3.8-.6 1-.9 0 0 .2-.1.2-.2.3-.6 0-1-.1-1.5-.1-.6.1-.7.7-.8.1 0 .3-.1.3-.2.3-.3.6-.5.8-.8.3-.5 1-.8.5-1.7-1 0-2.1.1-3.1.3.2-.5.5-.9.6-1.3.2-.8.1-.9-.7-.7-1.8.4-3.5.9-5.3 1.4-3.6.9-7.3 1.9-10.9 2.8-1.3.3-2.6.7-3.9.9-1.3.1-2.5.7-3.9.7h-.1c-.4.6-1.2.3-1.7.6-.1.1-.3 0-.4 0 .1-.6-.3-.3-.5-.2-.6.1-1.2.8-1.9.4h-.1c-1.6.4-3.1.8-4.7 1.2-1.6.4-3.3.9-4.9 1.3h-.6c.1-.3.2-.7.3-.7.6-.2.5-.6.5-1s-.1-.9-.2-1.3c0-.3-.1-.7-.1-1 .1-.9.3-1.7.5-2.6.3-1.4.7-2.9 1-4.3.2-.7.3-1.5.4-2.3.1-.7.3-1.3.4-2 .2-1.4.3-2.7.5-4.1v-.7c-.2-1-.5-2-.6-2.9-.1-.3 0-.6 0-.9.2-.1.4-.2.6-.2 1.1-.2 2.1-.4 3.2-.5.9-.1 1.7-.3 2.6-.4.4 0 .8.1 1.2 0 .7-.1 1.3-.2 1.9-.4.6-.2 1.2-.1 1.8-.5.6-.4 1.5-.1 2.1-.7.1-.1.3 0 .4 0 .3.2.6.1 1 0 .9-.2 1.8-.1 2.6-.6.1 0 .2.1.3.1.8-.1 1.5-.1 2.2-.5.4-.3 1-.8 1.7-.4 0 0 .1-.1.2-.1.8-.2 1.6-.8 2.5-.7.2 0 .4-.1.7-.2 1.2-.4 2.5-.8 3.8-1.2.3-.8-.7-1-.9-1.6.3-.2.6-.5.9-.6.5-.1.6-.4.6-.8 0-.5.2-.9.7-1.2.5-.4 1.1-.4 1.5-.9 0 0 0-.1.1-.1-.1-.1-.2-.1-.4-.2.6-1.1 1.2-2.2 1.9-3.2.2-.4.3-.7.2-1-.3.1-.5.2-.8.3 0 0-.1-.1-.2-.1.1-.1.2-.3.3-.4-.4-.3-.9-.7-1.2-.9.2-.4.3-.7.4-1.1-.7 0-1.2 0-1.8-.1-.3 0-.7-.1-1-.3-.4-.4-.9-.5-1.4-.5-1.9.1-3.8.1-5.7.2-.8 0-1.5.2-2.3.2-.3 0-.6.1-.8-.1-.7-.5-1.5-.7-2.3-1.1-.6-.3-1.2-.4-1.9-.1-.3.2-.6.3-1 .4-2 .5-2 .4-3.8 1.9-.1.1-.4.3-.5.2-.4-.2-.6-.4-1 0-.2.2-.7.3-1 .4-.2.1-.3.1-.5.2-1.1.1-2.3 0-3.4.5h-.3c-.7-.4-1.1 0-1.6.6-.2-1.1-.5-2.1-.3-3.2.1-.7.2-1.3.2-2 0-.8-.1-1.6-.1-2.5 0-.3 0-.7.2-.9.4-.5.3-1.1.4-1.6.1-.5-.2-1.1.3-1.6.1-.1.1-.5.1-.7 0-.7-.1-1.3-.1-2 .1-1.2.6-2.5.4-3.7 0-.3.2-.6.2-.8-.1-.4-.1-.7.3-.9-.1-.3-.4-.5-.4-.7 0-1 0-2.1.1-3.1.2-1.8.2-3.6.3-5.4.1-1.7.3-3.3.4-5 0-.2.1-.3.1-.5.1-.3.3-.5.6-.6 1.7-1 3.6-1.1 5.3-1.8h.2c.7-.2 1.4-.2 1.9-.5.7-.4 1.5-.5 2.3-.6.4-.1.9.1 1.1-.5.4.2.6-.8 1-.1.1 0 .2-.1.2-.1.1-.2.3-.1.5 0 1 .3 1.9.1 2.6-.7.5-.5 1-1 1.8-1-.2.4-.5.7-.8 1.3 1.2-.3 2.1-.9 2.8-1.6.1.2.3.4.4.7.3-.4.5-.8.8-1.2.1.2.1.3.2.4.4-.2.9-.4 1.4-.7-.1.6-.2 1-.3 1.4.1 0 .1.1.2.1.6-.8 1.1-1.6 1.7-2.4.1.2.2.3.2.5.3-.2.6-.4.9-.5l.3.3c.1.1.2.2.4.3-.1.2-.2.4-.3.5.3-.1.5-.2.6-.4.1-.2-.1-.4-.2-.7.4.2.8.4 1.1.6 0-1.4 0-1.4 1.1-1.4-.1.6-.2 1.1-.3 1.7l.1.1c.6-.7 1.1-1.3 1.8-2h.4c.1-.6.6-.2.8-.5.1.4.1.8.3 1.3.3-.4.5-.5.6-.7l-.6-.6c.3-.2.5-.4.8-.5.3-.1.6 0 .9-.1 0 .3.1.6.1.8.5-.8 1.2-1.3 2.1-1.4.9-.2 1.8-.3 2.6-1 .2-.1.6 0 .8-.1.2-.1.4-.4.5-.7.1-.2-.1-.5-.1-.7l1.3-1.3c-.3 1.1-.8 2.1-.4 3.3.4-.4.8-.7 1.1-1 0 .1.1.2.2.3.2-.5.5-1.1.7-1.6 0-.1.1-.2.1-.3 0-.1 0-.2.1-.3-.1 0-.2.1-.3.2-.1-.2-.2-.4-.2-.6.3-.1.5-.2.8-.4-.1.4-.2.6-.3.8.1 0 .2 0 .3-.1-.1.7-.2 1.3-.4 2.1.4-.4.6-.6.9-.8.1-.1.2-.1.2-.1.4.5.6.2.8-.2l.3-.3c.2.1.3.2.4.2.5-.6 1.3-1 1.3-1.9.7-.3 1.4-.6 2-.9.1 0 .2-.2.2-.3.3-.7 1.3-.9 1.5-1.7 0-.1.3-.2.4-.2.2-.1.4-.2.5-.2.4-.9.6-1 .6-1.2zm.3-2.6c0 .1 0 .1.1.2-.2.1-.5.1-.7.2v-.1c.1-.1.3-.2.6-.3zm-8.8-4.6c.2.3.2.6-.1.7-.5.1-.3-.3-.5-.6.2 0 .4-.1.6-.1zm-54.6 52.5v.6h-.2v-.6h.2zm-2.9-5.6c.4 1.3.9 2.4 1.3 3.6-.2.1-.2.1-.3.1h-.9c-.3-1.2-.1-2.4-.1-3.7zm-1.6 34.4c-.1 1.3-.3 2.7-.5 4-.2 1.6-.5 3.1-.7 4.7-.2 1.5-.3 3-.5 4.5-.3 3.1-.7 6.1-.9 9.2-.1 1.4.2 2.7.3 4 .8.5 1.4.8 2.2 1.3-.7.2-1.1.4-1.6.5-.4.1-.6.4-.6.7 0 .6-.3.8-.8 1.1-.1.1-.2.2-.2.3.2.6.8.6 1.2.9-.6 1.4.5 2 1.4 2.8-.9.4-1.8.4-2.7.5 0-.2-.1-.4-.1-.7 0-2.5-.1-4.9.3-7.4v-.3c-.4-.9-.1-1.9-.1-2.9 0-1.2.2-2.4.2-3.5 0-.3.1-.6.1-.9-.1-1.3.1-2.5.3-3.8.3-1.9.4-3.9.7-5.9.1-1.1.3-2.1.4-3.2.1-.8.1-1.5.3-2.3.1-.4.2-.7.3-1.1.1-.7.3-1.5.2-2.2-.1-1.1 0-2.1 1-2.9-.2.8-.1 1.7-.2 2.6zm-.2-7.7c-.2-.7 0-1.3 0-1.9 0-.3.3-.5.5-.8.3.8.1 1.5-.5 2.7zm1.2-3.8c-.5.2-.6-.2-.7-.5-.1-.4-.2-.8.3-1.1.5.5.5 1.1.4 1.6zm0-4.9c-.8-.7-.1-1.4-.3-2.1.5.5.6 1.1.6 1.7.1.1-.1.2-.3.4zm.1-4.1v-1.3h.2c0 .3.3.7-.2 1.3zm1.1-2.9h-.2c-.1.1 0 .5-.3.4-.1-.1-.2-.4-.2-.6 0-.2.1-.4.1-.9.1.4.2.6.3.8.6-.1.4-.5.3-1 .7.6.6 1 0 1.3zm.4-4.4c-.2-.3-.3-.6-.4-.8.6.3.6.3.4.8zm0-2.5h.3v1c-.9-.3.2-.7-.3-1zm.3 12.1c.2-.2.3-.3.5-.4.1.4.1.4-.5.4zm1-4.9c.1.2.1.3.2.5 0 0-.1 0-.1.1-.1-.2-.2-.3-.2-.5 0-.1.1-.1.1-.1zm1.1 6.5c-.2.2-.2.6-.3 1-.7-.6-.5-1.4-.8-2-.2-.4.2-.9.8-1.3l.2.2c1 1 1 .9.1 2.1zm2.4.5c-.2 0-.4 0-.7.1.2-1.5.2-1.6.8-1.8.1.5.2 1.1.4 1.7h-.5zm.5-2.4c-.1 0-.1-.1-.2-.1.1-.1.2-.3.3-.4l.1.1c0 .1-.1.2-.2.4zm.2-40.5c-.1.5-.1 1-.2 1.5-.5-.6.1-1 .2-1.5zm-4.4-.4v-.9.9zm6.3 27.5v-.9c.5.3.3.6 0 .9zm25.8 10.3c.3-.1.5-.3.8-.4.1-.1.3-.1.4 0 .4.3.7.2 1-.1.1-.1.3.1.6.1-.3.3-.3.5-.1.9-.6-.1-1 .1-1.4.6-.1.1-.5 0-.8.1-.2.2-.4.4-.7.6-.1 0-.1 0-.2-.1.1-.7-.1-1.3-.5-1.8.4-.3.5.2.9.1zm-1.3 1.4c.1.1.2.2.2.3 0 0-.1.1-.2.3-.1-.2-.1-.3-.1-.4 0-.1.1-.2.1-.2zm-1.5.7c-.2-.1-.4-.2-.7-.4.6 0 .6 0 .7.4zm-1.6-.6c-.2-.1-.3-.2-.6-.3.5-.2.7-.2.6.3zm-3.6 9h-1.4 1.4zm-6.5-6.9h.3c-.1.2-.1.4-.2.6h-.2c.1-.2.1-.4.1-.6zm-1.6.5h.1l.1.1v.1c-.1.1-.1.1-.2.3-.1-.1-.2-.2-.2-.3 0-.1.1-.2.2-.2zm-6.9-28.1c.3.5 0 .6-.3.7 0-.2.1-.4.3-.7zm-1.7 7.8c.7 1.4.7 1.5-.1 1.7 0-.5.1-1 .1-1.7zm-.2 2.6c.3.5.7.9.4 1.5-.7-.1-.7-.2-.4-1.5zm-.3 17c.2 0 .4 0 .7.1-.5.5-.6.2-.7-.1zm.6-2.4c-.3 0-.4-.2-.4-.4.1-.4.3-.8.5-1.2.1 0 .1.1.2.1 0 .4.1.8.1 1.2 0 .1-.2.3-.4.3zm.9-10.2c-.3.4-.4.8-.5 1.2-.1.4-3 .7-3.1 1h-2.8v-.9c0-.2 2-.6 2.3-.8.7-.5 1.9-1.1 1.9-1.7 0-.2.8-.5.9-.7h.6l.1.1.1.1c.1-.2-2.9-.4-2.9-.6.2-.4-3.1-.8-2.1-.9h3.1c.5 1.2 3.1 2.2 2.4 3.2zm1.2-11.3c-.8-.6-.8-.6-.6-1.3.9.4.9.4.6 1.3zm.7-4.1c.2-.5.3-.9.4-1.4.3 1 .3 1-.4 1.4zm-.4-3.3c.2-.3.4-.5.5-.8-.3-.2-.5-.4-.1-.7.2-.1.5-.2.8-.4.3 1.1-.3 1.5-1.2 1.9zm.8-7.5c-.5-.5-.5-.9-.4-1.5.1-.4.4-.5.9-.5-.2.7-.4 1.3-.5 2zm.8 3.5c-.2-.5-.2-.5.1-1-.1.3-.1.6-.1 1zm.1-6c-.1.1-.5.1-.6 0-.4-.3 0-.6.2-1 .3 0 .5 0 .8.1-.1.4-.2.7-.4.9zm-2.7 2.3c-.2-1.5-.9-2.2-.9-3.2v1.3s2.8 0 2.9.1c.3 0 1.9-.3 2.2-.3.1 0 .8 0 .9.1.1.1.4.1.4.2.1.1-1.1.3-1 .5-1.2.5-3.3 1.1-4.5 1.3zm6.7-1.6l-.1-.1c.1-.2.3-.5.3-.5.6.3 1.1-.9 1.7-.1-.7.2-1.3.5-1.9.7zm20.4-8.3h.7-.7zm13.6-11.5c-.4.1-.7.2-1 .3.2-.8.3-.9 1-.3zm-.4.5c.7-.2 1.4-.5 2.3-.8-.4-.1-.6-.2-1-.2 1.2-.9 2.5-.7 3.7-1 0 .1 0 .1.1.2-.2.1-.5.2-.8.2-.3.1-.5.1-.9.2.2.5.8-.2.9.5-.8.2-1.3.8-2.1.9-.7 0-1.4.6-2.2 0zm173.6 15.1c-.3-.1-.6-.3-.7-.5-.3-.8-.6-1.7-.9-2.6.1-.2.3-.5.5-.7.5-.5.5-.6 0-1-.7-.5-.7-1.3-.9-2-.2-.5.1-1.2.2-1.9 0-.3 0-.6-.4-.8-.2-.1-.3-.1-.4-.2-.6.3-1.3.4-1.9.3-.5-.1-1.1-.4-1.6-.3-1.5.2-3 .2-4.5 0-.5-.1-.6-.2-.6-.7 1.3-.1 2.5-.4 3.7-1-.8-.1-1.7-.1-2.5-.1-.1 0-.3.2-.4.2-.3-.4-.8 0-.9 0-.4-.3-.7-.1-1.1-.1-.4 0-.7.2-1.1.4-.1-.3-.3-.5-.8-.4h-1.4c.3.2.4 3.7.5 3.8v3.6h.7c.1 0-5.2-7.4-5.2-7.2v1s2.4 0 2.3.2c-.3.6.7.3.3.4-.3 0 0-.1-.3 0-.4.1-.5.2-.9.1-.1 0-.1-.1-.2-.1v-.3c-.1-.5 0-.6.6-.8.2-.1.4-.3.6-.4-.1-.1-.2-.1-.4-.3.6-.3 1.1-.2 1.7-.1-.2.2-.4.3-.5.4.2.1.5.1.5 0 .4-.9 1.2-.4 1.8-.6.3.4.7.1 1 0 .3-.1.6 0 1 0 .3 0 .7.1 1 .1l5.4-.3h.1c-.1 0-.1 0-.1-.1-.1 0-.2-.1-.3-.1.3-.1.5-.1.7-.2-1-.1-1.9-.2-2.9-.3-.7 0-1.4-.2-2.1-.3-1-.1-2 0-3 .1-.7 0-1.4.1-2.1 0-.8-.1-1.6-.1-2.4 0-.8.1-1.6-.3-2.3.3h-.2c-.4-.6-.7.2-1 .1-.4.7-.8.3-1.2 0-.3-.3-.6-.2-.8 0-.2.2-.3.4-.5.6-.1.1-.3.2-.4.2-.2 0-.3-.2-.4-.3-.1 0-.2.3-.3.3-.5 0-.9-.1-1.4-.2h-.6c-.1 0-.1-.4-.2-.3-.4 0-.9 0-1.2.2-.6.4-1.1.6-1.7 0h-.2c-.5.2-1.1-.1-1.6.3-.2.1-.4.2-.6.2h-3.3c-.4 0-.9-.1-1.3.1-1 .4-2.1.2-3.2.3-1.6.2-3.3.2-5 .3-.8 0-1.6.3-2.3.3-.8 0-1.6.2-2.4.1-1.6-.1-3.2.2-4.8.3-1.7.2-3.5.4-5.2.5-1.7.2-3.5.2-5.2.4-2.2.3-4.4.7-6.5 1-2 .3-4.1.4-6.1.8-1.2.2-2.5-.2-3.6.7-.8 0-1.2.5-1.7 1-.6.6-.6.6-.2 1.3.7 1.1 1.3 2.3 2.5 2.9v.2c-.5.4-1 .7-1.5 1.1.2.2.4.3.5.4.1.7.6 1.1 1.1 1.6.6.6 1.1 1.2 2 1.3 1 .2 1.7.8 2.1 1.7.8 1.7 2.2 2.9 4.1 3.3.4.1.9.2 1.2.5 1.4 1.2 3 1.2 4.7.9.8-.1 1.7-.3 2.5-.2 1.2.1 2.4-.2 3.6-.6.3-.1.6-.1.8-.2 1.4-.3 2.8-.4 4.1-.8 1.1-.4 2.3-.3 3.4-.5.5-.1 1-.1 1.5-.3.9-.4 1.8-.3 2.8-.2v.7c0 1-.1 1.9 0 2.9s.1 2-.2 3c-.1.3-.4.6-.4 1 0 1.1-.7 2-.6 3.2.1.9-.4 1.9-.7 2.8-.3 1-.3 2.1-.8 3v.2c-.1.8-.1 1.6-.3 2.3-.2.7-.4 1.5-.1 2.4.1.3-.1.6-.2.9-.3.8-.6 1.7-.6 2.6 0 .3-.1.6-.1.9 0 .4-.1.9-.1 1.3v1c-.1.4-.2.9-.3 1.3 0 .3.2.6.1.8-.3 1-.7 2-.5 3.2 0 .1 0 .2-.1.4-.1.4-.3.7-.5 1.2-.1 0-.4-.1-.7-.1-.2.4 0 .8.3 1 .4.3.4.6.1 1-.2.1-.4.2-.4.3 0 .2 0 .3-.3.4-.2.1-.3.4-.4.5.2.2.5.2.5.4.3.9.7 1.7.2 2.6-.2.4-.2.8 0 1.1.5.7.2 1.1-.3 1.5.5.5.2 1.1 0 1.5-.2.4-.2.6-.1 1.1.2.8.1 1.7-.8 2.3.1-.3.1-.6.2-1-.7.6-.6 1.4-.8 2.1.2-.2.3-.4.6-.7v1.1c0 .3-.2.7-.2 1-.1.7-.2 1.3-.3 2-.2 1.4-.5 2.9-.8 4.3-.1.8-.1 1.6-.1 2.4 0 .9-.2 1.8-.3 2.7 0 .1 0 .2-.1.3-.5 1.1-.5 2.3-.7 3.5-.1.4-.3.8-.4 1.2-.1.8-.2 1.5-.1 2.3 0 .4.3.9.5 1.3h.2c.2-.3.5-.6.6-.9.2-.8.2-1.6.4-2.5.1-.6.5-1.1.9-1.6.2-.2.4-.5.5-.8.2-.7.4-1.5.7-2.3 0-.1.2-.3.3-.4.3-.2.6-.4 1.1-.8-.3 1.2-.5 2.2-.8 3.2-.1.2-.1.5-.3.7-.2.2-.6.3-.8.6-.3.3.2.5.1.9-.2.9-.9 1.3-1.4 2 .5.3.4.7.1 1.2-.5.8-1 1.6-1.4 2.4-.3.6-.8 1.3-.8 2 0 .9-.4 1.6-.6 2.2 0 .8.1 1.3 0 1.9-.1 1.3-.4 2.5-.5 3.8 0 .7-.1 1.3-.9 1.7.9.4.8.9.5 1.4-.4.7-.4 4.6-1 5.1-.2.2-.2 3.9-.3 3.9h1.7s-.2-2.2-.1-2c.2.3.6-1.1 1-.9-.4-.6 0-1.8.3-2 .5-.5.5-1.3.4-1.9-.1-.6-.2-1.5.1-2.1.2-.4.4-.6.8-.3.1.1.2.1.2.2.5-.4 1.3-.2 1.5-1.3.2.7.4 1.1.5 1.6 0 .1 0 .3.1.4.6.3.6.8.6 1.4 0 .2.1.3.1.6.4-.2.4-.4.5-.7.1-.5.3-1.1.6-1.6.1-.1.3-.3.4-.3.7.3.7-.2.8-.7 0-.3.1-.6.2-.9.5.4.5.4.4.8.3.3.5-.4.9 0 .2.2.7.1.9.2.2-.3.3-.5.4-.7.1-.1.3-.2.3-.2-.1-.7.6-1 .9-1.4.8-1.2 2.3-2 2.3-3.7 0-.1.1-.2.2-.3.1-.2.3-.4.3-.6.1-.5.2-.9.3-1.4.8-.3.9-.5.8-1.7-.3-.2-.7-.4-1-.6 0-.7.7 3.6.8 3.2-.1-.2-.2 3-.3 3h.6s-.1-4.2 0-4.5c.1-.3.3-2.3.4-2.6.1-.2 0-1.4-.2-1.5-.1-.2-.4-.7-.4-.7-.1-.4-.1-.9-.1-1.2 0-.3 0-.8.2-1 .3-.2.5-.3.2-.6 0-.1.2-.4.3-.5.4.1.6.2.9.3 0-.2 0-.3.1-.5v-.5c.8-.3.8-.3.4-1.2-.2.7-.9 1.2-2 1.4.1-.2.3-.4.3-.5-.4-.6 0-1.1.3-1.4-.2-.3-.4-.6-.5-.9.5-.4.5-.8.3-1.4 1 .1.5-1.4 1.5-1.3.1.3.2.6.3 1.1.4-1 .5-1.8.1-2.5.1-.3-2-.6-2.1-.8 0-.1-2.4-.2-2.4-.3 0-.6 2.5-1.2 2.7-1.8h2s.1 0 0 0c-.1.8-.7 1.4-.5 2.3 0 .1-1.9.3-2 .5-.2-.2-2.2-.3-2.2-.4v1c0-.1 2-.3 2.3-.5 0 .5 1.3.8 1 1.1-.5 0-.5.1-1 .1.2-.3 1-.6.4-1-.2.1-.4 2.9-.6 3 .2-1.1.9 1.6 1.2-.4h.9s.1-3.9.1-4.5c-.4 0-.7-1.4-1.2-1.4.3-.9.3-2.4 1.3-2.8.3-.1.4-.8.2-1.2-.4-.6-.3-.9.4-1.2.2-.1.4-.2.5-.3.1-.2.3-.6.2-.6-.5-.4-.1-.8 0-1.2.1-.3.4-.6.1-1 0-.1-.1-.1-.2-.1-.1.3-.1.6-.2.8-.7-.3-.8-.5-.7-.9.1-.5.4-.6 1.2-.6-.2-.7 0-1.4.2-2 .2-.4.4-.9.5-1.3.1-.3.3-.7.4-1-.6-.8-.6-1 0-1.8.1-.1.1-.2.1-.3 0-.6.1-1.1.1-1.7 0-.2.2-.5.2-.7-.1-.5.1-.8.4-1.1.1-.1.1-.2.1-.3-.1-.2-2.9-.3-3.1-.5.4-1-4.1-1.1-1.1-.9v-2.5c-3 .2 2.4 1.3 1.7 1.8 0-.3 1.3-.7 1.4-.7.3-.3 1-.6 1-.9.1-.5.6-1 .8-1.5l.2 3.8.3 3.8-2.8-3.9-2.5-4c0 .5 2.9.2 3.1.3.1 0 1.5.1 1.5.1-.1-.3.5-.4.5-.4-.6-.2-.4-.4.2-.8.1-.1.3-.3.4-.5.2-.8.4-1.6.6-2.3.2-.8.2-1.7.3-2.6-.2.1-.3.1-.7.2.1-.5.2-.8.6-1 .2-.1.4-.4.4-.6.5-2.2.7-4.5 1.3-6.7.5-1.8.8-3.8 1.2-5.6.1-.3 0-.6.1-.9-.2-.1-.4-.1-.5-.1.1-.5.3-1 .5-1.6.2-.1.4-.2.5-.3.2-.6.4-1.1.5-1.7.1-.5.2-1.1-.1-1.6-.2.1-.4.2-.5.3.1-1.8 1.1-3.4 1.4-5.2-.2.1-.3.1-.5.2.1-.4.1-.7.2-1 .2-.7.5-1.4.7-2.2.1-.5.1-.9.1-1.5.5 0 1.1-.1 1.6-.1 1.3-.1 2.7 0 4-.2.8-.1 1.6.1 2.4.1.3 0 .5 0 .8-.1.9-.1 1.7-.2 2.6-.3.8-.1 1.6-.2 2.3-.6.5-.3 1-.7 1.5-.6 1.2.1 2.4-.1 3.6 0 .2 0 .5 0 .7.1 1 .4 1.2.4 1.9-.5.4.7.9-.3 1.3.1.9-.2 1.6-.7 2.1-1.5 3.1-.2 6.1.5 9.1.6-1.2-1-2.4-1.2-3.5-1.4zm-50 57.4c-.2 1-.3 1.9-.6 2.9s-.6 1.9-1 2.9c-.1.3-.4.5-.7.8.3.5.2 1.1-.1 1.7-.3.5-.7.9-1.2 1.4-.1-.4-.1-.6-.2-.9-.2.5-.2.8-.4 1.2-.3-.6-.1-1.1 0-1.6.1-.3.4-.6.6-1 0-.1.2-.2.1-.2-.3-.7.4-.7.7-1-.2-.5-.3-.8.2-1.2.4-.3.6-.7.6-1.3 0-.4.2-.7.5-1 .3-.3.8-.7.5-1.4l-.9.3c0-.4-.1-.7.2-1 .5-.5.7-1.1.9-1.7 0-.1.2-.1.4-.3.1.6-.3 1.1.3 1.4.1-.2.1-.1.1 0zm.6 7.3c-.1 0-.1 0-.2-.1.1-.2.1-.4.2-.5h.1c0 .2-.1.4-.1.6zm6.3-46.7h.2c0 .2.1.4.1.7-.2 0-.3.1-.5.1 0-.3.1-.5.2-.8zm-.1 1.4c.1.6.1.6-.6 1.1.3-.4.4-.7.6-1.1zm-4.1 24.2c.1 0 .2.1.2.1-.1.4-.2.9-.4 1.3-.1 0-.1 0-.2-.1.1-.4 0-.9.4-1.3zm-.4 3.5c.4.8.2 1.1-.7 1.2.2-.5.5-.9.7-1.2zm-.5 13.3c-.1.2-.4.2-.5.3-.1-.2-.3-.5-.3-.6.1-.3.4-.6.6-.9.6.4.5.8.2 1.2zm.6-4.8c-.1.3 0 .6-.1.9-.2 0-.5.1-.8.1.1-.4.3-.8.3-1.2.1-.7-.1-1.5 1.1-1.5-.1.6-.3 1.1-.5 1.7zm-.1-2.1c.1-.5.1-.9.1-1.2h.2l.3.9-.6.3zm1.4-12.2v-.6h.2c0 .2 0 .4.1.6h-.3zm2.1-8.3c0 .3 0 .6-.3.9-.1.1-.2.5-.1.7.2.9-.1 1.6-.4 2.4-.2.4-.5.6-1 .4v-.8c.3-.5.6-.9.9-1.3.2-.2.2-.4 0-.6-.1-.1-.1-.3-.1-.3.6-.5.2-1.3.5-1.9.2-.3.4-.6.6-1-.1.6-.1 1.1-.1 1.5zm-.7-3.5c0-.6.3-.7.6-.6.1.6-.4.4-.6.6zm2.1-6.4c-.3.7-.2 1.5-.2 2.3 0 .2.1.3 0 .5-.3.6-.5 1.2-.6 1.9 0 .3-.3.5-.5.8-.5-.4-.9-.8-1.2-1.1-.3-.2.5-.2 0-.5-.1 0 0-.3 0-.4.5-.7.7-1.4.8-2.2 0-.4.2-.8.4-1.2 0-.1.2-.3.2-.4 0-.5.1-.8.5-.9-.1-.4-.1-.6-.2-1.1.3.2.6.3.6.4.1.6.5 1.1.2 1.9zm.6-10.8c-.1 0-.2-.1-.2-.1.1-.3.3-.6.4-.9.1 0 .1.1.2.1-.2.3-.3.6-.4.9zm1.4 44.1c.2.1.4.2.4.3.1.4.1.7 0 1.1-.1.4-.5.5-1.1.3.2-.5.4-1.1.7-1.7zm-.1-49.2c-.4-.8-.3-1.1.5-1.9-.2.7-.1 1.3-.5 1.9zm21.1-19c-.1.4.2.8-.4.8-.1 0-.1-.1-.1-.2-.3-.5 0-.5.5-.6zm-1.5.1c-.2.4-.4.3-.7.2.2-.1.5-.2.7-.2zm.6 2.2c-.5-.2-.6.4-1 .7-.3-1 .6-1.5.6-2.4.5.4.5.4 1.6.4v.6c0 .2.2.3.4.5-.6.1-1.1.4-1.6.2zm2.3-.4c0-.1-.1-.2-.1-.3 0 .1 0 .2.1.3.1.1.3.1.4.1-.2 0-.3-.1-.4-.1zm5.4-1c0 .4.1.6.1.9-.7-.2-.7-.2-.1-.9z" fill="#FFF"/></svg>