<?xml version="1.0" encoding="utf-8"?>
<!-- Generator: Adobe Illustrator 18.0.0, SVG Export Plug-In . SVG Version: 6.00 Build 0)  -->
<!DOCTYPE svg PUBLIC "-//W3C//DTD SVG 1.1//EN" "http://www.w3.org/Graphics/SVG/1.1/DTD/svg11.dtd">
<svg version="1.1" id="Layer_1" xmlns="http://www.w3.org/2000/svg" xmlns:xlink="http://www.w3.org/1999/xlink" x="0px" y="0px"
	 viewBox="0 0 400.7 339.7" enable-background="new 0 0 400.7 339.7" xml:space="preserve">
<g>
	<path fill="#FFFFFF" d="M141,264.5c-0.2-1.2-0.6-2.4-0.9-3.6c-0.2-0.9-0.5-1.7-0.9-2.5c-0.5-0.9-1.1-1.7-1.7-2.5
		c-1.2-1.6-2.6-2.9-4.3-4c-1.9-1.2-4-2.3-5.9-3.4c-0.7-0.4-1.4-0.9-2.3-1c-0.2,0-0.4-0.2-0.6-0.3c-0.1-0.5,0.2-0.7,0.4-0.9
		c0.9-0.7,1.8-1.3,2.7-2c0.2-0.1,0.4-0.2,0.6-0.2c0.6,0,1.1-0.3,1.5-0.7c1-1,2-2,2.9-3.1c1.2-1.5,2.4-2.9,3.1-4.7
		c0.5-1.4,1.5-2.5,1.9-3.9c0.5-1.4,1.1-2.8,1.6-4.2c0-0.1,0.1-0.3,0.1-0.4c-0.3-1.1,0.4-2.1,0.5-3.1c0.2-1.8,0.6-3.6,0.6-5.5
		c0-0.7,0.1-1.3-0.3-1.7c0.2-0.9,0.4-1.6,0.5-2.3c0.1-1,0-2.1,0-3.1c-0.1-0.8-0.1-1.6-0.4-2.4c-0.7-1.8-1.4-3.6-2.3-5.3
		c-1-1.9-2.2-3.7-3.7-5.2c-1.8-1.9-3.7-3.5-5.8-5c-0.9-0.6-1.6-1.4-2.5-1.9c-1.3-0.8-2.6-1.4-3.9-2c-2.6-1.2-5.3-2.2-8.2-2.5
		c-2-0.2-4.1-0.5-6.1-0.3c-2.8,0.3-5.4,0.9-8.1,1.7c-3.2,0.9-6,2.6-8.6,4.6c-1.8,1.4-3.8,2.6-4.8,5c0.8-0.5,1.6-1,2.4-1.5
		c0.1,1.1,0,1.4-0.8,1.6c-0.5,0.1-0.7,0.4-0.8,0.8c-0.9-0.3-1-0.3-1.5,0.4c-0.2,0.3-0.4,0.7-0.5,1.1c-0.5,1.7-0.3,3.4-0.2,5.1
		c0,0.2,0.1,0.4,0.1,0.7c-0.3,2.7-0.7,5.4-1,8.1c-0.2,1.8-0.4,3.6-0.5,5.5c-0.2,2-0.3,4-0.5,6c-0.4,3.3-0.8,6.7-1.2,10
		c-0.2,1.7-0.3,3.4-0.6,5.1c-0.5,2.9-0.7,5.8-0.9,8.7c-0.1,1.8-0.3,3.5-0.5,5.3c-0.2,1.6-0.3,3.2-0.5,4.9c-0.2,2.2-0.7,4.3-0.7,6.5
		c0,0.5,0,1.1,0,1.6c-0.3,2.1-0.6,4.2-0.8,6.4c-0.2,1.6-0.4,3.2-0.6,4.9c-0.1,0.4,0,0.8,0,1.2c0,0.6,0,1.2-0.1,1.7
		c-0.2,1.7-0.3,3.4,0,5c0.1,0.8,0.2,1.5,0.2,2.3c0,1.8,0,3.6,0,5.4c0,1.1,0,2.1,0.1,3.2c0,0.5-0.1,1.1,0.6,1.4
		c0.1,0,0.2,0.2,0.2,0.3c0,0.6,0.3,1.2,0,1.9c-0.1,0.3-0.1,0.7,0.1,0.9c0.4,0.6,0.4,1.3,0.3,2c-0.1,0.5,0,1.1,0.3,1.4
		c0.2,0,0.5-0.1,0.6,0c0.5,0.6,1.3,0.4,2,0.5c0.1,0,0.4-0.1,0.4-0.1c0-0.5,0.5-0.3,0.6-0.3c0.6,0.4,1.1,0.1,1.6-0.1
		c0.6-0.2,1.1-0.5,1.5,0.3c0.1-0.1,0.3-0.2,0.3-0.2c0-0.3,0.2-0.4,0.4-0.7c0.3-0.3,1-0.3,1-1c0-0.2,0.4-0.3,0.6,0
		c0.2,0.2,0.3,0.5,0.4,0.8c-0.6,0.1-1.2,0.3-1.8,0.4c0.2,0.3,0.3,0.5,0.5,0.6c0.9-0.3,1.7-0.7,2.5-0.9c0.5-0.1,0.8-0.5,0.9-0.8
		c0-0.5,0.4-0.7,0.6-1.1c0.3-0.7,0.5-1.5,0.7-2.3c0-0.1,0-0.2,0-0.3c-0.3-0.8-0.1-1.5,0.1-2.3c0.1-0.4,0.2-0.8,0.3-1.2
		c-0.3,0.1-0.5,0.4-0.7,0.5c-0.1,0-0.1,0.1-0.2,0c-0.1,0-0.2,0-0.3-0.1c0,0.1,0,0.1,0,0.2c0,0.1,0,0.1,0,0.2c0,0.3-0.2,0.6-0.5,0.8
		c-0.2-0.3-0.2-0.3,0-0.7c0.1-0.1,0.2-0.3,0.3-0.4c-0.1-0.7,0-1.4,0.5-2.1c0.1,0.1,0.2,0.2,0.4,0.5c0.1-0.6,0.1-1,0.2-1.4
		c-0.2,0-0.5,0-0.5-0.1c-0.4-0.6,0.7-0.9,0.3-1.5c0.1-0.1,0.3-0.1,0.4-0.2c0,0,0.1,0,0.1,0c0.1,0,0.3-0.1,0.3-0.1
		c0.2-0.7,0.8-1.2,0.9-1.9c0.2-1.2,0.3-2.3,0.5-3.5c0.2-1.6,0.1-3.3,0.7-4.8c0-0.1,0-0.1,0-0.2c0-0.5,0-1,0-1.5
		c0.1-0.7,0.2-1.5,0.2-2.2c0.1-1.6,0.2-3.3,0.3-4.9c0.1-0.9,0.2-1.9,0.3-2.8c0-0.3,0.2-0.6,0.2-0.9c0-1.2,0.1-2.4,0.1-3.6
		c-0.1-1.2,0.4-2.4,0.3-3.6c-0.1-2.2,0.1-4.5,0.3-6.8c0.1-1.2,0.2-2.3,0.3-3.4c0.1-1.5,0-2.9,0.1-4.4c0-1.3,0.1-2.7,0.2-4
		c0-0.9,0.1-1.8,0.2-2.7c0.3-2.1,0.7-4.2,0.6-6.4c0-0.3,0.1-0.6,0.1-0.9c0.1-1.6,0.3-3.2,0.4-4.8c0.1-1.2,0.1-2.5,0.3-3.7
		c0.3-2.2,0.8-4.4,0.9-6.6c0-1,0.3-2,0.3-3c0-2.6,0.7-5.1,1.3-7.5c0.1,0,0.2-0.1,0.3-0.1c1-0.3,1.9-0.5,2.7-1.2
		c1.3-1.1,3.1-1,4.4-1.9c0,0,0.1,0,0.1,0c1.7-0.3,3.4-0.1,5.1-0.1c0.3,0,0.7,0.3,0.9,0.2c1.3-0.4,2.2,0.2,3.1,1.1
		c0.8,0.8,1.4,1.7,1.6,2.8c0.2,1,0.3,2,0.4,2.9c0.1,2.1,0.2,4.3-0.2,6.4c-0.1,0.4-0.2,0.7-0.3,1.1c-0.1,0.2-0.2,0.4-0.2,0.6
		c-0.2,1.7-0.8,3.4-1.7,4.9c-0.4,0.6-0.7,1.2-0.9,1.9c-0.5,1.4-1,2.7-1.8,3.9c-0.9,1.3-1.7,2.7-2.6,4.1c-0.5,0.7-0.9,1.4-1.4,2.1
		c-0.4,0.5-0.8,0.9-1.2,1.4c-0.1,0.1-0.3,0.3-0.4,0.4c-1.3,1.6-2.6,3.2-3.9,4.9c-1,1.2-2,2.4-2.7,3.8c-1.1,2.1-1.7,4.4-1.4,6.9
		c0,0.1,0,0.3,0,0.4c0.1,1.7,0.7,3.3,1.3,4.9c0.4,1.2,1.3,2,2.2,2.9c1.9,1.7,4,2.6,6.5,2.7c1,0,1.9,0.1,2.9,0.3
		c1.8,0.3,3.5,1,5.2,1.7c2.8,1.1,4.7,3.1,6.1,5.7c0.5,1,0.6,2.1,0.7,3.2c0.2,1.9,0.1,3.8-0.3,5.7c-0.4,1.8-0.9,3.5-1.5,5.3
		c-0.3,0.9-0.6,1.8-1.3,2.4c-0.3,0.3-0.6,0.6-0.9,0.9c0,0-0.7,0.6-0.8,0.7c-0.9,0.4-1.2,1.3-1.9,2c-0.3,0.3-0.6,0.8-0.9,1.1
		c-1.3,1-2.6,1.9-3.9,2.8c-0.2,0.2-0.4,0.3-0.7,0.4c-1.9,1-3.8,2.1-5.8,3.1c-1.8,0.9-3.5,2-5.5,2.5c-0.2,0-0.4,0.1-0.5,0.2
		c-3.3,1.5-6.7,2.8-10.1,3.9c-2.2,0.7-4.6,1-6.7,1.9c-1,0.4-2.1,0.5-3.2,0.8c-2,0.6-4.1,0.6-6.2,0.7c-1,0-2,0-2.9,0.3
		c-0.6,0.1-1.2,0.3-1.9,0.4c-0.1,0-0.3,3.6-0.4,3.6c0,0,0,3.5,0,3.5c0.4,0,0.8,0,1.4,0c-0.1,0-0.3-3.2-0.4-3.1
		c-0.4,0.3-0.7-1.1-1-0.8c0.1,0,0.2-0.8,0.3-0.7c-0.5,0.1-1-0.4-1.1-0.2c-0.3,0.4-0.8,0.2-1.2,0.3c-0.6,0.1-0.7,0.2-0.6,0.8
		c0,0.2,0,0.3,0,0.5c0,0.7-0.2,1.3-0.5,1.9c-0.3,0.5-0.2,0.9,0.1,1.2c0.6,0.6,0.9,1.4,1.7,1.7c0.1,0,0.2,0.2,0.3,0.4
		c-0.3,0.2-0.6,0.3-0.8,0.5c-0.4,0.2-0.8,0.4-1.2,0.8c-0.3,0.4,0.1,0.8,0,1.2c-0.3,0.1-0.6,0.3-0.9,0.4c0,0.9-0.1,0.9-0.9,1.4
		c0,0.2,0.1,0.4,0.1,0.5c0.1,0.1,0.1,0.3,0.2,0.4c0,0.1,0.1,0.2,0.1,0.3s0.1,0.2,0.1,0.3c0,0.2-0.1,0.5-0.4,0.7
		c0.2,0.2,0.5,0.6,0.7,0.6c0.6-0.1,0.6,0.4,0.8,0.5c-0.4,0.5-0.7,0.9-1,1.4c0.3,0.8-0.8,0.9-0.7,1.6c1.4,1,3.1,1.1,4.8,1.2
		c0.4,0,0.9,0,1.4-0.1c0.2,0,0.3,0,0.5,0c0.4,0,0.8-0.1,1.2-0.1c0.4,0,0.8,0,1.2-0.1c0.3,0,0.5-0.1,0.8-0.1c0.7-0.1,1.4-0.3,2.1-0.5
		c1.2-0.3,2.5-0.5,3.7-0.8c0.5-0.1,0.9-0.4,1.4-0.4c1,0,1.9-0.8,3-0.5c0.1,0,0.2-0.1,0.3-0.1c0.6-0.2,1.2-0.5,1.8-0.6
		c1.8-0.5,3.7-1,5.5-1.5c1.6-0.5,3.1-1.1,4.7-1.6c2-0.7,4.1-1.4,6.1-2.3c2.3-1,4.6-2.1,6.9-3.2c0.3-0.1,0.5-0.4,0.8-0.5
		c0.9-0.5,1.8-1.1,2.7-1.6c0.9-0.5,1.9-0.7,2.7-1.3c1-0.8,2.2-1.3,3.4-1.7c0.3-0.1,0.5-0.3,0.7-0.4c0.4-0.4,0.8-0.8,1.2-1.1
		c1.8-1.5,3.7-2.9,5.5-4.4c0.6-0.5,1.2-1.1,1.7-1.7c0.3-0.3,0.4-0.8,0.8-1c0.6-0.5,1.3-1,2-1.1c0.5-0.1,0.7-0.2,1-0.6
		c0.6-1,1.2-1.9,1.9-2.9c0.3-0.5,0.7-0.9,0.9-1.3c0.5-0.9,1-1.9,1.6-2.7c0.8-1.2,1.4-2.5,1.9-3.9c0.6-1.6,1-3.3,1.5-4.9
		c0.8-2.6,1.1-5.3,1.3-8c0.1-1.1,0.1-2.3,0-3.4c-0.1-0.5,0.2-1,0.1-1.5c-0.2-1.1,0.1-2.2,0.1-3.3c0-1.3,0.1-2.6,0-3.9
		C141.5,267.3,141.2,265.9,141,264.5z M86.5,215.2C86.5,215.2,86.5,215.2,86.5,215.2c0.2-2,0.4-5.4,0.6-6.6c0,0,0.1-1.5,0.1-1.5
		c0,0.1,0.1-0.4,0.1-0.3c-0.1,1-2.5,1.7-2.6,2.7c0,0.1-2.5-0.3-2.5-0.3c0,0,0,0,0,0c0,0,0,0,0,0c0,0.5,2.4,1,2.1,1.5
		c0.1-0.5,1.2,2,1.3,1.5C85.4,212.2,86.5,215.2,86.5,215.2z M82.1,219.1c0,0.3,0,0.6,0,1C82.1,219.8,82.1,219.5,82.1,219.1z
		 M82.1,211.1c0,0.3,0,0.5,0,0.8C82.1,211.6,82.1,211.4,82.1,211.1z M86.6,224.3c0.1-0.1-0.1-0.4-0.2-0.7c0.2-0.3,0.3-0.6,0.7-1.2
		c0.5,1.5-0.2,2.7-0.2,3.8c-0.2-0.1-0.4-0.1-0.6-0.2C86.3,225.5,86,224.8,86.6,224.3z M86.9,230.7c0-0.6-0.1-1.1-0.1-1.7
		C87.2,229.3,87.2,229.3,86.9,230.7z M86.5,228c0,0.5,0.1,0.9-0.5,1.2C86.1,228.8,86.3,228.5,86.5,228z M86.2,261.2
		c0.1-0.1,0.3-0.2,0.3-0.3c0.3-0.9,0.6-1.9,1-2.8c0.1-0.3,0.3-0.5,0.3-0.7c0.4,0,0.6,0,1-0.1c0,0.1,0.2,0.3,0.1,0.4
		c-0.3,0.5-0.1,1.1-0.2,1.6c0,0.5-0.1,1.1-0.2,1.6c-0.1,0.2-0.4,0.3-0.7,0.4c0.1,0.1,0.2,0.2,0.3,0.3c0.1,0.1,0.3,0.2,0.3,0.4
		c0,0.2,0.1,0.6-0.1,0.7c-0.4,0.3,0.1,0.5,0,0.7c-0.1,0.2-0.2,0.4-0.5,0.6c-0.3-0.7-0.1-1.4-0.4-2.1c0,0.2-0.1,0.4-0.1,0.5
		c-0.6,0.3-1.1,0.5-1.8,0.8C85.5,262.4,85.6,261.8,86.2,261.2z M88.7,265c0,0.4-0.1,0.7-0.1,0.9C88.5,265.7,88,265.4,88.7,265z
		 M88.3,266.1c-0.4,0.3-0.4,0.3-0.8-0.4C87.8,265.9,88,266,88.3,266.1z M81.1,264.1c1,0.3,1,0.4,0,1
		C81.1,264.7,81.1,264.4,81.1,264.1z M83.4,239.4c0.5,1,0.1,1.8-0.1,2.6C83.4,241.2,83,240.4,83.4,239.4z M82.7,245.1
		c0-0.2,0.1-0.4,0.1-0.6c-0.2-0.6,0.1-1,0.4-1.5c-0.1,0.9-0.2,1.8-0.3,2.7c0.5-0.5,0.4-1.2,0.5-1.8c0.1-0.6,0.2-1.3,0.4-2
		c0.3,0.6,0.3,0.6,0.1,1.9c0.1-0.1,0.2-0.1,0.4-0.2c0.2,0.3,0.4,0.6,0.7,0.9c-0.2,0.4-0.2,1-0.7,1.2c-0.1,0-0.1,0.4-0.1,0.7
		c0,0.2,0,0.4,0.1,0.9c-0.8-0.7-0.2-1.3-0.4-1.9c-0.2,0.7-0.4,4.3-0.6,4.9c0,0,0,3,0,3c0,0,0,0,0,0c0,0,0-3,0-3c0,0,0-1.5,0-1.5
		c0,0,0-0.7,0-0.7c0,0,0-0.4,0-0.4c-0.2,0-0.4-0.3-0.6-0.3C82.6,246.6,82.7,245.7,82.7,245.1z M80.5,273c-0.1,0.4-0.2,0.7-0.3,1
		C80.1,273.5,80.1,273.5,80.5,273z M79.8,285.2C79.8,285.2,79.8,285.2,79.8,285.2c0,0-6.7-5-6.7-5c0,0,0,0,0,0
		c0-0.5,3.1-1.1,3.3-1.6c0,0,1.7,0,1.6,0c0,0,0.8,0,0.9,0c0.1-0.9,0.7-1.8,0.8-2.8c0.1,0.1,0.5,0.2,0.5,0.3
		c-0.1,0.9,0.1,1.8-0.6,2.5c0,0,0,0,0,0.1c0,0,0,0,0,0c0.2,0.3,0.2,0.6,0.2,0.9c0,0.2-0.1,0.5-0.1,0.7c0.1,0-3.2-0.1-3.1-0.1
		c-0.1,0-3.6,0.1-3.6,0.1c0,0,0,5,0,5h6.4c0,0-6.4-5-6.4-5.1c0,0,0,0,0,0c0,0,3.5,0,3.5,0c0,0.9,1.8,1.8,1.9,2.8c0,0,0.9,0,0.9,0
		c0,0,0.4,0,0.4,0c-0.1-0.1,0-0.2,0-0.4c-0.3-0.6-0.4,1.1-0.1,0.5C79.7,282.9,79.8,285.2,79.8,285.2L79.8,285.2z M79.6,284.2
		c0,0.3,0.6,0.7-0.1,1C79.6,284.8,79.6,284.5,79.6,284.2z M80.6,288.2c-0.1,0.3-0.2,0.6-0.3,0.9c0,0,0,0,0,0c0,0,0,0,0,0
		c-0.1,0-0.2-0.1-0.3-0.1c-0.2,0.7-3.2,1.9-3.1,2.4c0.2,0.6-3.8,0.9-3.8,0.9c0-2.2,0-4.4,0-6.6c0,0,3.6,0.2,3.7,0.4
		c0.1,0.4,1.7,0.9,2,1.2C79.1,287.6,80.6,287.9,80.6,288.2z M80.8,280c-0.1,0-0.1,0-0.2,0c0-0.2-0.1-0.3-0.2-0.7
		c0.3,0.2,0.4,0.3,0.4,0.4C80.9,279.8,80.8,279.9,80.8,280z M81.4,270.2c-0.2-0.1-0.4-0.3-0.4-0.4c0-0.6,0.1-1.2,0.2-1.8
		c0.1,0,0.2,0,0.3,0C81.5,268.8,81.5,269.5,81.4,270.2z M82.9,259.7c-0.2,0.9-0.3,1.7-1.5,1.8c0-0.2-0.1-0.4-0.1-0.6
		c0.2-1.6,0.4-3.2,0.6-4.8c0.1-1,0.2-2.1,0.4-3.1c0.1-0.6,0.4-1.2,0.5-1.9c0.1,0,0.2,0.1,0.3,0.1c-0.2,1.2-0.4,2.3-0.5,3.5
		c0.1,0,0.1,0,0.2,0.1c0.1-0.1,0.2-0.3,0.3-0.4c0.1-0.2,0.1-0.3,0.2-0.5c0.2,0,0.4,0,0.6,0c0.5,0,0.9,0.4,0.7,0.8
		c-0.4,0.9-0.3,1.8-0.3,2.7c-0.1,0.7,0.2,1.5,0.4,2.3C83.8,259.3,83.4,260,82.9,259.7z M84.1,295.3c0.6,0.7,0,1.2,0,1.8
		c-0.1,0-0.1,0.1-0.2,0.1c0-0.1-0.1-0.2-0.1-0.2c-0.1-0.7-0.2-1.4-0.2-2c0-0.3,0.2-0.7,0.3-1c0.5-0.1,0.7,0.2,0.8,0.6
		C84.8,294.9,84.5,295.1,84.1,295.3z M85.5,284.1c0-0.2,0-0.5,0-0.7c0.1,0,0.2,0,0.2,0c0.1,0.4,0.2,0.7,0.2,1.1
		C85.4,284.4,85.5,284.4,85.5,284.1z M85.8,282.2c0.4-0.2,0.4-0.2,0.7,0.4C86.2,282.4,86,282.3,85.8,282.2z M86.6,281.2
		c-0.1,0-0.2,0-0.2,0c-0.2,0-2.8,0.1-2.9,0.1c0,0-2.3,0-2.3,0c0,0.1,0,0.2,0,0.4c-2,0.1,1.7,0,1.4-0.2c0.1-0.3,1.4-0.4,1.6-0.4
		c0.1,0,0.8,3.1,0.9,3.1c0,0,0.8,3.1,0.8,3.1h0c0,0-0.3-3.7-0.5-3.8c0.3-0.4,0.5-2.4,0.8-2.8c0.2,0,0.5-0.8,0.6-1
		c0.1-0.1,0.1-0.8,0.1-1.1c0.1,0,0.1-0.3,0.2-0.3c0.2,0,0.3,0,0.4,0.2c0.1,0.4-0.1,1-0.4,1.1C86.8,280.3,86.7,280.7,86.6,281.2z
		 M87,303.1c0-0.2-0.1-0.4-0.1-0.6C87.4,302.6,87.3,302.8,87,303.1z M87.5,281.2c-0.1-0.6-0.6-1.3,0.4-1.7
		C88.3,280.2,87.8,280.7,87.5,281.2z M88.1,279.5c0-0.5,0-0.9,0-1.4c0.5,0,0.3,0,0.5,0.1C88.7,278.7,89,279.2,88.1,279.5z
		 M89.8,284.8c-0.1-0.1-0.1-0.1-0.2-0.2c0.1-0.2,0.3-0.3,0.5-0.6C90.3,284.5,90,284.6,89.8,284.8z M91.9,279.5c-0.2,0-0.5,0-0.5-0.1
		c-0.1-0.1-0.1-0.4,0-0.6c0.1-0.2,0.4-0.4,0.7-0.7C92,278.7,91.9,279.1,91.9,279.5z M91.8,278c-0.1-0.1-0.2-0.2-0.3-0.3
		c0.1-0.1,0.2-0.2,0.3-0.4c0.1,0.1,0.3,0.2,0.2,0.3C92,277.8,91.9,277.9,91.8,278z M91.4,276.9c0.3-0.3-0.2-1,0.6-1.1
		C92.1,276.6,92.1,276.6,91.4,276.9z M92,274.8c-0.4-0.4-0.1-0.6,0-0.8C92.1,274.2,92.1,274.4,92,274.8z M92.2,272.7
		c0,0.1,0,0.2-0.1,0.3c0,0.2-0.1,0.3-0.1,0.4c-0.1,0-0.1,0-0.2,0c-0.3,0-0.5-0.4-0.9-0.4c-0.1,0-0.1,0-0.2,0
		c-0.4,0.1-0.9,0.1-1.4,0.2c-0.1,0.4-0.3,0.8-0.5,1.2l0,0l0,0c-0.4-0.2-0.4-0.6-0.6-0.9c0,0-2-0.1-2-0.1c-0.1-0.1-2.2-0.1-2.2-0.2
		c0,0,0,0,0,0c0,0,1.9,0,1.9,0c0.1,0.4,1.1,0.8,0.9,1.1c0,0,0.4,0.1,0.4,0.1c0,0.1,0.1,0.1,0.1,0.2c0.2,0.2,0.2,0.4,0,0.5
		c-0.2,0.2-0.4,0.4-0.4,0.6c0,0.7-0.2,1.3-0.9,1.5c-0.1,0-0.1,0.2-0.1,0.3c-0.3-0.1-0.5-0.3-0.3-0.6c0.1-0.2,0.4-0.3,0.6-0.4
		c0-0.3-0.2-0.7-0.1-0.9c0.3-0.5,0.7-0.8,1.1-1.2c0,0,0,0,0,0c0.1,0,0.2,0,0.2,0.1c-0.1-0.1-0.2-0.2-0.2-0.3c0,0,0,0,0,0
		c0,0,0,0,0,0c0-0.1,0-0.1,0-0.2c0,0,0-0.1,0.1-0.1c0.2-0.2,0.3-0.4,0.5-0.7c0,0,0,0,0-0.1c0,0,0,0,0,0c0.1-0.2,0.1-0.3,0.2-0.4
		c0,0,0,0,0,0c0,0,0,0,0,0c0.2-0.3,0.3-0.3,0.9-0.3c0.8,0,0.8,0,1.4-0.8c0-0.1,0.1-0.1,0.2-0.1c0.1,0-1.6,0-1.5,0
		c0.2,0-1.2,0.2-1.2,0.3c0-0.5,0-0.8,0-1.1c0,0.1,1.4,0.2,1.3,0.3c0,0,0.8-0.1,0.8-0.1c0-0.1,0.5-0.3,0.5-0.4
		c0.2-0.6,0.5-1.1,0.6-1.7c0.1-0.6-2-1.3-1.4-1.7c0.2-0.1-1.8-0.4-1.8-0.8c0,0,0,0,0,0s2.2,0,2.2,0C90.5,268,92.5,271.2,92.2,272.7z
		 M93.3,246C93.4,246,93.4,246,93.3,246L93.3,246C93.3,246,93.3,246,93.3,246c-0.1,0.1-0.1,0.3-0.2,0.5c-0.1-0.1-0.2-0.2-0.3-0.3
		C93,246,93.2,246,93.3,246C93.3,246,93.3,246,93.3,246C93.3,246,93.3,246,93.3,246c-0.1-0.4-0.2-0.7-0.3-1.2c0,0-0.2,0-0.4-0.1
		c0.1-0.3,0.3-0.5,0.4-0.9c0.2,0.5,0.4,0.9,0.5,1.3C93.7,245.4,93.8,245.8,93.3,246z M109.6,256.7c0.2,0.1,0.4,0.1,0.7,0.2
		C110,257.2,110,257.2,109.6,256.7z M111.6,251.1c0.4-0.4,0.6-0.8,1.1-1.3C112.8,250.8,112.8,250.8,111.6,251.1z M69.8,321.2
		c-0.2,0-0.3-0.1-0.5-0.1c0-0.1,0-0.1,0-0.2c0.2,0,0.3,0.1,0.5,0.1C69.9,321.1,69.8,321.1,69.8,321.2z M74.7,313.3
		c0,0.6-0.5,0.4-0.7,0.5c-0.9,0.5-1.9,0.3-2.9,0.3c-0.1,0-0.1,2.7-0.3,2.6c0.4-0.3,1.1,1.6,0.8,1.6c0.3,0,0.6,0,0.9,0
		c0.3,1,0.3-1.9,1.1-2c-0.2-0.1-0.3-1.6-0.4-1.6c-0.1-0.1-0.3-0.9-0.4-1c0,0,0-0.4,0-0.4c0,0,0-0.2,0-0.2c0-0.1,0.1-0.2,0.1-0.2
		c0.7-0.1,1.4-0.2,2.2-0.3c0,0.1,0,0.1,0,0.2C75.2,313,74.7,313.1,74.7,313.3z M75.5,313.2c0.1-0.8,0.2-0.9,1.7-0.6
		C76.6,312.8,76.1,313,75.5,313.2z M109.2,302.1c-0.5,0.3-1,0.6-1.6,0.9c-0.5,0.3-1.1,0.6-1.6,0.8c-0.2,0.1-0.5-0.1-0.8-0.1
		c0-0.1,0-0.2,0-0.2c2.3-1.2,4.7-2.5,7.2-3.8C111.4,300.8,110.3,301.5,109.2,302.1z M114,314.7c-0.1-0.9,0.1-1.3,0.9-1.4
		c0.6-0.1,1.2-0.3,1.8-0.4c0.3,0,0.6,0,0.9,0.1C116.3,313.5,115.3,314.4,114,314.7z M121.2,311c0.1-1,0.6-1.4,3.2-2.3
		C123.4,309.5,122.3,310.2,121.2,311z M119,251.4c0.8-0.4,1.5-1.1,2.3-1.6c0.1-0.1,0.2-0.1,0.5-0.2c-0.9,1.3-2.1,1.8-3.1,2.7
		C118.6,251.6,118.6,251.6,119,251.4z M120.1,260c-1,0.2-1.6-0.5-2.3-0.6c2-1.3,2-1.3,2.8-1.2c-0.2,0.3-0.4,0.5-0.6,0.8
		C119.8,259.3,119.6,259.6,120.1,260z M125,251.3c-1,0.8-2,1.5-3.2,1.9c-0.6,0.2-1.3,0.2-1.5,1.1c0,0.2-0.3,0.4-0.6,0.5
		c-1.6,0.9-3.1,1.8-4.9,2.1c-0.3,0-0.6,0-1,0.1c0.4-0.4,0.4-0.4,1.1-0.5c0.6-0.6,1.1-1.4,1.8-1.8c2.1-1.3,4-2.9,5.6-4.9
		c0.9,0.4,1.9,0.8,2.9,1.2C125.2,251.1,125.1,251.2,125,251.3z"/>
	<path fill="#FFFFFF" d="M299.3,15.7c0.1-0.8-0.1-1.6-0.2-2.4c0-0.1,0-0.2-0.1-0.3c0-0.2-0.1-0.5-0.1-0.7c-0.1-0.2-0.1-0.5-0.1-0.7
		c0-0.2-0.1-0.4-0.1-0.7c-0.1-0.4-0.3-0.8-0.4-1.2c-0.2-0.4-0.4-0.7-0.7-1.1c-0.4-0.5-0.9-0.9-1.4-1.3c-2.3-1.5-4.6-1.1-6.9,0.1
		c-0.3,0.2-0.6,0.4-0.8,0.6c-0.4,0.5-0.7,1-1,1.6c-0.1,0.3-0.2,0.6-0.3,0.9c-0.1,0.3-0.2,0.6-0.2,0.9c-0.3,1.4-0.5,2.8-0.8,4.2
		c-0.2,1.2-0.5,2.4-0.8,3.7c-0.4,1.9-0.8,3.7-1.2,5.6c-0.1,0.4-0.2,0.8-0.3,1.2s-0.2,0.8-0.3,1.2c-0.3,1.5-0.6,3.1-0.8,4.6
		c-0.3,1.7-0.7,3.3-0.9,5c-0.3,2.6-0.6,5.3-1.1,7.9c-0.6,2.9-0.9,5.9-1.4,8.8c-0.3,2.1-0.7,4.2-1.2,6.2c-0.3,1.2-0.6,2.5-0.9,3.7
		c0,0.1,0,0.1-0.1,0.2c-0.1,0.2-0.2,0.4-0.2,0.6c-0.6,2.4-1.2,4.8-1.7,7.2c-0.4,1.9-0.8,3.8-1.1,5.7c-0.1,0.8-0.2,1.6-0.4,2.4
		c-0.3,1.4-0.7,2.9-1,4.3c-0.3,1.4-0.4,2.7-0.6,4.1c-0.1,0.9-0.3,1.9-0.4,2.8c-0.3,2.3-0.5,4.5-0.8,6.8c-0.4,2.6-0.9,5.2-1.3,7.8
		c-0.1,0.5-0.1,1-0.6,1.5c-0.5-1.1-0.9-2.1-1.3-3.1c-0.6-1.8-1.2-3.6-1.9-5.5c-0.4-1.1-0.8-2.3-1.2-3.4c-0.1-0.3-0.1-0.7-0.1-0.9
		c0.4-1.2-0.3-2.2-0.7-3.3c-0.1-0.2-0.3-0.4-0.4-0.7c-0.3-1.1-0.6-2.2-0.9-3.3c-0.4-1.4-0.7-2.7-1.1-4.1c-0.5-1.8-1-3.7-1.4-5.5
		c-0.1-0.5-0.2-1.1-0.3-1.6c-0.1-0.6-0.2-1.1-0.3-1.6c-0.3-1.3-0.7-2.6-1-3.9c-0.3-1-0.5-2.1-0.7-3.1c-0.3-1.2-0.5-2.5-0.9-3.7
		c-0.2-0.6-0.5-1.3-0.7-1.9c-0.2-0.4-0.3-0.9-0.5-1.3c-0.1-0.6-0.2-1.1-0.4-1.7c0-0.2-0.1-0.4-0.1-0.6c-0.1-0.2-0.1-0.4-0.2-0.7
		c-0.2-0.7-0.5-1.3-0.6-2c-0.4-2.5-0.8-5-1.2-7.5c-0.2-1.2-0.3-2.3-0.6-3.5c-0.7-3.4-1.4-6.7-2-10.1c-0.2-1-0.4-2.1-0.6-3.1
		c-0.2-1-0.4-2.1-0.7-3.1c-0.3-1-0.6-2-0.6-3.1c0-0.5-0.1-1-0.3-1.4c-0.2-0.4-0.4-0.9-0.6-1.3c-0.2-0.4-0.4-0.8-0.7-1.2
		c-0.2-0.3-0.3-0.6-0.5-0.9c-0.1-0.3-0.3-0.7-0.4-1c-0.1-0.2-0.2-0.4-0.4-0.6c-0.1-0.1-0.2-0.2-0.3-0.3c-0.3-0.4-0.6-0.9-0.8-1.4
		c-0.1-0.2-0.3-0.5-0.4-0.7c-0.1-0.1-0.1-0.2-0.2-0.3c-0.3-0.5-0.7-1-1.1-1.3c-1.8-1.4-3.6-2.4-5.9-2.6c-0.4,0-0.8,0-1.2,0
		c-0.4,0-0.8,0.1-1.2,0.2c-1.3,0.4-2.4,1.1-3.2,2.1c0,0.1-0.1,0.1-0.1,0.2c-0.2,0.2-0.3,0.4-0.5,0.5c-0.7,0.5-1.2,1-1.5,1.7
		c-0.1,0.2-0.2,0.4-0.2,0.7c-0.1,0.2-0.1,0.5-0.1,0.7c0,0.4-0.1,0.7-0.1,1.1c-0.1,0.7-0.2,1.5-0.3,2.2c-0.1,0.4-0.1,0.7-0.2,1.1
		c-0.1,0.5-0.1,1-0.2,1.4c0,0.1,0,0.3-0.1,0.5c-0.1,0.5-0.1,0.9-0.2,1.3c-0.4,1.8-0.9,3.5-1.3,5.3c-0.3,1.2-0.3,2.4-0.6,3.6
		c-0.4,2.3-0.8,4.6-1.4,6.8c-0.8,3-1.3,6.1-1.7,9.2c-0.2,1.3-0.3,2.6-0.5,3.9c-0.2,1.1-0.4,2.1-0.6,3.2c-0.3,1.8-0.6,3.5-1,5.3
		c-0.4,1.5-1,3-1.3,4.6c-0.6,3-1.2,6-1.7,9.1c-0.3,1.8-0.6,3.7-0.9,5.5c0,0.1,0,0.2-0.1,0.4c0,0.2-0.1,0.5-0.1,0.7
		c0,0.1-0.1,0.2-0.1,0.3c-0.6,2-1,4-0.9,6.1c0,0.2,0,0.3,0,0.5c-0.4,2.9-0.8,5.8-1.1,8.7c-0.3,2.9-0.6,5.8-0.9,8.7
		c-0.3,2.5-0.6,5-0.9,7.5c-0.5,3.6-3.6,7.2-3.1,10.8c0.1,0.7-1.8,1.2-1.8,1.6c0,0.4,0,0.8,0,1.1c0,0,3.2,0,3.4,0
		c-0.1,0.4,1.1,0.8,1,1.1c-0.2,0.5,0.6,0.7,1.1,0.9c0.2-0.8,1.3-1.2,1.2-1.9c0.3,0,0.7,0.1,1,0.1c0.9-0.2,1-0.2,1.2,0.7
		c0.1,0.3,0,0.7,0.1,1c0,0.2,0,0.3,0.1,0.7c0.3-0.7,0.5-1.3,0.7-1.8c-0.5-0.4-0.4-0.8,0-1.3c0.2,0,0.3,0.1,0.5,0.1
		c0.1-0.2,0.2-0.4,0.3-0.5c0.1-0.2,0.2-0.3,0.3-0.5l0,3.3c0,0-0.2,3.3-0.2,3.3h-4.6v-6.7v6.7c0,0,4.8,0,4.8,0c-0.3,0-0.6-3-0.9-2.8
		c0,0,0-1.7,0-1.7c0,0,0-0.8-0.1-0.8c0-0.1,0-0.7,0-0.8c0.1-0.3-3.1-0.9-3.1-1.3c-0.1,0.2-0.7,0.2-3.7,0.5c0,0,0,0,0,0
		c0,0,1.2,0,1.2,0c-0.2-1.3-1.2-1.3,1.8-2.1c0,0,0,0,0,0c0,0,2,0,2,0c0.1,0.3,1.3,0.6,1.3,0.9c0.1,0.2,0.5,0.5,0.6,0.8
		c0.1,0.2-1.9,0.3-1.8,0.5c0,0.1-2.2,0.2-2.2,0.3c0,0,0,0,0,0c0-0.2,4.8,6.6,4.9,6.6h0.1h0h0c0.2,0,0.4-3.4,0.6-3.4
		c0.1-0.2,0.2-2.2,0.3-2.4c0.1-0.2,0.2-1.2,0.3-1.3c0.1-0.1,0.3-0.6,0.6-0.7c0,0.1,0.1,0,0.2,0.1c0,0,0.1,0,0.1,0
		c0.3-1,1.4-0.6,1.9-1.2c0.2,0.8,0.2,0.8,0.8,0.6c-0.1-0.2-0.2-0.4-0.3-0.6c0.7-0.3,1.2-0.5,1.1-1.4c-0.1-0.3,0.1-0.9,0.7-1
		c0.2,0,0.4-0.2,0.5-0.4c0.7-0.7,1-1.5,1.2-2.4c0.2,0,0.2-0.1,0.3-0.1c0.9-0.2,1-0.5,1.2-1.4c0.1-0.8,0-1.7,0.3-2.4
		c0.1-0.2,0-0.4,0-0.6c0.1-0.8,0-1.7,0.3-2.5c0.3-1,0.4-2,0.5-3.1c0-0.2,0.1-0.5,0.2-0.6c0.4-0.6,0.2-1.2,0.1-1.9
		c-0.1-0.6,0.4-1.2,0.2-1.9c0-0.1-0.1-0.1-0.1-0.2c-0.2-0.4-0.1-0.7,0.1-1.1c0.2-0.3,0.4-0.7,0.5-1.1c0.1-0.4,0.1-0.8,0.2-1.2
		c0.2-0.9,0.5-1.7,0.5-2.6c0-0.7,0-1.5,0.1-2.2c0.3-1.2-0.4-2.5,0.6-3.6c0,0,0-0.1,0-0.1c0.1-1.1,0.3-2.2,0.5-3.3
		c0.2-1.4,0.6-2.8,0.3-4.3c-0.1-0.3-0.1-0.6-0.1-0.9c0-0.3-0.1-0.6-0.1-0.9c0-0.1,0-0.2,0-0.2c0-0.1,0-0.2,0-0.2
		c0.2-0.8,0.4-1.5,0-2.3c0-0.1,0-0.2,0-0.3c0-0.1,0-0.2,0-0.3c0.1-0.5,0.2-1.1,0.3-1.6c0-0.3,0.1-0.5,0.1-0.8
		c0.1-0.5,0.1-1.1,0.2-1.6c0.1-0.8,0.1-1.6,0.2-2.4c0-0.5,0-1,0.2-1.6c0.2-0.6,0.3-1.3,0.4-2c0.2-1.6,0.4-3.2,0.6-4.8
		c0.1-0.9,0.3-1.8,0.6-2.8c0.1,0.2,0.2,0.3,0.2,0.4c0.3,1.6,0.9,3.1,1.6,4.6c0.4,0.8,0.7,1.6,0.9,2.5c0.4,1.5,0.6,3.1,0.9,4.6
		c0.3,1.4,0.6,2.9,0.9,4.3c0.3,1.6,0.4,3.2,0.8,4.7c0.6,2.6,1.3,5.1,1.9,7.7c0.5,2.1,1.3,4,2.1,6c0.3,0.7,0.6,1.5,0.7,2.3
		c0.3,2.2,1.1,4.2,1.8,6.3c0.6,1.6,1.3,3.2,1.9,4.8c1.3,3.3,2.5,6.6,3.9,9.9c1.1,2.6,2.5,5.1,3.6,7.6c0.5,1.2,1.4,2,2.1,3.1
		c1.4,2.4,3.3,4.2,6.1,5c0.5,0.2,1.1,0.2,1.7,0.4c1.6,0.6,3.2,0.5,4.7-0.1c0.1,0,0.2,0,0.3,0c0.9-0.2,1.8-0.6,2.8-0.7
		c0.5,0,0.9-0.4,1.4-0.6c0.1-0.1,0.3-0.2,0.4-0.2c0.5,0.3,0.7-0.2,1-0.3c0.3-0.2,0.6-0.6,0.9-0.9c0.1-0.6,0.2-1.2,0.4-1.8
		c0.4-1.2,0.9-2.5,1-3.8c0-0.5,0.1-1.1,0.3-1.5c0.4-0.9,0.7-1.8,0.7-2.8c0-0.2,0.1-0.4,0.2-0.6c0.8-1.5,1.3-3.2,1.4-4.9
		c0-0.6,0.2-1.3,0.1-1.9c-0.1-0.8,0.5-1.2,0.6-1.9c0.4-1.8,0.9-3.5,1.3-5.3c0.1-0.4,0.3-0.7,0.3-1.1c0.1-1.3,0.4-2.4,0.7-3.7
		c0.3-1.1,0.3-2.4,0.7-3.5c0.7-2.2,0.8-4.4,1.4-6.6c0.3-1.3,0.5-2.6,0.8-3.9c0.1-0.4,0-0.8,0.2-1.1c0.4-1,0.3-2.1,0.8-3.1
		c0.1-0.2,0-0.4,0-0.6c0-0.5,0.1-1,0.1-1.5c0.1-0.7,0.2-1.4,0.3-2.2c0.1-0.7,0.2-1.4,0.4-2.2c0.1-0.4,0.1-0.7,0.2-1.1
		c0.1-0.4,0.2-0.7,0.2-1.1c0-0.1,0-0.3,0-0.4c0-0.2,0-0.3,0-0.5c0-0.3,0-0.7,0.1-1c0-0.2,0-0.3,0.1-0.5c0.3-1.3,0.5-2.7,0.6-4.1
		c0-0.5,0.1-0.9,0.1-1.4c0.1-1.4,0.3-2.7,0.5-4.1c0.1-0.7,0.3-1.4,0.2-2.1c-0.1-1.2,0.3-2.2,0.4-3.3c0.1-1.5,0.4-3,0.5-4.5
		c0-0.4,0-0.7,0.1-1.1c0.1-0.7,0.2-1.4,0.4-2.1c0.1-0.4,0.1-0.7,0.2-1.1c0.2-1,0.3-2,0.5-3c0.1-0.6,0.1-1.3,0.4-2
		c0.1-0.2,0-0.4,0.1-0.6c0.1-0.6,0.2-1.2,0.3-1.8c0-0.1,0.1-0.2,0.1-0.4c0-0.1,0.1-0.2,0.1-0.4c0.2-1.2,0.3-2.4,0.5-3.6
		c0.1-0.4,0.1-0.8,0.2-1.2c0.3-1.9,0.6-3.8,0.9-5.6c0.3-1.9,0.6-3.8,0.9-5.6c0.1-0.5,0.2-1,0.3-1.5c0.2-0.7,0.3-1.4,0.5-2.1
		c0.2-0.7,0.3-1.4,0.5-2.1c0-0.2,0.1-0.4,0.1-0.5c0.1-0.5,0.2-1.1,0.3-1.6c0.3-1,0.7-2,1-3C299.5,16.3,299.3,16,299.3,15.7z
		 M215.4,114.6c0.1,0,0.2,0,0.3,0c-0.1,0.2-0.1,0.5-0.2,0.7c-0.1,0-0.1,0-0.2,0C215.3,115.1,215.3,114.9,215.4,114.6z M215.4,116.2
		c0,0.2,0,0.4,0,0.6c-0.1,0-0.1,0-0.2,0c0-0.2,0-0.4,0-0.6C215.2,116.1,215.3,116.1,215.4,116.2z M213.9,123.8c-0.1,0-0.1,0-0.2,0.1
		c0.3-2.7,0.6-5.3,0.9-8C214.6,118.5,214.5,121,213.9,123.8c0.4-0.2,0.6-0.3,0.9-0.5c0.2,0.6-0.1,0.9-0.3,1.3
		C214.3,124.4,214.1,124.1,213.9,123.8z M214.6,127.6c0.2-0.8,0.3-1.4,1.2-1.7c0.1,0.5,0.2,0.9,0.4,1.4
		C215.6,127.4,215.1,127.5,214.6,127.6z M219.2,91.7c0.1,0,0.1,0,0.2,0c0,0.3,0,0.5-0.1,0.8c0,0-0.1,0-0.1,0
		C219.2,92.2,219.2,91.9,219.2,91.7z M219.3,116.5c-0.1-0.5-0.1-0.8,0.4-0.9C219.5,115.9,219.4,116.1,219.3,116.5z M232.4,15.1
		c0.4-0.2,0.6-0.7,0.9-1.1c0.1,0.1,0.1,0.1,0.2,0.2c-0.2,0.5-0.3,1.1-0.9,1.4c-0.2,0.1-0.2,0.4-0.4,0.6c-0.1,0.2-0.2,0.5-0.4,0.6
		c-0.4,0.3-0.6,0.6-0.5,1.2c0,0.2-0.3,0.5-0.5,0.7C230.8,17.2,231.1,16,232.4,15.1z M233.3,23.5c-0.8-0.4-0.5-0.7-0.1-1.1
		C233.2,22.8,233.3,23.1,233.3,23.5z M226,45.9c0.2-1,0.4-2.1,0.7-3.1c0.3-1,0.1-2,0.9-2.9c-0.5,3-1.1,6-1.6,9c-0.1,0-0.2,0-0.3,0
		C225.8,47.9,225.8,46.9,226,45.9z M221.4,105.6c0.1,0.7-0.2,0.4-0.6,0.3C221.1,105.8,221.2,105.7,221.4,105.6z M220.6,115.5
		c-0.2,0-0.4,0-0.7,0.1c0-0.1,0-0.2,0-0.5c0.3,0.1,0.5,0.2,0.7,0.3C220.6,115.4,220.6,115.4,220.6,115.5z M220.2,113.4
		c0-0.2,0.1-0.3,0.1-0.5c0,0,0.1,0,0.1,0c0,0.2,0,0.3,0,0.5C220.3,113.4,220.3,113.4,220.2,113.4z M220.6,111.9
		c-0.2-0.2-0.4-0.3-0.8-0.5c0.4-0.1,0.6-0.1,0.9-0.1C220.7,111.5,220.6,111.6,220.6,111.9z M220.9,109.7c-0.2-0.1-0.4-0.2-0.7-0.3
		c0.3-0.2,0.4-0.3,0.7-0.5C221,109.3,221,109.5,220.9,109.7z M220.8,108.8c0.1-0.6,0.2-1.1,0.3-1.6c0.2,0,0.3-0.1,0.5-0.1
		c0.1,0.3,0.3,0.6,0.2,0.9c-0.1,0.5-0.3,1.1-0.4,1.6C221.1,109.5,221.7,108.6,220.8,108.8z M221.5,113c0.1-0.7,0.1-1.3,0.2-2.1
		C222.1,111.5,222.1,111.6,221.5,113z M221.8,117.9c-0.1-0.1-0.2-0.2-0.2-0.3c-0.2-0.3-0.2-0.7,0-1.1l0,0l0,0
		c0.2,0.2,0.3,0.4,0.5,0.7C222,117.5,221.9,117.7,221.8,117.9z M222.1,116.4c-0.4-0.7,0-1.1,0.2-1.7
		C222.6,115.2,222.6,115.2,222.1,116.4z M223.5,113.5c-0.5,0.1-0.6,0.8-1.2,0.6c-0.4-0.8,0-1.5,0.2-2.2c0.3-0.8,0.3-0.8-0.3-1.3
		c-0.1-0.1-0.3-0.4-0.3-0.4c0.5-0.5-0.1-1.1,0.3-1.8c0.2,0.2,0.2,0.3,0.3,0.4c0,0,0.1-0.1,0.1-0.1c0-0.2-0.1-0.5-0.1-0.7
		c-0.1-0.2-0.1-0.5-0.2-0.7c-0.2-0.4,0.5-0.5,0.3-1c-0.1-0.3,0-0.8,0.2-1.2c0,0.2,0.1,0.3,0.2,0.7c0.2-0.6,0.3-1,0.5-1.5
		c0,0,0.1,0,0.1,0c0,0.3,0.1,0.7,0.1,1c0.3-0.6,0.7-1.1,0.3-1.8c-0.1,0.2-0.2,0.3-0.3,0.5c0-0.5,0.1-0.9,0.1-1.5
		c0.1,0.4,0.2,0.6,0.2,0.8c0,0,0.1,0,0.1,0c0.1-0.2,0.1-0.5,0.2-0.7c0.4-0.9,0.7-1.8,1.2-2.6c0.2,0.5,0.2,1.1-0.1,1.4
		c-0.5,0.7-0.5,1.5-0.8,2.2c-0.1,0.3-0.2,0.6-0.2,1c0.1,0,0.2,0,0.2,0.1c0.2-0.6,0.4-1.1,0.6-1.7c0.3,0.6,0.3,1.3,0.1,2
		c0,0.1,0,0.2,0,0.3c-0.1,0.4-0.1,0.8-0.2,1.2c0,0,0,0.1,0,0.1c0,1.1-0.4,2.1-0.6,3.1c-0.2,0.8,0,1.6-0.5,2.3c-0.1,0.2,0,0.5,0,0.7
		C224,113.1,223.9,113.4,223.5,113.5z M225.4,114.4c-0.1,0.3-0.3,0.6-0.3,0.9c0.1,0.9-0.5,1.1-1.1,1.6c0-0.8,0.9-1.5,0.2-2.3
		c0.5-0.8,0.4-1.9,1.5-2.4C225.8,113,225.6,113.7,225.4,114.4z M225.5,112c-0.1-0.4-0.3-0.7,0.3-0.7C226,111.5,226,111.8,225.5,112z
		 M224.7,111.2c-0.1-1.3,0.9-2.3,1.1-3.5C226.3,108.7,226,109.6,224.7,111.2z M226.1,107.5c-0.1-0.2-0.2-0.3-0.3-0.5
		c0.1-0.1,0.2-0.1,0.3-0.2c0.1,0.2,0.2,0.3,0.3,0.5C226.3,107.4,226.2,107.4,226.1,107.5z M226.5,101.5
		C226.5,101.5,226.5,101.5,226.5,101.5C226.5,101.5,226.6,101.5,226.5,101.5c0,0.3,0.1,0.4,0,0.5c0,0,0,0.1,0,0.1
		c-0.1,0.1-0.2,0.1-0.5,0.2c0,0,0,0,0,0c0,0,0,0,0,0c0.1-0.3,0.1-0.5,0.2-0.9c0,0,0,0,0,0c0,0,0,0,0,0
		C226.3,101.4,226.4,101.4,226.5,101.5c0.1,0,0.2,0,0.2-0.1c0-0.2,0-0.4,0-0.6l0,0v0c0.2,0.1,0.3,0.2,0.3,0.3c0,0-0.1,0.1-0.1,0.1
		C226.9,101.3,226.9,101.4,226.5,101.5z M226,42c-0.5,2.8,0.5,5.6,0,8.4c-0.2,1.3,0.4,2.6,0.3,3.9c0,0.5,0.5,0.9,0.5,1.4
		c0,0.2,0.2,0.4,0.2,0.7c0,0.2,0,0.4,0,0.7c-0.7,3-1.1,8.5-1.6,11.6c-0.2,1.3-0.4,4.6-0.6,6.6h0.4v0.1c0,0-1.1-2.8-1.5-2.9
		c-0.1-1.1-0.2-3.4,0.4-4.4c0.2-0.4,0.2-1.6,0.3-2.1c0.1-0.4,0.1-1.1,0.3-1.5c0.3-0.6,0-1.5,0.3-2.1c0.4-0.7,0.5-1.6,0.8-2.4
		c0.2-0.4,0.1-1,0.1-1.4c0-0.2-0.1-0.4,0-0.6c0.2-0.9,0.1-1.7-0.2-2.6c-0.5-1.6-3.5-3.4-3-5.1c0-0.2-2.5-0.3-2.5-0.7
		c0,0.9,0,1.5,0,2.2c0-0.2,3.2-0.3,3.2-0.4c0.1-0.4,1.5-0.9,1.6-1.3c0.2-0.8,1.1-1.6,1.3-2.4c0.2-0.6,0.8-1.2,0.9-1.8
		c0.3-1.2,0.7-2.5,1.1-3.7c0.1-0.3-2.6-0.6-2.5-0.9c0.1-0.4-2.6-0.9-2.6-1.4c0,0,0,0,0,0c0,0,0,0,0,0C223.1,40.5,226.1,41.3,226,42z
		 M229.4,84.5c-0.1-0.4,0-0.7,0.4-1C229.8,84.1,229.8,84.1,229.4,84.5z M230.1,82.2c-0.5-0.3-0.5-0.5,0-1.1c0,0.2-0.1,0.4-0.1,0.5
		C230.1,81.8,230.1,82,230.1,82.2z M229.7,57.6c-0.1,0-0.2,0-0.3,0c0-1.6,0.3-3.2,0.9-4.8c0.1,0,0.2,0,0.3,0
		C230.3,54.4,230,56,229.7,57.6z M230.2,74.8c0.3-0.4,0.4-0.9,1-1.1C231,74.8,231,74.8,230.2,74.8z M230,27.4
		c-0.5,1.9-0.9,3.9-1.4,5.8c-0.2-1.4,0.4-2.7,0.6-4c0.2-1.3,0.4-2.7,0.6-4c0.3-1.4,0.5-2.7,0.7-4.1c0.5,0.1,0.4,0.9,1.1,0.4
		C231,23.5,230.5,25.4,230,27.4z M232,30.6c-0.2-1.4-0.2-2.5,0.3-3.6c-0.2-0.2-0.4-0.3-0.5-0.4c-0.3-0.2-0.4-0.5-0.1-0.8
		c0.3-0.4,0.6-0.8,1-1.2c0.2-0.3,0.4-0.5,0.6-0.8c0.3,0.4,0.2,0.8,0.1,1.2c-0.5,1-0.5,2.1-0.4,3.2c0.1,0.6,0,1.1-0.3,1.5
		C232.4,29.9,232.3,30.2,232,30.6z M233.5,32.1c-0.3,0.8-0.6,1.7-0.9,2.5c-0.3-1.3,0.2-2.5,0.5-3.8
		C233.5,31.2,233.7,31.6,233.5,32.1z M234.2,19.3c0.2-0.5,0.3-1.1,1.2-1C234.9,18.7,234.5,19,234.2,19.3z M235.8,17.9
		c-0.1,0-0.2-0.1-0.2-0.2c0,0,0.1-0.1,0.1-0.1c0.1,0,0.2,0.1,0.5,0.2C235.9,17.9,235.8,18,235.8,17.9z M236.1,58.9
		c1,1.5,1.2,3.2,1.6,4.9C237.2,62.1,236.7,60.5,236.1,58.9z M242.9,85.4c-0.2-1-0.4-1.9-0.6-2.7c0.1,0,0.2,0,0.3-0.1
		c0.1,0.4,0.1,0.7,0.3,1.1c0.1,0.2,0.3,0.4,0.5,0.7C243.3,84.6,243.1,84.9,242.9,85.4z M243.8,86.6c0,0.2,0,0.4,0,0.6
		C243.3,87,243.6,86.7,243.8,86.6z M247.9,76.4c0.1,0.5,0.2,1,0.3,1.5c-0.1,0-0.2,0-0.3,0c-0.1-0.5-0.1-1-0.2-1.5
		C247.7,76.4,247.8,76.4,247.9,76.4z M247.1,73.6c0.1,0.3,0.2,0.7,0.2,1c-0.1,0-0.1,0-0.2,0c-0.1-0.3-0.2-0.6-0.3-0.9
		C247,73.7,247.1,73.6,247.1,73.6z M247.3,76.6c-0.1,0-0.1,0-0.2,0c0-0.3,0-0.6-0.1-1c0.1,0,0.1,0,0.2,0
		C247.2,75.9,247.3,76.3,247.3,76.6z M245.2,90c0.1,0,0.1,0,0.2-0.1c0.1,0.4,0.3,0.8,0.4,1.2c-0.1,0-0.2,0.1-0.2,0.1
		C245.5,90.8,245.4,90.4,245.2,90z M239.1,93.3c0-0.7,0-1.1,0-1.7C239.1,92.4,240.1,92.6,239.1,93.3z M245.9,104.1
		c-0.2-0.3,1.3-0.7,1.2-1c-0.1-0.2,0.7,3.5,0.7,3.2c-0.1-0.3,0.7,2.9,0.6,2.9c0,0,0,0,0,0c-0.1,0-0.1-3.9-0.2-3.9
		c-0.1,0-0.1-1.9-0.1-1.9c-0.3-0.6-0.7-2.2-0.7-2.9c0-0.1,0-0.7,0-0.8c0-0.1,0-0.4,0-0.5c0-0.5-0.2,3-0.4,2.6
		c-0.2-0.6-0.5,2.5-0.8,2.5c0.2,0,0.3,0,0.4,0c0,0-3.5-4.6-3.5-4.7c-0.2,0-4-4.2-4-4.3c0-0.7,0-1.3,0-2c0,0,3.7,0,3.7-0.1
		c0.5,0.7,2.7,1.4,2.7,2.3c0,0.8,1.4,1.5,1,2.3c0.1,0,0.6,3.4,0.6,3.4c0.1-0.1,0.6,3,0.7,3h0c0,0,0,0,0,0c0,0,0.1-3.3,0.1-3.3
		c0.7,1,0.5,0.6,0.7,1.7c0.1,0.3-3-0.2-2.9,0.2c0.2-0.2-2.7-1-2.7-1.1v0v0C245.1,102.6,246.3,103.3,245.9,104.1z M251.1,107.5
		c-0.2-0.4-0.4-0.8-0.6-1.2C251,106.6,251.2,107,251.1,107.5z M262.3,131.5c0.1,0,0.1-0.1,0.2-0.1c0.2,0.3,0.3,0.6,0.5,0.8
		C262.5,132.2,262.3,131.9,262.3,131.5z M265.4,133.6c-0.3-0.1-0.5-0.2-0.8-0.3c0-0.1,0.1-0.2,0.1-0.2c0.3,0.1,0.5,0.2,0.8,0.3
		C265.4,133.5,265.4,133.6,265.4,133.6z"/>
	<path fill="#FFFFFF" d="M80.9,100c0.1,2.1,0.2,4.2,0.4,6.3c0.2,2,0.4,4.1,0.6,6.1c0.3,2.4,0.7,4.8,1.1,7.2c0.3,1.7,0.6,3.3,1.2,4.9
		c0.5,1.3,1,2.6,1.5,3.8c0.7,2,1.7,3.9,2.8,5.8c0.3,0.6,0.7,1.1,1,1.6c1.1,2.4,2.7,4.4,4.3,6.5c0.6,0.7,1.3,1.4,1.9,2
		c1.4,1.4,3,2.7,5,3.3c1.8,0.5,3.7,0.8,5.6,0.7c1.5-0.1,2.8-0.5,4-1.2c0.1-0.1,0.2-0.1,0.3-0.1c1.8-0.7,3.3-1.9,4.5-3.3
		c1.1-1.3,2.2-2.7,2.4-4.5c0-0.3,0.2-0.7,0.4-0.8c0.5-0.2,0.6-0.6,0.9-1c0.4-0.5,0.8-1.1,1-1.8c0,0,0-0.1,0.1-0.1
		c0.4-0.4,0.6-0.8,0.7-1.3c0.1-0.2,0.3-0.4,0.4-0.6c0.4-0.7,1.2-1.2,0.8-2.2c-0.1-0.2,0.2-0.6,0.4-0.9c0.1-0.1,0.3-0.2,0.3-0.3
		c0-0.9,0.5-1.5,0.8-2.3c0.5-1.2,1.1-2.4,1.2-3.8c0-0.1,0-0.2,0.1-0.3c0.5-1.3,0.9-2.6,1.4-4c0.1-0.3,0.4-0.6,0.5-1
		c0.2-0.4,0.4-0.7,0.5-1.1c0.3-1.1,0.3-2.3,0.8-3.4c0.2-0.5,0.4-1.1,0.5-1.7c0.2-0.9,0.3-1.7,0.5-2.6c0.1-0.5,0.2-0.9,0.3-1.4
		c0.2-1,0.4-2.1,0.7-3.1c0.4-1.3,0.8-2.5,1-3.8c0.2-1.7,0.6-3.3,0.9-5c0.3-1.7,0.5-3.4,0.8-5.2c0.1-0.6,0.3-1.2,0.3-1.9
		c0-1.1-0.1-2.3,0-3.4c0.1-0.9,0.4-1.8,0.1-2.7c0-0.1,0-0.1,0-0.2c0.1-1,0.2-2,0.3-3c0-0.2-0.1-0.4-0.1-0.6c0-0.2-0.1-0.3-0.1-0.5
		c0.4-1.1,0-2.3,0.3-3.5c0.2-0.8-0.2-1.8-0.1-2.7c0-0.9-0.3-1.7-0.2-2.6c0-0.5-0.1-1.1-0.1-1.6c0-0.2,0-0.4,0.1-0.6
		c0-0.1,0.1-0.2,0.2-0.3c0.1-0.1,0-0.3,0-0.4c-0.1-0.3-0.1-0.6-0.1-0.9c0-0.3,0-0.6,0.1-0.9c0-0.3,0.1-0.6,0.1-0.9
		c0-0.1,0-0.3,0-0.4c0-0.1,0-0.3,0-0.4c0.1-0.2,0.2-0.5,0.2-0.7c0.1-0.2-2.5-0.5-2.5-0.7c0-0.2-2.6-0.3-2.6-0.5c0-0.2,0-0.3,0-0.5
		c0-0.3,2.6-0.7,2.6-1c0-0.2,1.3-0.3,1.4-0.5c0.1-0.4,0.5-0.8,0.6-1.2c0-0.2,0.4-0.3,0.4-0.5c0-0.3,0.2-0.6,0.2-1
		c0-0.2,0.1-0.3,0.1-0.5c0-0.3,0-0.6,0-1c0-0.3,0-0.6,0-1c0-0.8,0-1.7,0-2.5c0-0.8,0-1.7-0.1-2.5c0-0.3,0-0.5,0-0.8
		c0-0.3,0-0.5,0-0.8c-0.1-0.8-0.2-1.5-0.3-2.3c-0.1-2.2-0.1-4.4-0.2-6.6c-0.2-3.2-0.5-6.4-0.7-9.6c-0.2-2.4-0.6-4.8-1.4-7.1
		c-0.2-0.8-0.7-1.6-0.1-2.4c0,0,0,0,0-0.1c0,0,0-0.1,0-0.1c0,0,0-0.1,0-0.1c-0.1-0.4-0.2-0.8-0.3-1.2c-0.1-0.2-0.1-0.4-0.2-0.6
		c-0.1-0.2-0.1-0.4-0.2-0.5c-0.1-0.2-0.2-0.5-0.3-0.7c-0.4-0.7-0.8-1.3-1.2-2c-1.1-1.7-2.5-3-4.5-3.6c-0.1,0-0.3-0.1-0.4-0.1
		c-0.2-0.1-0.5-0.2-0.7-0.4c-0.1-0.1-0.2-0.1-0.4-0.2c-0.3-0.1-0.5-0.3-0.8-0.4c-0.3-0.1-0.5-0.2-0.8-0.3c-1.3-0.5-2.7-0.6-4.2-0.6
		c-0.3,0-0.6,0-0.9,0c-0.1,0-0.3,0-0.4,0c-0.1,0-0.3,0-0.4,0c-2.4,0.4-4.5,1.2-6.4,2.5c-0.6,0.4-1.2,0.9-1.8,1.4
		c-2,1.8-3.9,3.8-5.6,6c-1.6,2.1-3.2,4.2-4.4,6.5c-0.6,1.2-1.3,2.4-1.9,3.6c-0.7,1.4-1.5,2.8-2.1,4.2c-1,2.2-1.9,4.4-2.8,6.7
		c-0.4,1-0.9,2-1.3,3c-0.1,0.4-0.3,0.8-0.4,1.2c-0.2,0.8-0.5,1.6-0.7,2.4c-0.1,0.4-0.2,0.8-0.3,1.2c-0.2,0.8-0.5,1.7-0.7,2.5
		c-0.2,0.8-0.5,1.7-0.7,2.5c-0.4,1.3-0.7,2.6-1.1,3.9c-0.1,0.3,0,0.7-0.1,1c0,0.1-0.1,0.3-0.2,0.4c0,0.1-0.1,0.1-0.1,0.2
		c-0.1,0.5-0.2,1-0.3,1.5c-0.4,1.5-1,2.9-1.5,4.4c-0.6,1.7-0.8,3.5-0.9,5.3c-0.1,1.7-0.1,3.4-0.3,5.1c-0.1,0.6,0,1.2-0.1,1.7
		c-0.2,2.3-0.4,4.5-0.6,6.8c-0.1,1,0,2.1-0.1,3.1c-0.1,1.6-0.3,3.2-0.2,4.9C80.6,94.3,80.7,97.1,80.9,100z M119.6,42.8
		c0-0.3,0-0.5,0.1-0.9c0.6,0.4,0.3,0.6,0.2,0.9C119.8,42.8,119.7,42.8,119.6,42.8z M119.9,79.5c0-0.4,0-0.8,0-1.2
		c0.1-0.9,0.3-1.8,0.4-2.8C120.9,76.5,120.7,78.6,119.9,79.5z M120.5,75C120.5,75,120.5,75,120.5,75c0-0.3,0-0.7,0-1c0,0,0,0,0,0
		c0,0,0,0,0,0C120.5,74.3,120.5,74.7,120.5,75C120.5,75,120.5,75,120.5,75z M123.4,53.5c-0.2-0.3-0.4-0.4-0.6-0.7c0.3,0,0.4,0,0.5,0
		C123.7,52.8,123.7,53.1,123.4,53.5z M123.3,52.3c0-0.1-0.1-0.2-0.1-0.2c0.1-0.1,0.2-0.2,0.3-0.3c0.1,0.1,0.2,0.2,0.2,0.2
		C123.6,52.1,123.4,52.2,123.3,52.3z M123.5,51.6c-0.4-0.1-0.8-0.2-0.9-0.7c-0.1-0.5,0.1-0.9,0.4-1.3c0.2-0.2,0.4-0.5,0.6-0.7
		c0.1,0,0.1,0,0.2,0.1C123.2,49.9,124.2,50.8,123.5,51.6z M125,47.8c-0.2-0.7-0.5-1.4,0-2.1C125.1,46.4,125.4,47.1,125,47.8z
		 M124.2,33.1c-0.5,0-0.5-0.3-0.7-0.6C124.2,32.3,124.2,32.6,124.2,33.1z M123.6,30.3c0,0.4,0.1,0.7,0.1,1.1
		C123.3,30.9,123.3,30.9,123.6,30.3z M122.7,34.7c0-0.9,0.1-0.9,1-0.9c0.3,0,0.5,0,0.9,0c-0.1,0.8,0.4,1.5-0.2,2.2c0,0,0,0.1,0,0.1
		c0,0,0,0.1,0,0.1c0.1,0.5,0.3,0.9,0.3,1.4c0,0.5-0.1,1.1-0.1,1.6c0,0.3,0.1,0.5,0.2,0.8c0,0.1,0.1,0.2,0.1,0.3
		c-0.3,1.5-2,3.1-2.3,4.6c0,0-2.4,0.1-2.4,0.1v7.1c0,0,4.6,0,4.6,0c0-3-0.1-3.9-0.1-4c0.1-0.4,0.2-2.6-0.2-2.9c-0.1-0.1,0-1.3,0-1.7
		c-0.1,0.1-0.3-0.2-0.5-0.1c0,0-0.1-0.2-0.2-0.1c-0.2,0.1-3.4,0.1-3.5,0.2c0,0-3.1-0.1-3.1-0.1c0,0,0,5.7,0,5.7h6.1c0,0,0-2.8,0-2.9
		c0,0,0-1.4,0-1.4c0,0,0-0.7,0-0.6c0,0-3-0.3-3-0.2c0,0-3.1-0.4-3.1-0.5v0c0,0,3.1,0.1,3.1,0.1c0.2,0.5,1.9,0.9,2,1.3
		c0,0,0.9-0.1,1.1-0.2c0.1,0.7-2.7,0.7-3.3,0.8c0,0-2.8,0-2.8,0c0,0,0,0,0,0c0,0,3.2,0,3.2,0c-0.1-0.2,1.4-0.5,1.3-0.7
		c0,0,0.8,0,0.8,0c-0.1-0.4,0.4-0.9,0.4-1.3c0,0,0.2,0,0.2,0c0,0,0.1,0,0.1,0c-0.4-0.7-0.5-1.3-0.1-2c0.4-0.6,0.1-1.1-0.5-1.3
		c-0.2-1.2-0.4-2.4-0.6-3.7c1.3,0.6,1.1,1.7,1.3,2.7c0,0.2,0,0.4,0,0.6c0.1,0.5,0.3,0.9,0.5,1.4c0.1,0,0.1,0,0.2,0
		c0-0.3-0.1-0.6-0.1-1c0-0.3,0-0.7,0-1.1c0.1,0,0.3-0.1,0.5-0.1c-0.1-0.2-0.3-0.3-0.3-0.5c0-0.2,0.2-0.4,0.2-0.6
		c-0.5-0.4-0.4,0.3-0.7,0.4c-0.1-0.4-0.1-0.7-0.2-1.1c0-0.3-0.1-0.6-0.1-0.9c-0.1-0.5-0.3-0.6-0.8-0.4c-0.1-0.5-0.2-0.9-0.3-1.4
		C122.4,34.7,122.6,34.7,122.7,34.7z M121.6,24.6c0.2,0.3,0.3,0.4,0.5,0.7c-0.1,0-0.2,0.1-0.2,0C121.5,25.3,121.3,25.1,121.6,24.6z
		 M121,35.7c0.4,0.5,0.4,0.6,0.3,1.6C120.8,36.4,120.8,36.4,121,35.7z M119.7,20.8c0.2,0.1,0.4,0.3,0.6,0.4c0,0.1-0.1,0.1-0.1,0.2
		c-0.2-0.1-0.4-0.2-0.6-0.3C119.6,20.9,119.7,20.9,119.7,20.8z M119.6,35.3L119.6,35.3L119.6,35.3c0.3,0.5,0.6,1,0.5,1.6
		c-0.1,0.6,0.1,1,0.4,1.5c0.3,0.5,0.8,1,0,1.7c0.6,0,0.8,0.3,0.9,0.7c0.2,0.7,0.7,1.4,0.6,2.2c0,0.1,0.1,0.3,0.2,0.4
		c0.6,0.6,0.6,1.3,0.3,2.1l0,0c0,0,0,0,0,0c0,0,0,0,0,0c0,0,0,0,0,0c0,0,0,0,0,0c0.1,0.2,0.3,0.4,0.4,0.6c-0.1,0-0.1,0-0.2,0
		c-0.1,0-0.1,0-0.1,0c-0.1-0.1-0.1-0.2-0.1-0.3c0-0.1,0-0.2,0-0.2c0,0-2.6,0-2.6-0.1c-0.1,0.1-2.8,0.3-2.8,0.4c0,0,0,0,0,0
		c0,0,2.5,0.1,2.6,0.1c0,0.2,1.3,0.3,1.3,0.5c0,0.1,0.6,0.1,0.6,0.2c0.1,0,0.7,0,0.8,0c0,0,0.2,0,0.2,0c0.1,0.5-1.8,1.1-1.8,1.6
		c0,0-1.7,1.1-1.7,1.1c0,0,0,8,0,8s4.1,0,4.1,0c0.2,0-2.6-3.9-2.9-3.7c-0.2,0.2-3.2-4.2-3.2-4v0.1v0c0-0.6,2-1.2,1.9-1.9
		c-0.2-0.9,0.7-1.8,0.4-2.6c-0.1-0.2,0.6-0.5,0.7-0.7c0.4-0.6,0.9-1.3,0.7-1.8c-0.1-0.2,0.1-0.3,0-0.4c0-0.4,0.2-0.9-0.1-1.5
		c0,0.1,0,0.2,0,0.3c0,0.3,0,0.4-0.1,0.6c-0.1,0-0.1,0-0.2,0c-0.4-0.3-0.6-0.6-0.6-1.1c0-0.3,0-0.6-0.1-0.8c-0.1-0.4-0.2-0.7,0-1.1
		c0-0.1,0-0.1,0.1-0.2c0-0.2-0.1-0.5-0.1-0.7c-0.1-0.6-0.3-1.1-0.4-1.7C119.4,35.7,119.5,35.5,119.6,35.3z M115.2,34.2
		c-0.4,0.2-0.6,0.3-1,0.5C114.4,34.1,114.7,34.1,115.2,34.2z M110.3,23.3c0.2-0.2,0.3-0.5,0.5-0.9c0.6,1.1-0.4,1.2-0.7,1.8
		C109.8,23.8,110.1,23.6,110.3,23.3z M98.5,82c0.4-0.9,0.5-1.9,0.6-2.8c0-0.3,0.1-0.6,0.2-0.9c0.1-0.3,0.2-0.5,0.2-0.7
		c0-1.2,0.2-2.4,0.3-3.6c0-0.6,0.4-1.1,0.4-1.6c0-0.6,0-1.1,0-1.7c0.1-1.2,0.4-2.3,0.9-3.4c0.2-0.5,0.3-1,0.6-1.5
		c0.3-0.5,0.2-1.2,0.3-1.8c0.1-0.5,0.3-1,0.3-1.6c0.1-0.5,0.1-1.1,0.1-1.6c0-0.1-0.1-0.3,0-0.4c0.3-1.3,0.5-2.7,1.1-3.8
		c0.7-1.4,0.9-3,1.6-4.5c0.5,0,0.9,0,1.1-0.6c-0.4-0.8-0.3-1.6,0.1-2.4c0.3-0.5,0.6-1.1,0.8-1.6c0.9-1.8,1.8-3.7,2.7-5.5
		c0.3-0.5,0.6-0.9,1.1-1.1c1.4,0.6,2.4,1.6,3.3,2.8c1.4,2.2,2.1,4.7,2.4,7.3c0.3,2.9,0.4,5.9,0.6,8.8c0.1,1.5,0.2,3.1,0.3,4.6
		c0.1,1.3,0,2.7,0.1,4c0.1,2.2,0.2,4.4,0.2,6.6c0,1-0.2,2.1-0.3,3.1c0,0.4-0.1,0.8-0.1,1.2c0,2.2-0.5,4.4-0.8,6.6
		c-0.1,1-0.2,2.1-0.4,3.2c-0.4,2.3-0.8,4.7-1.2,7c-0.3,1.6-0.5,3.2-0.8,4.8c-0.2,1.3-0.7,2.6-0.8,3.8c-0.3,2.1-1,4.1-1.7,6.1
		c-0.6,1.6-1.1,3.1-1.7,4.7c-0.5,1.3-1,2.5-1.6,3.7c-0.2,0.3-0.2,0.9-0.7,0.9c-0.5,0-1.1-0.1-1.4-0.3c-0.6-0.5-1.2-1.2-1.7-1.9
		c-0.5-0.7-0.8-1.5-1.2-2.2c-0.9-1.3-1.4-2.8-1.7-4.4c-0.3-1.9-0.9-3.7-1.3-5.6c-0.2-0.8-0.6-1.5-0.4-2.4c0.1-0.3-0.1-0.7-0.2-1
		c-0.1-0.5-0.4-1-0.4-1.5c-0.1-1.2-0.2-2.4-0.3-3.5c0-0.5-0.2-0.9-0.3-1.4c-0.1-1.2-0.1-2.4-0.1-3.6c0-0.4,0-0.8-0.1-1.2
		c0-1.2-0.1-2.5-0.1-3.7c0-0.7-0.1-1.4,0-2.1c0.1-0.9,0.3-1.7-0.1-2.6C98.3,82.6,98.4,82.2,98.5,82z M93,60.5
		c0.2-0.9,0.5-1.7,0.8-2.5c0.8,0.4,0.7,0.4,0.6,1.1c-0.2,0.9-0.6,1.8-1.1,2.6c-0.1,0.1-0.1,0.3-0.1,0.5c0,0.5-0.1,0.9-0.8,1.1
		C92.3,62.2,92.8,61.4,93,60.5z M91.6,58.1c0.2,0.1,0.4,0.2,0.7,0.3c0.1,0.4,0.2,0.7,0.2,1.1c0,0.2-0.3,0.3-0.4,0.5
		c-0.3,0.6-0.5,1.1-0.7,1.7c-0.1,0.2-0.1,0.4-0.1,0.6c0,0.3,0.1,0.6-0.3,0.7c0,0-0.1,0.1-0.1,0.1c0.1,0.3,0.2,0.5,0.2,0.8
		c0,0.2-0.5,0.4-0.1,0.7c0.1,0.1,0,0.4,0,0.7c-0.2-0.2-0.2-0.3-0.3-0.4c-0.2,0.6,0.1,1.3-0.9,1.4c-0.2-0.7-0.3-1.4,0.4-2
		c-0.4-0.3-0.5-0.6-0.2-1c0.6-0.7,0.7-1.5,0.9-2.4C91,60,91.3,59.1,91.6,58.1z M89.6,58.7c0.1-0.2,0.2-0.3,0.4-0.4
		c0.5,0.7,0.5,1.3,0,1.9c-0.1,0.1-0.2,0.3-0.2,0.4c0,0.5,0,1-0.6,1.3c-0.2,0.1-0.4,0.5-0.6,0.7c-0.1,0-0.1,0-0.2-0.1
		c0-0.3,0-0.6,0.1-0.9c0.2-0.7,0.3-1.6,0.9-2.2C89.6,59.3,89.5,59,89.6,58.7z M88.6,59.1c0.1,0,0.2,0,0.2,0.1
		c-0.1,0.3-0.2,0.6-0.3,0.8c-0.1,0-0.1,0-0.2,0C88.5,59.7,88.6,59.4,88.6,59.1z M87.6,62.7c0.2,0.1,0.3,0.2,0.5,0.3
		c-0.2,0.3-0.4,0.5-0.5,0.8c-0.1,0-0.1,0-0.2,0C87.6,63.4,87.6,63.1,87.6,62.7z M82.1,62.7c0-0.5,0-0.9,0-1.2
		C82.1,61.8,82.1,61.9,82.1,62.7z M86.9,59.1c0.1,0,0.1,0,0.2,0c-0.1,0.3-0.1,0.6-0.2,0.9c-0.1,0-0.1,0-0.2,0
		C86.7,59.7,86.8,59.4,86.9,59.1z M86.6,60.4c0.1,0,0.1,0,0.2,0c-0.1,0.3-0.1,0.6-0.2,1c-0.1,0-0.1,0-0.2,0
		C86.4,61,86.5,60.7,86.6,60.4z M85.8,64.7c0.3,0.6,0.3,0.7-0.6,0.8C85.5,65.2,85.6,65,85.8,64.7z M83.9,67.6c0.1,0,0.2,0,0.3,0.1
		c-0.1,0.7-0.3,1.3-0.4,2C83.5,68.9,83.8,68.2,83.9,67.6z"/>
	<path fill="#FFFFFF" d="M65.3,82.4c0.2-1.6,0.6-3.1,0.9-4.7c0.1-0.4,0.1-0.8,0.1-1.1c0-0.1,0-0.3,0-0.4c0.1-0.7,0.2-1.5,0.4-2.2
		c0.1-0.7,0.3-1.5,0.4-2.2c0.2-1.2,0.3-2.3,0.5-3.5c0-0.4,0.1-0.8,0.1-1.2c0-0.5,0.1-0.9,0.1-1.4c0.1-0.9,0.1-1.9,0.2-2.8
		c0-0.5,0-0.9,0.1-1.4c0-0.1,0-0.2,0-0.3c0-0.1,0-0.2,0-0.3c0-0.2-0.1-0.4-0.2-0.6c-0.1-0.2-0.1-0.3-0.1-0.4c0-0.1,0-0.1,0.1-0.2
		c0-0.1,0.1-0.1,0.2-0.2c0,0,0.1-0.1,0.1-0.1c0-0.2,0-0.4,0-0.7c-0.1,0.1-0.2,0.2-0.2,0.3c0,0-0.1,0.1-0.1,0.1
		c0-0.5,0.1-0.9,0.1-1.3c0-0.1,0-0.3,0-0.4c0-0.2,0-0.3,0-0.5c0-0.3,0-0.7,0-1c0-0.8,0-1.6,0.1-2.5c0.2-1.3-0.1-2.5-0.2-3.7
		c-0.1-0.8-0.3-1.4-0.6-2.1c-0.2-0.4-0.3-0.8-0.4-1.2c-0.1-0.4-0.3-0.8-0.4-1.2c0-0.1,0-0.2-0.1-0.3c0-0.1,0-0.1,0-0.2
		c0-0.2-0.1-0.3-0.2-0.4C66,44,65.9,44,65.7,44c-0.2,0-0.4,0-0.5,0.1c-0.1,0.1-0.2,0.2-0.3,0.4c-0.1,0.1-0.1,0.2-0.2,0.3
		c0,0.1-0.1,0.1-0.1,0.2c-0.7,1.4-1.3,3-1.6,4.5c-0.1,0.3-0.1,0.7-0.4,0.8c-0.8-0.8-0.2-2.2-1.4-2.9c-0.1,0.1-0.1,0.2-0.2,0.3
		c-0.1,0.2-0.3,0.3-0.4,0.5c-0.1,0.1-0.1,0.2-0.1,0.3c-0.7,1.6-1.2,3.2-1.5,4.9c-0.1,0.5-0.2,1-0.4,1.7c-0.3-0.9-0.5-1.7-0.7-2.4
		c-0.3-0.9-0.8-1.7-0.7-2.8c0-0.1,0-0.3-0.1-0.4c-0.1-0.2-0.3-0.3-0.6-0.3c-0.3,0.3-0.5,0.6-0.8,1c-0.8-0.6-1.2-1.3-1.5-2.4
		c-0.3,0.5-0.5,0.8-0.7,1.2c-0.1,0.1-0.1,0.2-0.1,0.3c-0.1,0.4-0.2,0.9-0.3,1.3c-0.1,0.4-0.2,0.9-0.4,1.3c-0.5,1.3-0.7,2.6-0.9,3.9
		c-0.2,1.6-0.4,3.2-0.6,4.8c-0.3,1.9-0.7,3.7-1,5.6c-0.5,2.9-1,5.7-1.5,8.6c-0.2,1.2-0.3,2.3-0.4,3.5c0,0.4-0.1,0.8-0.1,1.2
		c0,0.4-0.1,0.8-0.1,1.2c0,0.4-0.1,0.8-0.1,1.2c-0.2,2.6-0.5,5.2-0.7,7.8c-0.1,1.3-0.2,2.6-0.3,3.9c-0.1,1.2-0.3,2.3-0.4,3.5
		c-0.1,0.8-0.1,1.6-0.2,2.4c-0.2,2.4-0.5,4.7-0.5,7.1c0,0.7,0,1.5,0,2.2c0,1.7-0.1,3.3-0.2,5c0,0.6-0.1,1.1-0.1,1.7
		c-0.1,1-0.2,2-0.3,3.1c-0.1,1-0.2,1.9-0.3,2.9c-0.1,1.4-0.2,2.9-0.3,4.3c-0.1,1.9-0.6,3.8-0.6,5.7c0,0.4,0,0.7-0.1,1.1
		c-0.1,1.3-0.4,2.6-0.4,3.9c-0.1,1.7,0,3.5-0.4,5.2c-0.3,1.4-0.4,2.9-0.7,4.3c-0.5,1.8-1.2,3.5-1.8,5.3c-0.7,1.9-1.4,3.8-2.1,5.7
		c-0.3,0.7-0.6,1.4-1.1,2c-0.2,0.2-0.3,0.3-0.5,0.5c-0.2,0.1-0.4,0.3-0.6,0.4c-0.1,0.1-0.2,0.1-0.3,0.2c-0.3,0.2-0.5,0.6-0.8,0.8
		c-0.1,0.1-0.1,0.1-0.2,0.2c-0.2,0.1-0.3,0.2-0.5,0.3c-0.1,0-0.2,0.1-0.3,0.1c-0.3,0.1-0.6,0.1-0.9,0.2c-0.3,0-0.7,0.1-1,0.1
		c-0.2-0.5-0.4-1.1-0.5-1.6c-0.2-0.5-0.3-1-0.6-1.4c-0.7-1.2-0.9-2.6-1.2-3.9c-0.1-0.4-0.2-0.9-0.4-1.3c-0.1-0.3-0.2-0.5-0.3-0.8
		c-0.3-0.8-0.5-1.7-0.7-2.5c-0.2-0.7-0.5-1.4-0.7-2.1c0-0.1-0.1-0.2-0.1-0.4c0-0.1,0-0.3,0-0.4c0-0.3,0-0.6-0.1-0.9
		c-0.1-0.9-0.3-1.9-0.4-2.8c-0.3-1.7-0.7-3.4-1-5.2c-0.3-1.8-0.6-3.5-0.9-5.3c-0.1-0.4-0.1-0.7-0.1-1.1c-0.1-1.1-0.2-2.2-0.3-3.4
		c-0.1-1.1-0.2-2.3-0.5-3.4c-0.2-0.7-0.3-1.3-0.4-2c-0.1-0.7-0.1-1.4-0.2-2c0-0.1,0-0.2,0-0.3c0-0.1,0-0.2,0-0.3
		c0-0.2-0.1-0.4-0.1-0.6c0-0.1-0.1-0.2-0.1-0.4c-0.1-0.6-0.3-1.2-0.4-1.8c-0.2-1.1-0.4-2.3-1.1-3.2c-0.1-0.2-0.2-0.4-0.3-0.5
		c-0.1-0.2-0.2-0.4-0.2-0.6c-0.1-0.2-0.1-0.4-0.2-0.6c-0.3-0.6-0.6-1-1.2-1.4c-0.1,0-0.1-0.1-0.2-0.2c0-0.3,0.1-0.6,0.1-0.8
		c-0.7-0.2-1.1,0.1-1.3,0.6c-0.2,0.4-0.3,0.8-0.4,1.3c-0.2,0.8-0.3,1.6-0.5,2.4c-1.6-0.4-2.4-1.7-3.7-2.4c-0.9,0.5-0.9,0.7-0.6,1.7
		c0.3,0.9,0.4,1.9,0.2,2.9c-0.2-0.1-0.3-0.2-0.3-0.4c-0.1-0.3-0.1-0.8-0.4-1c-0.5-0.5-0.8-1.2-0.9-1.9c-0.1-0.5-0.4-0.9-0.8-1.1
		c-0.7-0.4-1.3-0.8-1.2-1.7c-0.1,0-0.2,0-0.3,0.1c-0.2,0.1-0.4,0.1-0.5,0.2c-0.1,0.1-0.1,0.1-0.2,0.2c-0.2,0.2-0.3,0.4-0.4,0.7
		c0,0.1-0.1,0.2-0.1,0.3c-0.4,1.8-0.4,3.6-0.5,5.5c0,1.9,0.1,3.8,0.2,5.8c0,1.2,0.2,2.5,0.1,3.7c-0.1,2.1-0.3,4.2-0.5,6.3
		c-0.1,0.7-0.1,1.4-0.2,2.1c0,0.4-0.1,0.9-0.1,1.3c0,0.4,0,0.9,0,1.3c0,0.7,0.1,1.5,0.1,2.2c0,0.8,0,1.5,0,2.3c0,0.8,0,1.5,0,2.3
		c0,0.6,0,1.1-0.4,1.6c-0.3,0.3-0.3,0.6-0.1,1c0.2,0.3,0.2,0.6,0.3,0.9c0,0.1,0,0.2,0,0.3c0.2,1.7,0.4,3.4,0.6,5.1
		c0.1,0.6,0.2,1.1,0.3,1.7c0.1,0.3,0.1,0.6,0.1,0.9c0.1,0.6,0.1,1.3,0.2,1.9c0,0.3,0,0.6,0,1c0,0.4,0,0.8,0,1.2c0,0.4,0,0.8,0.1,1.2
		c0.1,0.8,0.2,1.6,0.3,2.4c0.3,1.6,0.7,3.2,1.2,4.7c0.3,1,0.8,1.9,1.2,2.8c0.7,1.8,1.6,3.5,2.5,5.2c0.2,0.4,0.5,0.8,0.7,1.2
		c0.1,0.2,0.2,0.4,0.3,0.6c0.1,0.2,0.2,0.4,0.2,0.7c0.1,0.3,0.2,0.6,0.3,0.9c0.3,0.8,0.7,1.6,1.2,2.3c0.9,1.3,2,2.6,3.1,3.6
		c0.7,0.6,1.5,1.2,2.3,1.8c0.5,0.3,0.9,0.6,1.4,0.9c0.7,0.4,1.4,0.9,2.1,1.3c0.7,0.4,1.4,0.8,2.1,1.3c0.3,0.2,0.6,0.3,1,0.5
		c1,0.5,2,0.9,3,1.3c1.2,0.4,2.4,0.7,3.6,1c0.8,0.2,1.7,0.3,2.6,0.2c1.1-0.2,2.3-0.4,3.3-1c0.9-0.5,2-0.9,2.9-1.5
		c0.9-0.6,1.7-1.4,2.4-2.3c1.2-1.5,2.3-2.9,3.6-4.2c0.4-0.5,0.8-1,1.1-1.6c0.7-1.5,1.3-3.1,2-4.6c0.8-2,1.6-4.1,2.4-6.1
		c1-2.4,1-4.9,1.8-7.3c0-0.1,0-0.1,0-0.2c0.4-2.3,0.7-4.5,1.1-6.8c0.2-1.3,0.5-2.5,0.7-3.8c0.4-2.3,0.9-4.6,1.3-6.9
		c0.1-0.4,0.3-0.7,0.3-1.1c0.1-1.4,0.2-2.8,0.6-4.2c0.1-0.5,0.2-1.1,0.2-1.6c0-0.5,0-0.9,0-1.4c0-0.5,0-0.9,0.1-1.4
		c0.2-1.5,0.6-3.1,0.6-4.6c0-0.9,0-1.9-0.1-2.8c0-0.8-0.2-1.6-0.1-2.4c0.1-0.7,0.1-1.5,0.2-2.2c0.1-0.7,0.2-1.5,0.2-2.2
		c0-0.5,0.2-1.1,0.2-1.6c0-0.3,0-0.6,0-0.9c0-0.2-0.1-0.5-0.2-0.7c-0.1-0.2-0.2-0.3-0.3-0.4c0-0.1,0-0.2,0-0.3
		c0.1-0.8,0.1-1.5,0.2-2.3c0.2-1.3,0.5-2.6,0.6-4c0.1-1.3,0.1-2.6,0.3-3.8c0.1-0.8,0.3-1.6,0.3-2.4c0-0.1,0-0.2,0-0.3
		c0-0.2,0-0.4,0.1-0.5c0-0.1,0-0.2,0-0.3c0-0.2,0-0.4,0-0.5c0-0.2,0-0.3-0.1-0.5c-0.5-1.3-0.4-2.7-0.2-4c0.2-1.2,0.4-2.4,0.3-3.7
		c0-0.2,0-0.5,0-0.7c0-0.2,0-0.5,0-0.7c0-0.1,0-0.1,0.1-0.2c0-0.1,0-0.1,0.1-0.2c0.1-0.1,0.1-0.2,0.2-0.3c0-0.1,0.1-0.2,0.1-0.3
		c0.1-0.4,0.2-0.9,0.2-1.3c0-0.2,0-0.4,0-0.7c-0.1-1.6,0.1-3.1,0.3-4.7c0.1-1.3,0.4-2.5,0.6-3.8C65.1,84.4,65.1,83.4,65.3,82.4z"/>
	<path fill="#FFFFFF" d="M298.1,211.8c-0.2,0.4-0.4,0.6-0.9,0.4c0-0.1,0-0.2-0.1-0.3c-0.1-0.9-0.2-1.7-0.3-2.6
		c-0.1-0.9-1.1-1.4-1-2.3c0-0.1-0.1-0.2-0.2-0.2c-0.8-0.3-1.3-0.9-1.8-1.7c0,0-0.1,0-0.2-0.1c-0.7,0.9-1.5,1.9-2.3,2.9
		c-0.2-0.2-0.4-0.3-0.6-0.4c-0.8-0.6-0.9-0.6-1.3,0.3c-0.2,0.3-0.4,0.7-0.7,0.7c-0.5,0.1-0.6,0.5-0.8,0.9c-0.3,0.7-0.5,1.3-0.8,2
		c-0.2,0.5-0.4,1-0.7,1.6c-0.2-1.1-0.4-2-0.5-2.9c-0.1-0.4-0.6-1-1-0.9c-0.5,0.1-1.1,0.2-1.5,0.7c-0.7,0.7-1.2,1.6-1.5,2.5
		c-0.5,1.5-1,3.1-1.3,4.7c-0.4,1.8-0.8,3.7-1.1,5.6c-0.3,1.6-0.6,3.3-0.9,4.9c-0.5,2.7-1,5.5-1.6,8.2c-0.3,1.5-0.7,3.1-0.9,4.6
		c-0.2,1.5-0.3,3.1-0.5,4.6c-0.2,1.9-0.6,3.8-0.8,5.7c-0.2,2.7-0.3,5.3-0.5,8c0,0.2,0,0.3,0,0.5c-0.2,2.1-0.4,4.2-0.6,6.3
		c-0.2,2.9-0.4,5.8-0.9,8.7c0,0.2-0.1,0.3-0.3,0.7c-0.6-1.2-1-2.1-1.5-3.1c0-0.1-0.1-0.2-0.2-0.2c-0.8-1.4-1.6-2.8-2.4-4.3
		c-0.4-0.7-0.5-1.5-0.9-2.1c-0.5-0.8-1-1.7-1.2-2.6c-0.5-2.2-1.3-4.3-2.6-6.1c-0.1-0.2-0.3-0.5-0.3-0.7c0.1-0.6-0.2-1.1-0.6-1.6
		c-0.3-0.5-0.5-0.9-0.6-1.5c-0.1-0.7-0.2-1.4-0.6-2c-0.3-0.5-0.5-1-0.7-1.5c-0.1-0.2-0.2-0.5-0.3-0.7c-0.9-1.7-1.6-3.4-2.5-5.1
		c-0.5-0.9-1-1.9-1.5-2.9c-0.4-1-1.1-2-1.7-2.9c-0.5-0.9-1.1-1.8-1.6-2.7c-0.5-0.9-0.9-1.8-1.4-2.7c-0.5-0.9-0.9-1.8-1.5-2.7
		c-0.4-0.8-1-1.5-1.4-2.3c-0.6-1-1-2.1-1.7-3c-0.8-1.2-1.6-2.5-1.9-3.9c-0.1-0.4-0.5-0.8-0.9-1.1c-0.6-0.5-1.2-0.9-1.8-1.3
		c-0.6-0.5-1.2-1-1.9-1.4c-1-0.7-1.9-0.5-2.6,0.5c-0.3,0.4-0.4,0.8-0.6,1.2c-0.5,1-0.6,2,0.3,2.9c-0.1,0.2-0.2,0.4-0.2,0.6
		c-0.3,1.7-0.5,3.4-1.3,5c-0.1,0.3-0.3,0.6-0.4,0.9c-0.7,2.1-1.2,4.3-1.4,6.6c-0.1,1.2-0.2,2.4-0.3,3.5c-0.1,1.1-0.1,2.1-0.2,3.2
		c-0.1,1.4-0.2,2.9-0.4,4.3c-0.1,1-0.5,2.1-0.6,3.1c-0.3,2.1-0.5,4.3-0.7,6.4c-0.1,0.7-0.1,1.5-0.1,2.2c0,0.7-0.1,1.4-0.2,2.1
		c-0.1,0.9,0,1.7-0.2,2.6c-0.2,1.1-0.5,2.3-0.7,3.4c-0.3,1.7-0.5,3.5-0.8,5.2c-0.4,2.7-0.7,5.3-1.1,8c-0.6,3.7-0.9,7.4-0.8,11.2
		c0,1.9,0,3.9,0,5.8c0,1.3,0,2.7,0,4c0,0.6,0.1,1.3,0.2,1.9c0.1,1.3,0.2,2.6,0.3,3.9c0,0.3,0.2,0.6,0.4,1c0.6-0.3,0.3-0.7,0.3-1
		c0.1-0.3,0-0.7,0.1-1c0.1,0,0.1,0,0.2-0.1c0,0.1,0.1,0.2,0.1,0.2c0,0.4-0.1,0.8,0,1.2c0.1,0.6,0,1.3,0.4,1.8
		c0.3,0.3,0.4,0.7,0.6,1.1c-0.4,0.3-0.7,0.5-0.9,0.7c0.2,1.2,0.3,1.2,1.3,1c0.1,0,0.2-0.1,0.3-0.1c0.6,0.4-2,0-1.8-0.4
		c0.9-0.1-1.3,0.7-1.3,1.3c0-0.4,0-0.6,0-0.7c0,0,5.9,4.4,5.9,4.4h0h0c0,0-2.9-2.2-2.9-2.2c0,0-2.9-2.2-2.9-2.2v0v0c0,0,0,0,0,0
		c-0.3-0.3,0-0.6,0-1.1c0,0,0,0,0,0c0,0,2.9,0,2.9,0c0,0.4,1.6,0.7,1.6,1.1c0.1,0,0.9-0.1,0.9-0.1c-0.1,0,0.2,0.1,0.2,0.1
		c0,0-2.8,0-2.8,0c0,0-2.7,0-2.7,0c0,0,0,0,0,0c0-0.1,3.1-0.1,3.2-0.2c0.1,0.3,1.7,0.6,1.9,0.9c0.1,0,0.9,0,1,0
		c0.1-0.6,0.6-1.1,0.8-1.6c0.8,0,1.7,0.1,2.4,0.1c0.2,0,0.4,0.1,0.2,0.3c0.1,0.1,0.3,0.2,0.3,0.2c0.4-0.4,0.8,0,1,0
		c0.7-0.5-0.2-1.5,0.8-1.9c0.2,0.2,0.4,0.4,0.6,0.5c1-0.6,0.9-1.6,1-2.6c-0.4,0-0.6,0.2-0.6,0.5c0,0.4-0.2,0.4-0.6,0.4
		c0.2-0.3,0.4-0.6,0.5-0.9c0.2-1,0.5-2.1,0.7-3.1c0-0.2,0.1-0.4,0-0.7c-0.1-0.5,0.2-1.1-0.1-1.6c-0.1-0.1,0.1-0.3,0.2-0.5
		c0.1-0.2,0.1-0.3,0.1-0.5c0-0.3,0-0.6,0-0.8c0.1-1,0.2-2,0.2-3c0-1,0.2-2,0.3-3c0.1-2.2,0.4-4.3,0.6-6.5c0.3-2.1,0.6-4.3,0.9-6.4
		c0.1-0.6,0.1-1.2,0.2-1.8c0.3-1.3,0.7-2.6,0.8-4c0.1-1.4,0.5-2.8,0.7-4.1c0.1-0.5,0.1-1,0.3-1.5c0.2-0.3,0.2-0.7,0.5-1.1
		c0.2-0.2,0-0.8,0-1.3c0,0,0.1-0.1,0.2-0.2c0.1,0.2,0.3,0.3,0.4,0.5c0.3,0.7,0.5,1.5,0.8,2.2c0.6,1.5,1.2,3,1.9,4.4
		c0.9,1.7,1.9,3.4,2.8,5.1c0.5,0.9,0.4,0.9-0.1,1.8c0.2,0.2,0.4,0.4,0.5,0.6c0.4,0.5,0.9,1,1.3,1.6c1,1.7,1.8,3.5,2.8,5.2
		c1,1.7,2,3.3,3,4.9c0.5,0.8,1.1,1.5,1.5,2.4c0.6,1.2,1.1,2.4,1.7,3.6c1.1,2.2,2.2,4.4,3.8,6.4c0.8,1,1.3,2.2,2,3.4
		c-0.4,0-0.7-0.1-0.9-0.1c0,0.3,0,0.5-0.1,0.8c0.4,0.2,0.9,0.4,1.3,0.7c0.2,0.1,0.5,0.3,0.7,0.5c1.3,1.4,2.9,2.5,4.6,3.2
		c0.9,0.4,1.9,0.8,3,0.6c0.1,0,0.3,0,0.4,0c1.7,0.1,3.7-0.7,3.9-2.8c0.1-0.9,0.6-1.3,1.5-1.4c0.2,0,0.4,0,0.5,0
		c0.4-0.9,0.8-1.7,1-2.5c0.4-1.1,0.7-2.3,0.9-3.4c0.2-1,0.4-2,0.5-3c0.2-1.5,0.3-2.9,0.5-4.4c0.1-1.1,0.4-2.2,0.5-3.3
		c0.2-1.6,0.4-3.2,0.4-4.8c0-2.2,0.6-4.2,0.8-6.4c0-0.5,0.3-1,0.4-1.5c0.1-0.5,0.3-1.1,0.2-1.6c-0.1-1.1,0.1-2.2,0.4-3.2
		c0.5-1.4,0.7-2.8,1-4.2c0.1-0.6,0.2-1.3,0.3-1.9c0.3-1.4,0.6-2.8,0.9-4.2c0.3-1.9,0.6-3.8,0.6-5.7c0-0.2,0-0.3,0-0.5
		c0.3-1.5,0.7-3,1-4.5c0.2-1.2,0.4-2.5,0.6-3.8c0.2-1.4,0.4-2.8,0.6-4.2c0.3-2.7,0.5-5.3,0.8-8c0.1-1.2,0.3-2.5,0.4-3.7
		c0.2-2.4,0.1-4.7,0.3-7.1c0.2-1.5,0.4-2.9,0.6-4.3c0.2-1.6,0.5-3.1,0.8-4.7c0.1-0.8,0.2-1.6,0.3-2.5c0.2-1.5,0.5-2.9,0.7-4.4
		C298.6,211.3,298.3,211.4,298.1,211.8z M230.2,300.6c0-0.3-0.1-0.7-0.1-1c0-0.1,0-0.2,0.1-0.3C230.8,299.8,230.8,299.8,230.2,300.6
		z M230.6,298.5c-0.6-0.6-0.5-1.2-0.4-1.7c0-0.3,0.2-0.5,0.7-0.3C230.9,297,230.8,297.6,230.6,298.5z M231.7,284.2
		c-0.1,1.5-0.3,3-0.4,4.5c-0.1,0.9,0,1.7-0.1,2.6c-0.1,1.2-0.2,2.5-0.4,3.7c0,0.2-0.2,0.3-0.2,0.5c-0.4-0.1-0.4-0.4-0.3-0.6
		c0.3-0.5,0.3-1.1,0.2-1.7c0-0.1,0-0.1,0-0.2c0.1-1.3,0.1-2.5,0.2-3.8c0.1-1.6,0.2-3.1,0.3-4.7c0-0.7,0.1-1.4,0.2-2.1
		c0-0.3,0.1-0.7,0.2-1c0.1,0,0.2,0,0.2,0C231.7,282.3,231.8,283.3,231.7,284.2z M239.4,309c-0.2-0.1-0.2-1.1,0-1.8
		c0.1,0.5,0.3,0.9,0.4,1.5C239.7,308.8,239.6,308.9,239.4,309z M240.1,305.6c-0.3-0.6-0.4-1.2-0.4-1.9c0.3-0.1,0.5-0.1,0.8-0.2
		c0-0.4-0.2-0.9-0.1-1.3c0.1-0.4,0-0.6-0.3-0.8c-0.1,0-0.1-0.4-0.1-0.6c0.7,0.2,0.8,0.3,0.8,0.9c0,0.4,0.1,0.7,0.1,1.1
		C240.9,303.9,240.9,304.8,240.1,305.6z M240.9,243.2c0,0.4,0,0.9,0,1.3c0,0.2,0,0.3,0,0.5c-0.4,0.7-0.3,1.5-0.3,2.2
		c0,0.6-0.3,1.2-0.7,1.6c0,0,0,0,0,0l0,0c0,0,0,0,0,0c-0.1,0.2-0.2,0.4-0.4,0.6c0-0.2,0-0.3-0.1-0.4c0-0.3,0.1-0.3,0.4-0.2
		c0,0,0,0,0,0c0,0,0,0,0,0c0-0.1-0.1-0.3-0.1-0.4c0,0,0,0,0,0c0,0,0-0.1,0-0.1c0,0,0,0,0-0.1c0,0,0,0,0-0.1c0,0,0,0,0,0
		c0-0.1,0-0.2,0.1-0.3c0,0,0.1-0.1,0.2-0.1c0.1-0.1,0.2-0.4,0.2-0.6c0-1.3,0.4-2.6,0.6-4c0-0.1,0.1-0.3,0-0.4
		c-0.4-1,0.3-1.9,0.2-2.9c0-0.1,0.1-0.2,0.3-0.2c0,0.4-0.2,0.8-0.1,1.1C241.5,241.5,241,242.3,240.9,243.2z M241.5,237.7
		c-0.4-0.7-0.3-0.9,0.3-1.5C241.7,236.6,241.6,237.1,241.5,237.7z M242.9,223.9c-0.1,0.4-2.8,0.8-2.9,1.2c-0.1,0-2.9,0-2.9,0
		c0-0.9,0-1.8,0-2.7c0,0,3.3,0,3.3,0.4C240.4,223.1,243,223.5,242.9,223.9z M249.2,258.6c0,0.3,0,0.5,0.1,0.8
		C248.7,259.1,248.6,258.9,249.2,258.6z M248.8,253.7c-0.1,0-0.1-0.2-0.1-0.3c0.1,0,0.3-0.1,0.4-0.1c0.1,0,0.1,0.2,0.2,0.4
		C249.1,253.7,248.9,253.8,248.8,253.7z M248.8,245c0.4,0,0.4,0,1.5,0.5c-0.2,0.4-0.4,0.8-0.5,1.2C248.7,246.1,248.6,246,248.8,245z
		 M250.2,255.9c-0.1-0.4,0-0.8,0-1.3c0.8,0.5,0.6,1.3,0.7,1.9C250.3,256.7,250.2,256.2,250.2,255.9z M250.8,237.4
		c-0.4-0.8-0.3-1.6-0.6-2.3C251,235.6,251.2,236.3,250.8,237.4z M254.6,249.1c-0.4-1.1-0.6-2.1-0.3-3.4
		C255,247,255.1,248,254.6,249.1z M256.4,251.8c-0.4-0.2-0.6-0.6-0.6-1c0-0.2,0.1-0.5,0.2-0.7c0.2-0.5,0.4-1.1-0.2-1.5
		c-0.1-0.1-0.1-0.4-0.1-0.5c-0.1-0.7-0.2-1.4-0.3-2.2c1,0.7,1.2,1.4,0.7,2.4c0.6-0.1,0.8,0.3,1,0.7c0.4,1,0.8,2.1,1.1,3.2
		c-0.1-0.1-0.2-0.2-0.3-0.4c-0.1,0.1-0.3,0.2-0.5,0.4c-0.1-0.4-0.1-0.6-0.1-0.9C256.8,251.4,256.8,252,256.4,251.8z M256.9,252.8
		c0-0.2,0.1-0.4,0.1-0.5c0,0,0.2,0,0.4-0.1c-0.2,0.3-0.3,0.5-0.4,0.7C257,252.9,256.9,252.8,256.9,252.8z M258,255.3
		c-0.5-0.5-0.8-1.1-0.9-1.5c0.3-0.5,0.5-0.9,0.7-1.3c0.2-0.3,0.3,0.5,0.6,0.1c0.2,0.3,0.3,0.5,0.5,0.8c0.3,0.5,0.5,1,0.8,1.5
		c0.1,0.1,0.1,0.2,0.1,0.3c-0.7,0.7-0.8,0.9-0.8,1.9C258.2,256.6,258.4,255.7,258,255.3z M260.6,260.6c-0.1-0.7-0.3-1.3-0.4-2
		c0-0.2,0,2.7,0.1,2.5c0,0,0,3.2,0,3.2h-0.1h-6V258c0,0,0,6.2,0,6.2s6.1,0,6.1,0c0,0-6.1-6-6.1-6v-0.1c0,0,3.1-0.1,3.1-0.2
		c-0.4-0.1,1.2,0.4,0.9,0.6c-0.2-0.3,0.4-0.6,0.2-0.9c0.5-0.5,0.9-0.8,0.7-1.6c0.1,0,0.4-0.1,0.4-0.1c0.2,0.2,0.6,0.4,0.6,0.6
		c0.1,0.4-2.9,0.9-2.9,1.4c0,0-3,0-3,0c0,0,0,0,0,0c0-0.1,3.3-0.1,3.5-0.2c0.2,0.5,1.9,1,2,1.5C259.9,259.9,261,260.2,260.6,260.6z
		 M261.6,261.9c-0.3-0.7-0.4-1.2-0.1-1.7C261.8,260.7,262,261.2,261.6,261.9z M256.1,264.7c0-0.4,0-0.8,0-1.3
		C259.1,263.9,259.1,264.3,256.1,264.7z M263.9,267.4c-0.2-0.4-0.5-0.8-0.8-1.2c0,0,0,0,0,0c0,0,0,0,0,0c-0.1-0.4-0.2-0.8,0-1.1
		c0,0,0,0,0.1-0.1c0.1-0.1,0.2-0.2,0.3-0.2c0.1,0.2,0.3,0.4,0.4,0.7c-0.2,0.3-0.5,0.5-0.7,0.7c0,0,0,0,0,0c0,0,0,0,0,0
		c0.2,0.1,0.5,0.1,0.7,0.3C264.2,266.8,264.2,267,263.9,267.4z M264.8,294.2c-0.4-0.3-0.6-0.6-0.5-1.1
		C264.8,293.4,265,293.6,264.8,294.2z M265,295c0-0.1,0-0.3,0-0.4c0.1,0,0.2,0,0.2,0c0,0.2,0.1,0.5,0.1,0.9
		C265.1,295.2,265,295.1,265,295z M269,277.8c0-0.1-0.4-0.2-0.6-0.3c0.1-1.2,0.1-1.2,0.6-1.4C269,276.6,269,277.1,269,277.8z
		 M271.3,281.2c0.1-0.4,0.1-0.6,0.2-1C271.9,280.7,271.8,281,271.3,281.2z M270,282.3c-0.3-0.5-0.3-0.5,0.2-1.2
		C270.7,281.6,270.1,281.9,270,282.3z M270.4,278.7c0.4,0.3,0.6,0.5,1,0.9c-0.2,0.2-0.5,0.5-0.8,0.8
		C270.5,279.8,270.4,279.3,270.4,278.7z M271.7,286.4c0,0-0.4,0-0.6,0.1c0-0.3-0.1-0.5-0.1-0.8c0.2-0.1,0.7-0.2,0.7-0.3
		C271.7,285.7,271.7,286,271.7,286.4z M272.6,286.5c-0.8-0.7-0.3-1.4-0.4-1.9c0.3-0.2,0.6-0.4,0.9-0.6
		C273.4,284.9,272.4,285.5,272.6,286.5z M278.8,304.5c-0.5-0.3-0.4-0.8-0.7-1.2c0.4,0,0.6,0,1-0.1
		C278.9,303.7,278.9,304,278.8,304.5z"/>
	<path fill="#FFFFFF" d="M156.6,159.7c0-0.2,0-0.3,0.1-0.5c0.1-0.9,0.4-1.9,0.4-2.8c0-1.8,0.6-3.6,0.8-5.4c0.1-0.5,0.3-0.6,0.7-0.5
		c0.2,0,0.4,0.1,0.6,0.2c0.1-0.5,0.2-0.9,0.3-1.4c0.2-1.4,0.4-2.8,0.6-4.2c0.2-1.3,0.6-2.5,0.7-3.7c0.2-1.6,0.6-3.2,0.9-4.8
		c0.3-1.4,0.7-2.8,0.9-4.2c0.3-1.5,0.4-3.1,0.6-4.7c0-0.2,0-0.5-0.1-0.7c-0.3-0.4-0.2-0.7-0.1-1.1c0.2-0.9,0.4-1.7,0.6-2.6
		c0.2-1.3,0.4-2.6,0.7-3.9c0.1-0.5,0.2-1.1,0.3-1.6c0.4,0,0.9-0.2,1.2-0.1c0.6,0.1,1.2,0.3,1.7,0.4c0.5,0.1,1.1,0.2,1.6,0.2
		c0.7,0,1.4-0.1,2.1,0.1c1.1,0.2,2.1,0.4,3.1-0.2c0,0,0.1,0,0.1,0c1.3-0.2,2.6-0.3,4-0.5c0.2,1.9,0.1,3.8,0,5.7
		c-0.1,1.2-0.2,2.4-0.3,3.6c0,0.4,0,0.8-0.1,1.2c-0.2,1.7-0.6,3.4-0.5,5.2c0,1.2-0.1,2.4-0.2,3.6c0,0.7-0.1,1.5-0.2,2.2
		c-0.1,1.2-0.2,2.4-0.3,3.6c-0.1,1.1-0.2,2.2-0.3,3.4c-0.1,0.7-0.1,1.5-0.2,2.2c-0.1,0.8-0.1,1.7,0.2,2.6c0.6-0.4,1.1-0.8,1.6-1.1
		c0.4,0.1,0.3,0.4,0.3,0.7c-0.1,0.8-0.1,1.6-0.2,2.5c-0.1,0.7,0.3,1.8,0.9,1.7c0.6,0,1,0.3,1.5,0.3c0.1-0.3,0.2-0.7,0.4-1
		c0.6,0.4,0.3,0.9,0.4,1.4c0.2-0.2,0.4-0.4,0.6-0.5c0.3-0.3,0.8-0.3,0.9-1c0-0.4,0.5-0.4,0.8-0.1c0.1,0.1,0.3,0.3,0.3,0.2
		c0.5-0.2,0.7,0.3,1,0.4c0.2-0.4-2.3-0.7-2.1-1.1c0,0-2.7,0-2.7,0.1c0,0.3,0,0.6,0,1.1c0-0.3,3-0.4,3.2-0.6c0.1,0.3,1.5,0.5,1.5,0.7
		c1.2-0.9,2.7-2,3.3-3.3c0.3-0.6,1.1-0.6,1.6-0.7c0.2,0,0.5,0,0.7,0c0-0.3,0.1-0.5,0.1-0.8c0-0.4-0.1-0.9,0-1.2
		c0.6-1.3,0.4-2.8,0.7-4.1c0.2-1.1,0.3-2.1,0.4-3.2c0.1-0.6,0.4-1.1,0.4-1.7c0.2-1.3,0.2-2.7,0.5-4c0.3-1.6,0.7-3.2,0.8-4.8
		c0.1-1.4,0.4-2.8,0.6-4.3c0.3-2.2,0.5-4.4,0.8-6.6c0-0.1,0.1-0.3,0.1-0.4c0.7-1,0.7-2.2,0.9-3.4c0.2-1.2,0.3-2.3,0.5-3.5
		c0.1-0.5,0.3-1,0.4-1.5c0.2-1.1,0.3-2.3,0.5-3.4c0.2-0.9,0.5-1.7,0.6-2.6c0.3-2.1,0.8-4.2,1.4-6.3c0.2-0.8,0.2-1.6,0.2-2.4
		c0-0.5-0.4-1.1,0.3-1.5c0.1,0,0-0.2,0-0.4c-0.1-1.8,0.4-3.4,0.7-5.1c0.4-2.4,0.8-4.9,1.2-7.3c0.4-2.3,0.4-4.7,1-7
		c0.1-0.5,0.2-0.9,0.3-1.4c0.1-0.5,0.1-1,0.2-1.4c0.1-0.7,0.2-1.5,0.3-2.2c0.1-0.7,0.2-1.4,0.4-2.2c0.4-1.9,0.8-3.8,1.2-5.6
		c0.2-1.2,0.3-2.4,0.6-3.5c0.1-0.5,0.3-1,0.4-1.5c0.2-1,0.3-2.1,0.5-3.1c0.1-0.5,0.1-1,0.2-1.6c0.2-1.3,0.4-2.6,0.5-3.9
		c0.3-2.5,0.8-5.1,0.7-7.6c0-0.3,0-0.6,0.1-0.9c0.2-0.9,0.5-1.7,0.6-2.6c0.1-0.9,0-1.8,0-2.8c-0.5-0.1-1-0.1-1.3-0.5
		c-0.3-0.3-0.8-0.3-1.2-0.1c-0.3,0.2-0.7,0.3-1.1,0.4c-0.2,0.5-0.3,1.1-1.1,1.1c-0.1,0-0.2,0.2-0.2,0.3c-0.7,1.6-1.1,3.2-1.2,4.9
		c-0.1,1.3-0.7,2.6-0.9,3.9c-0.1-0.4-0.1-0.7-0.1-1c0.1-1.3,0.2-2.6,0.3-3.9c0.1-0.6-0.2-1.2-0.6-1.6c-0.2-0.2-0.4-0.3-0.6-0.4
		c-0.1,0-0.2-0.1-0.3-0.1c-0.1,0-0.1,0.1-0.2,0.2c-0.1,0.1-0.1,0.1-0.2,0.2c-0.1,0.1-0.2,0.2-0.4,0.2c-0.9,0.2-1.1,0.3-1.3,1.2
		c-0.2,0.6-0.2,1.4-0.6,1.8c-0.4-0.5-0.7-0.9-1.1-1.3c-0.2-0.2-0.6-0.3-0.8-0.2c-0.9,0.3-1.9,0.4-1.8,1.7c0,0,0,0.1,0,0.1
		c-0.4,1.2-0.8,2.3-1.2,3.5c-0.1,0.2-0.1,0.3-0.1,0.5c0,0.2-0.1,0.3-0.1,0.5c0,0.2-0.1,0.5-0.1,0.7c-0.1,0.7-0.3,1.4-0.5,2
		c-0.4,1.4-0.6,2.8-0.8,4.2c-0.1,0.6-0.2,1.1-0.2,1.7c-0.1,0.6-0.2,1.1-0.3,1.7c-0.2,1-0.4,1.9-0.6,2.9s-0.4,1.9-0.6,2.9
		c-0.1,0.5-0.3,0.9-0.4,1.4c-0.4,1.4-0.9,2.7-1,4.1c0,0.9-0.2,1.8-0.3,2.6c-0.1,0.6-0.2,1.2-0.3,1.7c-0.1,0.6-0.3,1.2-0.4,1.7
		c-0.1,0.3-0.1,0.6-0.2,0.9c-0.4,1.8-0.9,3.6-1.3,5.4c-0.7,3.1-1.4,6.2-2.1,9.4c-0.2,1.1-0.3,2.3-0.6,3.4c-0.4,1.8-1,3.6-1.5,5.5
		c-1.7,0.4-3.5,0.6-5.3,0.7c-1.1,0-2.1,0-3.2,0c-1.3,0-2.6,0.2-3.8-0.3c0-0.3,0.1-0.6,0.1-0.8c0-1.6,0-3.2,0.2-4.9
		c0.2-1.7,0.3-3.4,0.7-5c0.2-1.1,0.6-2.2,0.2-3.2c-0.1-0.2-0.1-0.4-0.1-0.6c0-0.2,0-0.4,0-0.6c0-0.2,0-0.4,0-0.6c0-0.2,0-0.4,0-0.6
		c0-0.6,0.1-1.3,0.2-1.9c0.1-0.6,0.1-1.3,0.1-1.9c0-1.5,0.2-2.9,0.4-4.3c0.1-0.7,0.2-1.4,0.2-2.1c0-0.7,0-1.4,0.1-2.2
		c0.1-0.7,0.2-1.4,0.4-2.1c0.1-0.4,0.2-0.9,0.2-1.3c0.1-0.4,0.1-0.9,0.2-1.3c0.2-1.5,0.3-2.9,0.6-4.4c0.2-1.2,0.5-2.3,0.6-3.5
		c0.2-1.6,0.2-3.2,0.3-4.8c0.1-2.1,0.2-4.2,0.4-6.2c0-0.1,0-0.1,0-0.2c0-0.1,0-0.1,0-0.2c-0.8-0.1-0.9,0.8-1.5,1
		c-0.1-1.4-0.3-2.8-0.4-4.1c-0.1-0.6-0.3-1.2-0.8-1.3c-0.1-0.5-0.2-0.9-0.2-1.2c-0.8-0.4-1.3-0.1-1.8,0.3c-0.2,0.1-0.3,0.3-0.4,0.4
		c-0.1,0.2-0.2,0.3-0.2,0.5c0,0.1-0.1,0.2-0.1,0.3c0,0.2-0.1,0.4-0.1,0.6c0,0.1,0,0.2,0,0.3c-0.8,0-1.1,0.6-1.3,1.2
		c-0.2,0.8-0.5,1.6-0.8,2.3c-0.8-0.4-0.8-0.4-1.5,0.1c-0.1-0.1-0.3-0.3-0.3-0.4c0.1-0.3,0.3-0.6,0.5-0.9c-0.4-0.5-0.9-0.3-1.3,0
		c-0.4,0.3-0.8,0.5-1.2,0.8c-0.7-0.8-0.1-1.9-0.7-2.7c-1,0.3-1.4,0.9-1.6,1.7c-0.1,0.6-0.1,1.1-0.1,1.7c-0.1,0.7-0.2,1.3-0.2,2
		c-0.1,0.6-0.2,1.2-0.1,1.7c0.2,0.7,0.1,1.4-0.2,2.1c-0.4,0.8-0.6,1.7-0.6,2.6c0,0.4-0.2,0.7-0.2,1.1c-0.1,0.5-0.2,1-0.3,1.6
		c-0.1,0.5-0.2,1-0.2,1.6c-0.1,0.8-0.1,1.6-0.1,2.5c0,0.8-0.1,1.6-0.1,2.5c0,0.2,0,0.4,0,0.5c0,0.4,0,0.7,0,1.1c0,0.2,0,0.4-0.1,0.5
		c-0.3,2.4-0.7,4.9-1.1,7.3c-0.1,0.8-0.2,1.6-0.3,2.4c-0.2,1.2-0.4,2.3-0.6,3.5c-0.1,0.4,0,0.8-0.5,1.1c-0.1,0.1-0.2,0.3-0.2,0.5
		c-0.1,1-0.1,1.9-0.2,2.9c0,0.1-0.1,0.4,0,0.4c0.5,0.2,0.3,0.7,0.2,0.9c-0.3,0.6-0.3,1.2-0.4,1.9c0,0.2-0.1,0.3-0.1,0.5
		c-0.2,1.1-0.5,2.2-0.6,3.3c-0.1,1.2-0.3,2.3-0.7,3.5c-0.1,0.2-0.1,0.4-0.1,0.7c0.1,1.6-0.2,3.2-0.5,4.8c-0.2,1.2-0.6,2.3-0.8,3.4
		c-0.4,2.5-0.7,5-1,7.5c-0.1,0.5-0.2,1-0.2,1.5c0,1.5-0.1,3-0.6,4.4c-0.2,0.4-0.2,0.9-0.2,1.4c-0.2,1.5-0.3,3-0.6,4.5
		c-0.3,1.9-0.7,3.8-0.8,5.7c-0.2,2.6-0.6,5.1-1,7.6c-0.3,1.7-0.7,3.4-1,5.1c-0.3,1.8-0.6,3.5-1,5.3c-0.4,1.6-0.8,3.2-0.9,4.9
		c-0.1,0.9-0.2,1.7-0.5,2.5c-0.3,0.8-0.3,1.6,0,2.4c0.5,1.5,1,2.9,0.5,4.6c-0.3,1-0.3,2.1,0,3.2c0.4-0.3,0.8-0.4,1.1-0.7
		c0.3-0.3,0.3-0.8,0.6-1.1c0.3-0.3,0.8-0.4,0.8-0.9c0-0.1,0,3.3,0,3.3c0.1-0.2,0.1,2.9,0.2,2.9c0.5,0,0.9,0,1.4,0
		c0.1,0,0.2-2.9,0.1-2.6c-0.2,1.3,0.3,0.4,1.7,0.7c0.3-0.3,0.5-1.5,0.7-1.6c0-0.7-0.1-1.8,0-2.3c0.2-1,0.4-2.2,0.6-3.1
		c0.4-1.7,0.9-3.5,1.4-5.3c0,0,0.1-0.1,0.1-0.1c0,0.1,0.1,0.2,0.1,0.3c-0.1,1-0.2,1.9-0.3,2.8c-0.3,2.5-0.5,5-0.8,7.4
		c-0.1,0.6,0,1.2,0.8,1.5c0.4-0.4,0.7-0.8,0.8-1.4c0-0.3,0.1-0.7,0.2-0.9c0.3-0.3,0.3-0.7,0.4-1.1c0.2-1.5,0.4-2.9,0.6-4.4
		c0.1-0.4,0-0.8,0.6-1.2c-0.1,0.8-0.1,1.6-0.2,2.3c0,0.9-0.1,1.9,0,2.8c0,0.5,0.1,1,0.6,1.3C156.3,161.7,156.7,160.8,156.6,159.7z
		 M180.1,99.6c0,0.3,0,0.6,0,0.9C176.1,100.2,176.1,100,180.1,99.6z M170.6,58.3c0.1,0,0.2,0.1,0.3,0.1c-0.1,0.4-0.3,0.8-0.4,1.3
		C170.4,59.1,170.1,58.6,170.6,58.3z M157,88.6C157,88.6,157.1,88.6,157,88.6c0.1,0.2,0.1,0.3,0.1,0.5c-0.1,0-0.1,0-0.2,0
		C156.9,88.9,157,88.8,157,88.6z"/>
	<path fill="#FFFFFF" d="M229,172.2c0-0.1,0-0.2,0-0.3c0-0.1,0,3.6,0,3.4c-0.2-0.1-0.4,3.9-0.6,3.9c0,0,0,0,0,0
		c-0.1,0-0.1-3.9-0.2-3.9c-0.1-0.1-0.2-2.1-0.2-2.3c0.9-0.1,1.5-1.6,1.8-2.4c-0.6-0.5-1.6-0.4-2.1-1.2c0.2-0.3,0.8-0.6,0.4-1.1
		c0.2-0.3,0.5-0.6,0.7-0.9c0.1-0.2-0.3-0.6,0-0.9c0.1-0.1-0.1-0.6-0.3-0.8c-0.4-0.4-0.6-0.6-0.7-0.9c0-0.1-0.1-0.3-0.2-0.3
		c-0.4-0.1-0.8-0.2-1.3-0.4c0.4,0.7,1.5,0.4,1.2,1.5c-0.4-0.1-0.7-0.2-1.1-0.3c-0.4-0.1-0.7,3.5-1.1,3.4c-0.4,0-0.8,3.7-1.1,3.7
		c-0.3,0-0.7,0-1,0c0.6,0,1.3-3.5,1.9-3.3c0.6,0.2,1.3-1.6,1.8-1c-0.6,0-1-0.9-1.5-0.8c0.2,0.3,0.3-0.1,0.4,0.2
		c-0.6-0.1-1-0.3-1.5-0.5c-0.4-0.1-0.7-0.2-1.1,0l0,3.2c0,0,0,3.2,0,3.2c0,0,0,0,0,0c0,0,0-3.3,0-3.3c0,0.7,0.8-1,1.2-0.4
		c-0.5,0.1-0.8-0.6-1.1-0.6c-0.2-0.3-0.3-0.9-0.5-1.3c-0.2,0.3-0.4,0.4-0.7,0.7c0.6,0.4,1.3-0.1,1.9,0.1c-0.1,0.4-0.3,0.5-0.8,0.4
		c-0.4,0-0.8,0-1.3,0.3c-0.8,0.6-1.7,1.1-2.7,0.8c-0.5,0.3-0.9,0.7-1.3,0.9c-0.4,0.2-0.9,0.6-1.5,0c0,0.7-0.5,0.5-1,0.6
		c0-0.4-0.1-0.9-0.1-1.5c0.6,0.2,1,0.4,1.5,0.6c0.2-0.4,0.1-0.7-0.3-0.9c0.1-0.7,0.9-0.3,1.2-0.8c-0.2-0.1-0.4-0.1-0.7-0.3
		c0.7-0.6,1.5-0.7,2.4-0.6c0.2-0.3,0.4-0.6,0.6-1c-0.1,0-0.2-0.1-0.4-0.1c0.4-0.5-1-0.5-0.6,0.1c0.9,0-3.1-0.2,0.9-0.6c0,0,0,0,0,0
		c0,0.1,1.1,0.1,0.9,0.1c-0.2,0,0.4,0,0.1-0.1c0.2,0.1,0.8,0.1,1.1,0.1c-0.2,0-2.6,0-2.8-0.1c-0.4-0.1-3.3-0.3-3.3-0.5
		c0,0,0,7.1,0,7.1s4.8,0,4.8,0c0,0,0-3.6,0-3.6c0,0,0-1.8,0-1.8c0,0,0,2.7,0,2.7c0,0,0,2.7,0,2.7c0,0-0.6,0-0.6,0l0,0
		c0,0,0.6,0,0.6,0h0h0h-4.8v-6.9c0,0,0-0.1,0-0.1c0,0,2.4,3.5,2.4,3.5l2.4,3.5h0h-4.8v-6.9c0,0,2.4-0.4,2.5-0.4
		c0.3-0.1,1.7-0.2,2-0.3c0.3-0.1,1.1-0.4,0.9-0.7c-0.2-0.1-0.1-0.3-0.3-0.4c-1.1,0.5-2.2,0.2-3.5,0.9c0.7-0.1,1.2-0.1,1.7-0.2
		c-0.7,0.4-1.4,0.7-2.1,0.9c-0.6,0.2-1.2,0.3-1.8,0.5c0,0-0.1,0-0.1,0c0,0,0,0,0,0c0,0,0,0,0,0c0,0,0,0-0.1,0c0,0,0,0,0,0
		c0,0,0,0,0,0c0,0,0,0,0,0c0,0,0,0,0,0c0,0,0,0,0,0c0,0,0,0,0-0.1c0,0-3.5,0-3.5,0c0,0-3.5,0-3.5-0.1c0,0,0,0,0,0
		c0,0,3.5,3.5,3.5,3.4c0,0,3.5,3.5,3.5,3.5c0,0,0,0,0,0c0,0,0,0,0,0c0,0-0.1-3.5-0.1-3.5c-0.2,0-0.5,1.9-0.7,1.9
		c0-0.1-0.1,1.6-0.1,1.6h-6.1c0,0,0-7.1,0-7.1c0,0,3.5,0,3.8,0c0,0,1.7,3.5,1.7,3.5l1.5,3.5h0c0,0,0-3.5,0-3.5
		c0.1,0,0.1-1.8,0.2-1.8c0.1,0,0.2-0.9,0.4-0.9c0.1,0,0.1-0.5,0.2-0.5c0.1,0,0.2-0.3,0.3-0.3c0.1,0,0.2-0.2,0.3-0.2
		c0.1,0,0.2-0.1,0.3-0.1c0.2-0.1,0.3-0.2,0.5-0.2c0.3-0.6,0-1-0.2-1.3c-0.1-0.2-0.5-0.3-0.8-0.2c-0.5,0-1,0.1-1.5,0.2
		c-3.2,0.5-6.3,1.3-9.4,2.2c-1.8,0.6-3.4,1.5-5.3,1.5c-0.1,0-0.1,0-0.2,0.1c-0.4,0.6-0.9,0.6-1.5,0.3c-0.1,0-0.3,0-0.4,0.1
		c-0.6,0.3-1.2,0.6-1.8,0.9c-0.5,0.3-1,0.5-1.5,0.8c-1.3,0.7-2.8,0.7-4.1,1.2c-2.2,0.8-4.5,1.4-6.8,2c-1.8,0.5-3.6,1-5.4,1.5
		c-1.7,0.5-3.3,1-5,1.4c-2.3,0.6-4.5,1.1-6.8,1.7c-0.2,0.1-0.6,0.2-0.6,0.3c-0.1,0.6-0.7,0.9-1,1.4c-0.1,0.2-0.2,0.5-0.3,0.7
		c-0.2,1.9-0.4,3.8-0.5,5.7c-0.1,1.3,0,2.6-0.1,3.9c-0.1,0.7-0.3,1.4-0.4,2.2c-0.3,1.9-0.5,3.7-0.8,5.6c-0.1,0.7-0.3,1.4-0.4,2.1
		c-0.3,2.5-0.6,5-0.8,7.5c-0.1,0.6,0,1.2-0.1,1.8c-0.3,2.2-0.5,4.3-0.4,6.5c0,0.5-0.1,1.1-0.2,1.6c-0.1,0.5-0.4,0.9,0,1.4
		c0.1,0.1,0,0.2,0,0.4c-0.1,0.7-0.1,1.4-0.2,2.1c-0.1,1.4-0.3,2.7-0.4,4.1c-0.1,1-0.1,2-0.3,3.1c-0.2,1.8-0.4,3.6-0.6,5.4
		c-0.1,1.2-0.2,2.5-0.3,3.7c-0.1,0.8-0.2,1.6-0.3,2.4c-0.1,1-0.3,2.1-0.4,3.1c-0.1,1.7-0.1,3.5-0.3,5.2c-0.3,2.8-0.8,5.6-1.3,8.4
		c-0.5,3.4-0.8,6.7-1,10.1c-0.1,2.5-0.1,4.9-0.2,7.4c0,1.2-0.1,2.4,0.1,3.6c0.1,0.8,0,1.6,0,2.4c0.1,0.8,0.3,1.6,0.1,2.5
		c-0.1,0.3,0.2,0.5,0.7,0.3c1.4-0.6,2.9-0.7,4.4-0.7c0.6,0,1.1-0.1,1.7-0.2c0.6-0.1,1.1-0.1,1.6,0.3c2.1,1.4,4.5,1.4,6.8,1.3
		c0,0,0.1,0,0.1,0c1.2-0.3,2.4-0.6,3.5-1.1c1.2-0.5,2.3-1.3,3.5-1.9c0.4-0.2,0.8-0.5,1.4-0.5c1.1,0,2.3-0.2,3.4-0.3
		c1.2,0,2.3-0.7,3.5-0.6c0.1,0,0.2,0,0.3-0.1c1.4-0.8,3-0.4,4.4-0.9c1-0.3,2-0.5,3-0.8c0.6-0.1,1.3-0.2,1.9-0.3c0.3,0.5,0.6,0.2,1,0
		c0.8-0.4,1.7-0.6,2.6-0.6c0.4,0,0.7-0.1,0.9-0.3c0.4-0.3,0.8-0.6,1.3-0.2c0.1,0.1,0.4,0,0.6-0.1c1-0.5,1.8-1.3,3-1.7
		c0.6-0.2,0.7-0.4,0.6-1.1c-0.1-0.3-0.1-0.6-0.2-0.8c1.3-0.5,2.5-1,3.7-1.5c0.3-0.1,0.4-0.4,0.7-0.7c0.2-0.2-1.5-0.5-1.3-0.7
		c0.3-0.2-4-0.4-1-0.6c0-0.8,0-1.6,0-2.4c-3-0.2,1.5-0.7,1.6-0.8c0.2-0.5,0.7-0.7,0.8-1c0.1-0.3,0.8-0.6,1-0.9c0,0,0.2-0.1,0.2-0.2
		c0.3-0.6,0-1-0.1-1.5c-0.1-0.6,0.1-0.7,0.7-0.8c0.1,0,0.3-0.1,0.3-0.2c0.3-0.3,0.6-0.5,0.8-0.8c0.3-0.5,1-0.8,0.5-1.7
		c-1,0-2.1,0.1-3.1,0.3c0.2-0.5,0.5-0.9,0.6-1.3c0.2-0.8,0.1-0.9-0.7-0.7c-1.8,0.4-3.5,0.9-5.3,1.4c-3.6,0.9-7.3,1.9-10.9,2.8
		c-1.3,0.3-2.6,0.7-3.9,0.9c-1.3,0.1-2.5,0.7-3.9,0.7c0,0-0.1,0-0.1,0c-0.4,0.6-1.2,0.3-1.7,0.6c-0.1,0.1-0.3,0-0.4,0
		c0.1-0.6-0.3-0.3-0.5-0.2c-0.6,0.1-1.2,0.8-1.9,0.4c0,0-0.1,0-0.1,0c-1.6,0.4-3.1,0.8-4.7,1.2c-1.6,0.4-3.3,0.9-4.9,1.3
		c-0.2,0-0.4,0-0.6,0c0.1-0.3,0.2-0.7,0.3-0.7c0.6-0.2,0.5-0.6,0.5-1c0-0.4-0.1-0.9-0.2-1.3c0-0.3-0.1-0.7-0.1-1
		c0.1-0.9,0.3-1.7,0.5-2.6c0.3-1.4,0.7-2.9,1-4.3c0.2-0.7,0.3-1.5,0.4-2.3c0.1-0.7,0.3-1.3,0.4-2c0.2-1.4,0.3-2.7,0.5-4.1
		c0-0.2,0-0.4,0-0.7c-0.2-1-0.5-2-0.6-2.9c-0.1-0.3,0-0.6,0-0.9c0.2-0.1,0.4-0.2,0.6-0.2c1.1-0.2,2.1-0.4,3.2-0.5
		c0.9-0.1,1.7-0.3,2.6-0.4c0.4,0,0.8,0.1,1.2,0c0.7-0.1,1.3-0.2,1.9-0.4c0.6-0.2,1.2-0.1,1.8-0.5c0.6-0.4,1.5-0.1,2.1-0.7
		c0.1-0.1,0.3,0,0.4,0c0.3,0.2,0.6,0.1,1,0c0.9-0.2,1.8-0.1,2.6-0.6c0.1,0,0.2,0.1,0.3,0.1c0.8-0.1,1.5-0.1,2.2-0.5
		c0.4-0.3,1-0.8,1.7-0.4c0,0,0.1-0.1,0.2-0.1c0.8-0.2,1.6-0.8,2.5-0.7c0.2,0,0.4-0.1,0.7-0.2c1.2-0.4,2.5-0.8,3.8-1.2
		c0.3-0.8-0.7-1-0.9-1.6c0.3-0.2,0.6-0.5,0.9-0.6c0.5-0.1,0.6-0.4,0.6-0.8c0-0.5,0.2-0.9,0.7-1.2c0.5-0.4,1.1-0.4,1.5-0.9
		c0,0,0-0.1,0.1-0.1c-0.1-0.1-0.2-0.1-0.4-0.2c0.6-1.1,1.2-2.2,1.9-3.2c0.2-0.4,0.3-0.7,0.2-1c-0.3,0.1-0.5,0.2-0.8,0.3
		c0,0-0.1-0.1-0.2-0.1c0.1-0.1,0.2-0.3,0.3-0.4c-0.4-0.3-0.9-0.7-1.2-0.9c0.2-0.4,0.3-0.7,0.4-1.1c-0.7,0-1.2,0-1.8-0.1
		c-0.3,0-0.7-0.1-1-0.3c-0.4-0.4-0.9-0.5-1.4-0.5c-1.9,0.1-3.8,0.1-5.7,0.2c-0.8,0-1.5,0.2-2.3,0.2c-0.3,0-0.6,0.1-0.8-0.1
		c-0.7-0.5-1.5-0.7-2.3-1.1c-0.6-0.3-1.2-0.4-1.9-0.1c-0.3,0.2-0.6,0.3-1,0.4c-2,0.5-2,0.4-3.8,1.9c-0.1,0.1-0.4,0.3-0.5,0.2
		c-0.4-0.2-0.6-0.4-1,0c-0.2,0.2-0.7,0.3-1,0.4c-0.2,0.1-0.3,0.1-0.5,0.2c-1.1,0.1-2.3,0-3.4,0.5c-0.1,0-0.3,0-0.3,0
		c-0.7-0.4-1.1,0-1.6,0.6c-0.2-1.1-0.5-2.1-0.3-3.2c0.1-0.7,0.2-1.3,0.2-2c0-0.8-0.1-1.6-0.1-2.5c0-0.3,0-0.7,0.2-0.9
		c0.4-0.5,0.3-1.1,0.4-1.6c0.1-0.5-0.2-1.1,0.3-1.6c0.1-0.1,0.1-0.5,0.1-0.7c0-0.7-0.1-1.3-0.1-2c0.1-1.2,0.6-2.5,0.4-3.7
		c0-0.3,0.2-0.6,0.2-0.8c-0.1-0.4-0.1-0.7,0.3-0.9c-0.1-0.3-0.4-0.5-0.4-0.7c0-1,0-2.1,0.1-3.1c0.2-1.8,0.2-3.6,0.3-5.4
		c0.1-1.7,0.3-3.3,0.4-5c0-0.2,0.1-0.3,0.1-0.5c0.1-0.3,0.3-0.5,0.6-0.6c1.7-1,3.6-1.1,5.3-1.8c0.1,0,0.1,0,0.2,0
		c0.7-0.2,1.4-0.2,1.9-0.5c0.7-0.4,1.5-0.5,2.3-0.6c0.4-0.1,0.9,0.1,1.1-0.5c0.4,0.2,0.6-0.8,1-0.1c0.1,0,0.2-0.1,0.2-0.1
		c0.1-0.2,0.3-0.1,0.5,0c1,0.3,1.9,0.1,2.6-0.7c0.5-0.5,1-1,1.8-1c-0.2,0.4-0.5,0.7-0.8,1.3c1.2-0.3,2.1-0.9,2.8-1.6
		c0.1,0.2,0.3,0.4,0.4,0.7c0.3-0.4,0.5-0.8,0.8-1.2c0.1,0.2,0.1,0.3,0.2,0.4c0.4-0.2,0.9-0.4,1.4-0.7c-0.1,0.6-0.2,1-0.3,1.4
		c0.1,0,0.1,0.1,0.2,0.1c0.6-0.8,1.1-1.6,1.7-2.4c0.1,0.2,0.2,0.3,0.2,0.5c0.3-0.2,0.6-0.4,0.9-0.5c0.1,0.1,0.2,0.2,0.3,0.3
		c0.1,0.1,0.2,0.2,0.4,0.3c-0.1,0.2-0.2,0.4-0.3,0.5c0.3-0.1,0.5-0.2,0.6-0.4c0.1-0.2-0.1-0.4-0.2-0.7c0.4,0.2,0.8,0.4,1.1,0.6
		c0-1.4,0-1.4,1.1-1.4c-0.1,0.6-0.2,1.1-0.3,1.7c0,0,0.1,0.1,0.1,0.1c0.6-0.7,1.1-1.3,1.8-2c0.1,0,0.3,0,0.4,0
		c0.1-0.6,0.6-0.2,0.8-0.5c0.1,0.4,0.1,0.8,0.3,1.3c0.3-0.4,0.5-0.5,0.6-0.7c-0.2-0.2-0.4-0.4-0.6-0.6c0.3-0.2,0.5-0.4,0.8-0.5
		c0.3-0.1,0.6,0,0.9-0.1c0,0.3,0.1,0.6,0.1,0.8c0.5-0.8,1.2-1.3,2.1-1.4c0.9-0.2,1.8-0.3,2.6-1c0.2-0.1,0.6,0,0.8-0.1
		c0.2-0.1,0.4-0.4,0.5-0.7c0.1-0.2-0.1-0.5-0.1-0.7c0.4-0.4,0.8-0.8,1.3-1.3c-0.3,1.1-0.8,2.1-0.4,3.3c0.4-0.4,0.8-0.7,1.1-1
		c0,0.1,0.1,0.2,0.2,0.3c0.2-0.5,0.5-1.1,0.7-1.6c0-0.1,0.1-0.2,0.1-0.3c0-0.1,0-0.2,0.1-0.3c0,0,0,0,0,0c0,0,0,0,0,0c0,0,0,0,0,0
		c-0.1,0-0.2,0.1-0.3,0.2c-0.1-0.2-0.2-0.4-0.2-0.6c0.3-0.1,0.5-0.2,0.8-0.4c-0.1,0.4-0.2,0.6-0.3,0.8c0,0,0,0,0,0c0,0,0,0,0,0
		c0.1,0,0.2,0,0.3-0.1c-0.1,0.7-0.2,1.3-0.4,2.1c0.4-0.4,0.6-0.6,0.9-0.8c0.1-0.1,0.2-0.1,0.2-0.1c0.4,0.5,0.6,0.2,0.8-0.2
		c0.1-0.1,0.2-0.2,0.3-0.3c0.2,0.1,0.3,0.2,0.4,0.2c0.5-0.6,1.3-1,1.3-1.9c0.7-0.3,1.4-0.6,2-0.9c0.1,0,0.2-0.2,0.2-0.3
		c0.3-0.7,1.3-0.9,1.5-1.7c0-0.1,0.3-0.2,0.4-0.2c0.2-0.1,0.4-0.2,0.5-0.2C228.8,172.5,229,172.4,229,172.2z M229.3,169.6
		c0,0.1,0,0.1,0.1,0.2c-0.2,0.1-0.5,0.1-0.7,0.2c0,0,0-0.1,0-0.1C228.8,169.8,229,169.7,229.3,169.6z M220.5,165
		c0.2,0.3,0.2,0.6-0.1,0.7c-0.5,0.1-0.3-0.3-0.5-0.6C220.1,165.1,220.3,165,220.5,165z M165.9,217.5c0,0.2,0,0.4,0,0.6
		c-0.1,0-0.1,0-0.2,0c0-0.2,0-0.4,0-0.6C165.8,217.5,165.9,217.5,165.9,217.5z M163,211.9c0.4,1.3,0.9,2.4,1.3,3.6
		c-0.2,0.1-0.2,0.1-0.3,0.1c-0.3,0-0.6,0-0.9,0C162.8,214.4,163,213.2,163,211.9z M161.4,246.3c-0.1,1.3-0.3,2.7-0.5,4
		c-0.2,1.6-0.5,3.1-0.7,4.7c-0.2,1.5-0.3,3-0.5,4.5c-0.3,3.1-0.7,6.1-0.9,9.2c-0.1,1.4,0.2,2.7,0.3,4c0.8,0.5,1.4,0.8,2.2,1.3
		c-0.7,0.2-1.1,0.4-1.6,0.5c-0.4,0.1-0.6,0.4-0.6,0.7c0,0.6-0.3,0.8-0.8,1.1c-0.1,0.1-0.2,0.2-0.2,0.3c0.2,0.6,0.8,0.6,1.2,0.9
		c-0.6,1.4,0.5,2,1.4,2.8c-0.9,0.4-1.8,0.4-2.7,0.5c0-0.2-0.1-0.4-0.1-0.7c0-2.5-0.1-4.9,0.3-7.4c0-0.1,0-0.2,0-0.3
		c-0.4-0.9-0.1-1.9-0.1-2.9c0-1.2,0.2-2.4,0.2-3.5c0-0.3,0.1-0.6,0.1-0.9c-0.1-1.3,0.1-2.5,0.3-3.8c0.3-1.9,0.4-3.9,0.7-5.9
		c0.1-1.1,0.3-2.1,0.4-3.2c0.1-0.8,0.1-1.5,0.3-2.3c0.1-0.4,0.2-0.7,0.3-1.1c0.1-0.7,0.3-1.5,0.2-2.2c-0.1-1.1,0-2.1,1-2.9
		C161.4,244.5,161.5,245.4,161.4,246.3z M161.2,238.6c-0.2-0.7,0-1.3,0-1.9c0-0.3,0.3-0.5,0.5-0.8
		C162,236.7,161.8,237.4,161.2,238.6z M162.4,234.8c-0.5,0.2-0.6-0.2-0.7-0.5c-0.1-0.4-0.2-0.8,0.3-1.1
		C162.5,233.7,162.5,234.3,162.4,234.8z M162.4,229.9c-0.8-0.7-0.1-1.4-0.3-2.1c0.5,0.5,0.6,1.1,0.6,1.7
		C162.8,229.6,162.6,229.7,162.4,229.9z M162.5,225.8c0-0.6,0-0.9,0-1.3c0,0,0.1,0,0.2,0C162.7,224.8,163,225.2,162.5,225.8z
		 M163.6,222.9c-0.1,0-0.1,0-0.2,0c-0.1,0.1,0,0.5-0.3,0.4c-0.1-0.1-0.2-0.4-0.2-0.6c0-0.2,0.1-0.4,0.1-0.9c0.1,0.4,0.2,0.6,0.3,0.8
		c0.6-0.1,0.4-0.5,0.3-1C164.3,222.2,164.2,222.6,163.6,222.9z M164,218.5c-0.2-0.3-0.3-0.6-0.4-0.8C164.2,218,164.2,218,164,218.5z
		 M164,216c0.1,0,0.3,0,0.3,0c0,0.3,0,0.6,0,1C163.4,216.7,164.5,216.3,164,216z M164.3,228.1c0.2-0.2,0.3-0.3,0.5-0.4
		C164.9,228.1,164.9,228.1,164.3,228.1z M165.3,223.2c0.1,0.2,0.1,0.3,0.2,0.5c0,0-0.1,0-0.1,0.1c-0.1-0.2-0.2-0.3-0.2-0.5
		C165.2,223.2,165.3,223.2,165.3,223.2z M166.4,229.7c-0.2,0.2-0.2,0.6-0.3,1c-0.7-0.6-0.5-1.4-0.8-2c-0.2-0.4,0.2-0.9,0.8-1.3
		c0.1,0.1,0.1,0.1,0.2,0.2C167.3,228.6,167.3,228.5,166.4,229.7z M168.8,230.2c-0.2,0-0.4,0-0.7,0.1c0.2-1.5,0.2-1.6,0.8-1.8
		c0.1,0.5,0.2,1.1,0.4,1.7C169.3,230.2,169.1,230.2,168.8,230.2z M169.3,227.8c-0.1,0-0.1-0.1-0.2-0.1c0.1-0.1,0.2-0.3,0.3-0.4
		c0,0,0.1,0.1,0.1,0.1C169.5,227.5,169.4,227.6,169.3,227.8z M169.5,187.3c-0.1,0.5-0.1,1-0.2,1.5
		C168.8,188.2,169.4,187.8,169.5,187.3z M165.1,186.9c0-0.3,0-0.5,0-0.9C165.1,186.4,165.1,186.7,165.1,186.9z M171.4,214.4
		c0-0.3,0-0.6,0-0.9C171.9,213.8,171.7,214.1,171.4,214.4z M197.2,224.7c0.3-0.1,0.5-0.3,0.8-0.4c0.1-0.1,0.3-0.1,0.4,0
		c0.4,0.3,0.7,0.2,1-0.1c0.1-0.1,0.3,0.1,0.6,0.1c-0.3,0.3-0.3,0.5-0.1,0.9c-0.6-0.1-1,0.1-1.4,0.6c-0.1,0.1-0.5,0-0.8,0.1
		c-0.2,0.2-0.4,0.4-0.7,0.6c-0.1,0-0.1,0-0.2-0.1c0.1-0.7-0.1-1.3-0.5-1.8C196.7,224.3,196.8,224.8,197.2,224.7z M195.9,226.1
		c0.1,0.1,0.2,0.2,0.2,0.3c0,0-0.1,0.1-0.2,0.3c-0.1-0.2-0.1-0.3-0.1-0.4C195.8,226.2,195.9,226.1,195.9,226.1z M194.4,226.8
		c-0.2-0.1-0.4-0.2-0.7-0.4C194.3,226.4,194.3,226.4,194.4,226.8z M192.8,226.2c-0.2-0.1-0.3-0.2-0.6-0.3
		C192.7,225.7,192.9,225.7,192.8,226.2z M189.2,235.2c-0.5,0-1,0-1.4,0C188.3,235.2,188.5,235.2,189.2,235.2z M182.7,228.3
		c0.1,0,0.2,0,0.3,0c-0.1,0.2-0.1,0.4-0.2,0.6c-0.1,0-0.1,0-0.2,0C182.7,228.7,182.7,228.5,182.7,228.3z M181.1,228.8
		c0.1,0,0.1,0,0.1,0c0,0,0.1,0.1,0.1,0.1c0,0,0,0,0,0.1c-0.1,0.1-0.1,0.1-0.2,0.3c-0.1-0.1-0.2-0.2-0.2-0.3
		C180.9,228.9,181,228.8,181.1,228.8z M174.2,200.7c0.3,0.5,0,0.6-0.3,0.7C173.9,201.2,174,201,174.2,200.7z M172.5,208.5
		c0.7,1.4,0.7,1.5-0.1,1.7C172.4,209.7,172.5,209.2,172.5,208.5z M172.3,211.1c0.3,0.5,0.7,0.9,0.4,1.5
		C172,212.5,172,212.4,172.3,211.1z M172,228.1c0.2,0,0.4,0,0.7,0.1C172.2,228.7,172.1,228.4,172,228.1z M172.6,225.7
		c-0.3,0-0.4-0.2-0.4-0.4c0.1-0.4,0.3-0.8,0.5-1.2c0.1,0,0.1,0.1,0.2,0.1c0,0.4,0.1,0.8,0.1,1.2C173,225.5,172.8,225.7,172.6,225.7z
		 M173.5,215.5c-0.3,0.4-0.4,0.8-0.5,1.2c-0.1,0.4-3,0.7-3.1,1c0,0-2.8,0-2.8,0c0-0.3,0-0.6,0-0.9c0-0.2,2-0.6,2.3-0.8
		c0.7-0.5,1.9-1.1,1.9-1.7c0-0.2,0.8-0.5,0.9-0.7c0,0,0.4,0,0.4,0c0,0,0.2,0,0.2,0c0,0,0.1,0.1,0.1,0.1c0,0,0.1,0.1,0.1,0.1
		c0.1-0.2-2.9-0.4-2.9-0.6c0.2-0.4-3.1-0.8-2.1-0.9v0c0,0,3.1,0,3.1,0C171.6,213.5,174.2,214.5,173.5,215.5z M174.7,204.2
		c-0.8-0.6-0.8-0.6-0.6-1.3C175,203.3,175,203.3,174.7,204.2z M175.4,200.1c0.2-0.5,0.3-0.9,0.4-1.4
		C176.1,199.7,176.1,199.7,175.4,200.1z M175,196.8c0.2-0.3,0.4-0.5,0.5-0.8c-0.3-0.2-0.5-0.4-0.1-0.7c0.2-0.1,0.5-0.2,0.8-0.4
		C176.5,196,175.9,196.4,175,196.8z M175.8,189.3c-0.5-0.5-0.5-0.9-0.4-1.5c0.1-0.4,0.4-0.5,0.9-0.5
		C176.1,188,175.9,188.6,175.8,189.3z M176.6,192.8c-0.2-0.5-0.2-0.5,0.1-1C176.6,192.1,176.6,192.4,176.6,192.8z M176.7,186.8
		c-0.1,0.1-0.5,0.1-0.6,0c-0.4-0.3,0-0.6,0.2-1c0.3,0,0.5,0,0.8,0.1C177,186.3,176.9,186.6,176.7,186.8z M174,189.1
		c-0.2-1.5-0.9-2.2-0.9-3.2c0,0.4,0,0.9,0,1.3c0,0,2.8,0,2.9,0.1c0.3,0,1.9-0.3,2.2-0.3c0.1,0,0.8,0,0.9,0.1
		c0.1,0.1,0.4,0.1,0.4,0.2c0.1,0.1-1.1,0.3-1,0.5C177.3,188.3,175.2,188.9,174,189.1z M180.7,187.5c0,0-0.1-0.1-0.1-0.1
		c0.1-0.2,0.3-0.5,0.3-0.5c0.6,0.3,1.1-0.9,1.7-0.1C181.9,187,181.3,187.3,180.7,187.5z M201.1,179.2c0.3,0,0.5,0,0.7,0
		C201.6,179.2,201.4,179.2,201.1,179.2z M214.7,167.7c-0.4,0.1-0.7,0.2-1,0.3C213.9,167.2,214,167.1,214.7,167.7z M214.3,168.2
		c0.7-0.2,1.4-0.5,2.3-0.8c-0.4-0.1-0.6-0.2-1-0.2c1.2-0.9,2.5-0.7,3.7-1c0,0.1,0,0.1,0.1,0.2c-0.2,0.1-0.5,0.2-0.8,0.2
		c-0.3,0.1-0.5,0.1-0.9,0.2c0.2,0.5,0.8-0.2,0.9,0.5c-0.8,0.2-1.3,0.8-2.1,0.9C215.8,168.2,215.1,168.8,214.3,168.2z"/>
	<path fill="#FFFFFF" d="M387.9,183.3c-0.3-0.1-0.6-0.3-0.7-0.5c-0.3-0.8-0.6-1.7-0.9-2.6c0.1-0.2,0.3-0.5,0.5-0.7
		c0.5-0.5,0.5-0.6,0-1c-0.7-0.5-0.7-1.3-0.9-2c-0.2-0.5,0.1-1.2,0.2-1.9c0-0.3,0-0.6-0.4-0.8c-0.2-0.1-0.3-0.1-0.4-0.2
		c-0.6,0.3-1.3,0.4-1.9,0.3c-0.5-0.1-1.1-0.4-1.6-0.3c-1.5,0.2-3,0.2-4.5,0c-0.5-0.1-0.6-0.2-0.6-0.7c1.3-0.1,2.5-0.4,3.7-1
		c-0.8-0.1-1.7-0.1-2.5-0.1c-0.1,0-0.3,0.2-0.4,0.2c-0.3-0.4-0.8,0-0.9,0c-0.4-0.3-0.7-0.1-1.1-0.1c-0.4,0-0.7,0.2-1.1,0.4
		c-0.1-0.3-0.3-0.5-0.8-0.4c-0.4,0-0.8,0-1.4,0c0.3,0.2,0.4,3.7,0.5,3.8c0,0,0,3.6,0,3.6c0.2,0,0.4,0,0.7,0c0.1,0-5.2-7.4-5.2-7.2
		c0,0.4,0,0.6,0,1c0,0,2.4,0,2.3,0.2c-0.3,0.6,0.7,0.3,0.3,0.4c-0.3,0,0-0.1-0.3,0c-0.4,0.1-0.5,0.2-0.9,0.1c-0.1,0-0.1-0.1-0.2-0.1
		c0-0.1,0-0.2,0-0.3c-0.1-0.5,0-0.6,0.6-0.8c0.2-0.1,0.4-0.3,0.6-0.4c-0.1-0.1-0.2-0.1-0.4-0.3c0.6-0.3,1.1-0.2,1.7-0.1
		c-0.2,0.2-0.4,0.3-0.5,0.4c0.2,0.1,0.5,0.1,0.5,0c0.4-0.9,1.2-0.4,1.8-0.6c0.3,0.4,0.7,0.1,1,0c0.3-0.1,0.6,0,1,0
		c0.3,0,0.7,0.1,1,0.1c1.8-0.1,3.6-0.2,5.4-0.3c0,0,0,0,0.1,0c-0.1,0-0.1,0-0.1-0.1c-0.1,0-0.2-0.1-0.3-0.1c0.3-0.1,0.5-0.1,0.7-0.2
		c-1-0.1-1.9-0.2-2.9-0.3c-0.7,0-1.4-0.2-2.1-0.3c-1-0.1-2,0-3,0.1c-0.7,0-1.4,0.1-2.1,0c-0.8-0.1-1.6-0.1-2.4,0
		c-0.8,0.1-1.6-0.3-2.3,0.3c0,0-0.1,0-0.2,0c-0.4-0.6-0.7,0.2-1,0.1c-0.4,0.7-0.8,0.3-1.2,0c-0.3-0.3-0.6-0.2-0.8,0
		c-0.2,0.2-0.3,0.4-0.5,0.6c-0.1,0.1-0.3,0.2-0.4,0.2c-0.2,0-0.3-0.2-0.4-0.3c-0.1,0-0.2,0.3-0.3,0.3c-0.5,0-0.9-0.1-1.4-0.2
		c-0.2,0-0.4,0-0.6,0c-0.1,0-0.1-0.4-0.2-0.3c-0.4,0-0.9,0-1.2,0.2c-0.6,0.4-1.1,0.6-1.7,0c0,0-0.1,0-0.2,0
		c-0.5,0.2-1.1-0.1-1.6,0.3c-0.2,0.1-0.4,0.2-0.6,0.2c-1.1,0-2.2,0-3.3,0c-0.4,0-0.9-0.1-1.3,0.1c-1,0.4-2.1,0.2-3.2,0.3
		c-1.6,0.2-3.3,0.2-5,0.3c-0.8,0-1.6,0.3-2.3,0.3c-0.8,0-1.6,0.2-2.4,0.1c-1.6-0.1-3.2,0.2-4.8,0.3c-1.7,0.2-3.5,0.4-5.2,0.5
		c-1.7,0.2-3.5,0.2-5.2,0.4c-2.2,0.3-4.4,0.7-6.5,1c-2,0.3-4.1,0.4-6.1,0.8c-1.2,0.2-2.5-0.2-3.6,0.7c-0.8,0-1.2,0.5-1.7,1
		c-0.6,0.6-0.6,0.6-0.2,1.3c0.7,1.1,1.3,2.3,2.5,2.9c0,0,0,0.1,0,0.2c-0.5,0.4-1,0.7-1.5,1.1c0.2,0.2,0.4,0.3,0.5,0.4
		c0.1,0.7,0.6,1.1,1.1,1.6c0.6,0.6,1.1,1.2,2,1.3c1,0.2,1.7,0.8,2.1,1.7c0.8,1.7,2.2,2.9,4.1,3.3c0.4,0.1,0.9,0.2,1.2,0.5
		c1.4,1.2,3,1.2,4.7,0.9c0.8-0.1,1.7-0.3,2.5-0.2c1.2,0.1,2.4-0.2,3.6-0.6c0.3-0.1,0.6-0.1,0.8-0.2c1.4-0.3,2.8-0.4,4.1-0.8
		c1.1-0.4,2.3-0.3,3.4-0.5c0.5-0.1,1-0.1,1.5-0.3c0.9-0.4,1.8-0.3,2.8-0.2c0,0.2,0,0.5,0,0.7c0,1-0.1,1.9,0,2.9c0.1,1,0.1,2-0.2,3
		c-0.1,0.3-0.4,0.6-0.4,1c0,1.1-0.7,2-0.6,3.2c0.1,0.9-0.4,1.9-0.7,2.8c-0.3,1-0.3,2.1-0.8,3c0,0,0,0.1,0,0.2
		c-0.1,0.8-0.1,1.6-0.3,2.3c-0.2,0.7-0.4,1.5-0.1,2.4c0.1,0.3-0.1,0.6-0.2,0.9c-0.3,0.8-0.6,1.7-0.6,2.6c0,0.3-0.1,0.6-0.1,0.9
		c0,0.4-0.1,0.9-0.1,1.3c0,0.3,0,0.7,0,1c-0.1,0.4-0.2,0.9-0.3,1.3c0,0.3,0.2,0.6,0.1,0.8c-0.3,1-0.7,2-0.5,3.2c0,0.1,0,0.2-0.1,0.4
		c-0.1,0.4-0.3,0.7-0.5,1.2c-0.1,0-0.4-0.1-0.7-0.1c-0.2,0.4,0,0.8,0.3,1c0.4,0.3,0.4,0.6,0.1,1c-0.2,0.1-0.4,0.2-0.4,0.3
		c0,0.2,0,0.3-0.3,0.4c-0.2,0.1-0.3,0.4-0.4,0.5c0.2,0.2,0.5,0.2,0.5,0.4c0.3,0.9,0.7,1.7,0.2,2.6c-0.2,0.4-0.2,0.8,0,1.1
		c0.5,0.7,0.2,1.1-0.3,1.5c0.5,0.5,0.2,1.1,0,1.5c-0.2,0.4-0.2,0.6-0.1,1.1c0.2,0.8,0.1,1.7-0.8,2.3c0.1-0.3,0.1-0.6,0.2-1
		c-0.7,0.6-0.6,1.4-0.8,2.1c0.2-0.2,0.3-0.4,0.6-0.7c0,0.5,0,0.8,0,1.1c0,0.3-0.2,0.7-0.2,1c-0.1,0.7-0.2,1.3-0.3,2
		c-0.2,1.4-0.5,2.9-0.8,4.3c-0.1,0.8-0.1,1.6-0.1,2.4c0,0.9-0.2,1.8-0.3,2.7c0,0.1,0,0.2-0.1,0.3c-0.5,1.1-0.5,2.3-0.7,3.5
		c-0.1,0.4-0.3,0.8-0.4,1.2c-0.1,0.8-0.2,1.5-0.1,2.3c0,0.4,0.3,0.9,0.5,1.3c0.1,0,0.2,0,0.2,0c0.2-0.3,0.5-0.6,0.6-0.9
		c0.2-0.8,0.2-1.6,0.4-2.5c0.1-0.6,0.5-1.1,0.9-1.6c0.2-0.2,0.4-0.5,0.5-0.8c0.2-0.7,0.4-1.5,0.7-2.3c0-0.1,0.2-0.3,0.3-0.4
		c0.3-0.2,0.6-0.4,1.1-0.8c-0.3,1.2-0.5,2.2-0.8,3.2c-0.1,0.2-0.1,0.5-0.3,0.7c-0.2,0.2-0.6,0.3-0.8,0.6c-0.3,0.3,0.2,0.5,0.1,0.9
		c-0.2,0.9-0.9,1.3-1.4,2c0.5,0.3,0.4,0.7,0.1,1.2c-0.5,0.8-1,1.6-1.4,2.4c-0.3,0.6-0.8,1.3-0.8,2c0,0.9-0.4,1.6-0.6,2.2
		c0,0.8,0.1,1.3,0,1.9c-0.1,1.3-0.4,2.5-0.5,3.8c0,0.7-0.1,1.3-0.9,1.7c0.9,0.4,0.8,0.9,0.5,1.4c-0.4,0.7-0.4,4.6-1,5.1
		c-0.2,0.2-0.2,3.9-0.3,3.9c0.6,0,1.2,0,1.7,0c0,0-0.2-2.2-0.1-2c0.2,0.3,0.6-1.1,1-0.9c-0.4-0.6,0-1.8,0.3-2
		c0.5-0.5,0.5-1.3,0.4-1.9c-0.1-0.6-0.2-1.5,0.1-2.1c0.2-0.4,0.4-0.6,0.8-0.3c0.1,0.1,0.2,0.1,0.2,0.2c0.5-0.4,1.3-0.2,1.5-1.3
		c0.2,0.7,0.4,1.1,0.5,1.6c0,0.1,0,0.3,0.1,0.4c0.6,0.3,0.6,0.8,0.6,1.4c0,0.2,0.1,0.3,0.1,0.6c0.4-0.2,0.4-0.4,0.5-0.7
		c0.1-0.5,0.3-1.1,0.6-1.6c0.1-0.1,0.3-0.3,0.4-0.3c0.7,0.3,0.7-0.2,0.8-0.7c0-0.3,0.1-0.6,0.2-0.9c0.5,0.4,0.5,0.4,0.4,0.8
		c0.3,0.3,0.5-0.4,0.9,0c0.2,0.2,0.7,0.1,0.9,0.2c0.2-0.3,0.3-0.5,0.4-0.7c0.1-0.1,0.3-0.2,0.3-0.2c-0.1-0.7,0.6-1,0.9-1.4
		c0.8-1.2,2.3-2,2.3-3.7c0-0.1,0.1-0.2,0.2-0.3c0.1-0.2,0.3-0.4,0.3-0.6c0.1-0.5,0.2-0.9,0.3-1.4c0.8-0.3,0.9-0.5,0.8-1.7
		c-0.3-0.2-0.7-0.4-1-0.6c0-0.7,0.7,3.6,0.8,3.2c-0.1-0.2-0.2,3-0.3,3c0.2,0,0.4,0,0.6,0c0,0-0.1-4.2,0-4.5c0.1-0.3,0.3-2.3,0.4-2.6
		c0.1-0.2,0-1.4-0.2-1.5c-0.1-0.2-0.4-0.7-0.4-0.7c-0.1-0.4-0.1-0.9-0.1-1.2c0-0.3,0-0.8,0.2-1c0.3-0.2,0.5-0.3,0.2-0.6
		c0-0.1,0.2-0.4,0.3-0.5c0.4,0.1,0.6,0.2,0.9,0.3c0-0.2,0-0.3,0.1-0.5c0-0.2,0-0.3,0-0.5c0.8-0.3,0.8-0.3,0.4-1.2
		c-0.2,0.7-0.9,1.2-2,1.4c0.1-0.2,0.3-0.4,0.3-0.5c-0.4-0.6,0-1.1,0.3-1.4c-0.2-0.3-0.4-0.6-0.5-0.9c0.5-0.4,0.5-0.8,0.3-1.4
		c1,0.1,0.5-1.4,1.5-1.3c0.1,0.3,0.2,0.6,0.3,1.1c0.4-1,0.5-1.8,0.1-2.5c0.1-0.3-2-0.6-2.1-0.8c0-0.1-2.4-0.2-2.4-0.3c0,0,0,0,0,0
		c0-0.6,2.5-1.2,2.7-1.8c0,0,1.1,0,1.1,0c0,0,0.5,0,0.5,0c0,0,0.3,0,0.3,0c0,0,0.1,0,0.1,0c0,0,0.1,0,0,0c0,0,0,0,0,0
		c-0.1,0.8-0.7,1.4-0.5,2.3c0,0.1-1.9,0.3-2,0.5c-0.2-0.2-2.2-0.3-2.2-0.4c0,0.3,0,0.6,0,1c0-0.1,2-0.3,2.3-0.5c0,0.5,1.3,0.8,1,1.1
		c-0.5,0-0.5,0.1-1,0.1c0.2-0.3,1-0.6,0.4-1c-0.2,0.1-0.4,2.9-0.6,3c0.2-1.1,0.9,1.6,1.2-0.4c0.4,0,0.6,0,0.9,0c0,0,0.1-3.9,0.1-4.5
		c-0.4,0-0.7-1.4-1.2-1.4c0.3-0.9,0.3-2.4,1.3-2.8c0.3-0.1,0.4-0.8,0.2-1.2c-0.4-0.6-0.3-0.9,0.4-1.2c0.2-0.1,0.4-0.2,0.5-0.3
		c0.1-0.2,0.3-0.6,0.2-0.6c-0.5-0.4-0.1-0.8,0-1.2c0.1-0.3,0.4-0.6,0.1-1c0-0.1-0.1-0.1-0.2-0.1c-0.1,0.3-0.1,0.6-0.2,0.8
		c-0.7-0.3-0.8-0.5-0.7-0.9c0.1-0.5,0.4-0.6,1.2-0.6c-0.2-0.7,0-1.4,0.2-2c0.2-0.4,0.4-0.9,0.5-1.3c0.1-0.3,0.3-0.7,0.4-1
		c-0.6-0.8-0.6-1,0-1.8c0.1-0.1,0.1-0.2,0.1-0.3c0-0.6,0.1-1.1,0.1-1.7c0-0.2,0.2-0.5,0.2-0.7c-0.1-0.5,0.1-0.8,0.4-1.1
		c0.1-0.1,0.1-0.2,0.1-0.3c-0.1-0.2-2.9-0.3-3.1-0.5c0.4-1-4.1-1.1-1.1-0.9c0-0.8,0-1.7,0-2.5c-3,0.2,2.4,1.3,1.7,1.8
		c0-0.3,1.3-0.7,1.4-0.7c0.3-0.3,1-0.6,1-0.9c0.1-0.5,0.6-1,0.8-1.5c0,0,0.2,3.8,0.2,3.8c0,0,0.3,3.8,0.3,3.8h0c0,0-2.8-3.9-2.8-3.9
		c0,0-2.5-4-2.5-4v0v0c0,0.5,2.9,0.2,3.1,0.3c0.1,0,1.5,0.1,1.5,0.1c-0.1-0.3,0.5-0.4,0.5-0.4c-0.6-0.2-0.4-0.4,0.2-0.8
		c0.1-0.1,0.3-0.3,0.4-0.5c0.2-0.8,0.4-1.6,0.6-2.3c0.2-0.8,0.2-1.7,0.3-2.6c-0.2,0.1-0.3,0.1-0.7,0.2c0.1-0.5,0.2-0.8,0.6-1
		c0.2-0.1,0.4-0.4,0.4-0.6c0.5-2.2,0.7-4.5,1.3-6.7c0.5-1.8,0.8-3.8,1.2-5.6c0.1-0.3,0-0.6,0.1-0.9c-0.2-0.1-0.4-0.1-0.5-0.1
		c0.1-0.5,0.3-1,0.5-1.6c0.2-0.1,0.4-0.2,0.5-0.3c0.2-0.6,0.4-1.1,0.5-1.7c0.1-0.5,0.2-1.1-0.1-1.6c-0.2,0.1-0.4,0.2-0.5,0.3
		c0.1-1.8,1.1-3.4,1.4-5.2c-0.2,0.1-0.3,0.1-0.5,0.2c0.1-0.4,0.1-0.7,0.2-1c0.2-0.7,0.5-1.4,0.7-2.2c0.1-0.5,0.1-0.9,0.1-1.5
		c0.5,0,1.1-0.1,1.6-0.1c1.3-0.1,2.7,0,4-0.2c0.8-0.1,1.6,0.1,2.4,0.1c0.3,0,0.5,0,0.8-0.1c0.9-0.1,1.7-0.2,2.6-0.3
		c0.8-0.1,1.6-0.2,2.3-0.6c0.5-0.3,1-0.7,1.5-0.6c1.2,0.1,2.4-0.1,3.6,0c0.2,0,0.5,0,0.7,0.1c1,0.4,1.2,0.4,1.9-0.5
		c0.4,0.7,0.9-0.3,1.3,0.1c0.9-0.2,1.6-0.7,2.1-1.5c3.1-0.2,6.1,0.5,9.1,0.6C390.2,183.7,389,183.5,387.9,183.3z M337.9,240.7
		c-0.2,1-0.3,1.9-0.6,2.9c-0.3,1-0.6,1.9-1,2.9c-0.1,0.3-0.4,0.5-0.7,0.8c0.3,0.5,0.2,1.1-0.1,1.7c-0.3,0.5-0.7,0.9-1.2,1.4
		c-0.1-0.4-0.1-0.6-0.2-0.9c-0.2,0.5-0.2,0.8-0.4,1.2c-0.3-0.6-0.1-1.1,0-1.6c0.1-0.3,0.4-0.6,0.6-1c0-0.1,0.2-0.2,0.1-0.2
		c-0.3-0.7,0.4-0.7,0.7-1c-0.2-0.5-0.3-0.8,0.2-1.2c0.4-0.3,0.6-0.7,0.6-1.3c0-0.4,0.2-0.7,0.5-1c0.3-0.3,0.8-0.7,0.5-1.4
		c-0.3,0.1-0.6,0.2-0.9,0.3c0-0.4-0.1-0.7,0.2-1c0.5-0.5,0.7-1.1,0.9-1.7c0-0.1,0.2-0.1,0.4-0.3c0.1,0.6-0.3,1.1,0.3,1.4
		C337.9,240.5,337.9,240.6,337.9,240.7z M338.5,248c-0.1,0-0.1,0-0.2-0.1c0.1-0.2,0.1-0.4,0.2-0.5c0,0,0.1,0,0.1,0
		C338.6,247.6,338.5,247.8,338.5,248z M344.8,201.3c0.1,0,0.1,0,0.2,0c0,0.2,0.1,0.4,0.1,0.7c-0.2,0-0.3,0.1-0.5,0.1
		C344.6,201.8,344.7,201.6,344.8,201.3z M344.7,202.7c0.1,0.6,0.1,0.6-0.6,1.1C344.4,203.4,344.5,203.1,344.7,202.7z M340.6,226.9
		c0.1,0,0.2,0.1,0.2,0.1c-0.1,0.4-0.2,0.9-0.4,1.3c-0.1,0-0.1,0-0.2-0.1C340.3,227.8,340.2,227.3,340.6,226.9z M340.2,230.4
		c0.4,0.8,0.2,1.1-0.7,1.2C339.7,231.1,340,230.7,340.2,230.4z M339.7,243.7c-0.1,0.2-0.4,0.2-0.5,0.3c-0.1-0.2-0.3-0.5-0.3-0.6
		c0.1-0.3,0.4-0.6,0.6-0.9C340.1,242.9,340,243.3,339.7,243.7z M340.3,238.9c-0.1,0.3,0,0.6-0.1,0.9c-0.2,0-0.5,0.1-0.8,0.1
		c0.1-0.4,0.3-0.8,0.3-1.2c0.1-0.7-0.1-1.5,1.1-1.5C340.7,237.8,340.5,238.3,340.3,238.9z M340.2,236.8c0.1-0.5,0.1-0.9,0.1-1.2
		c0.1,0,0.2,0,0.2,0c0.1,0.3,0.2,0.6,0.3,0.9C340.8,236.5,340.6,236.6,340.2,236.8z M341.6,224.6c0-0.2,0-0.4,0-0.6
		c0.1,0,0.1,0,0.2,0c0,0.2,0,0.4,0.1,0.6C341.7,224.6,341.6,224.6,341.6,224.6z M343.7,216.3c0,0.3,0,0.6-0.3,0.9
		c-0.1,0.1-0.2,0.5-0.1,0.7c0.2,0.9-0.1,1.6-0.4,2.4c-0.2,0.4-0.5,0.6-1,0.4c0-0.4,0-0.7,0-0.8c0.3-0.5,0.6-0.9,0.9-1.3
		c0.2-0.2,0.2-0.4,0-0.6c-0.1-0.1-0.1-0.3-0.1-0.3c0.6-0.5,0.2-1.3,0.5-1.9c0.2-0.3,0.4-0.6,0.6-1
		C343.7,215.4,343.7,215.9,343.7,216.3z M343,212.8c0-0.6,0.3-0.7,0.6-0.6C343.7,212.8,343.2,212.6,343,212.8z M345.1,206.4
		c-0.3,0.7-0.2,1.5-0.2,2.3c0,0.2,0.1,0.3,0,0.5c-0.3,0.6-0.5,1.2-0.6,1.9c0,0.3-0.3,0.5-0.5,0.8c-0.5-0.4-0.9-0.8-1.2-1.1
		c-0.3-0.2,0.5-0.2,0-0.5c-0.1,0,0-0.3,0-0.4c0.5-0.7,0.7-1.4,0.8-2.2c0-0.4,0.2-0.8,0.4-1.2c0-0.1,0.2-0.3,0.2-0.4
		c0-0.5,0.1-0.8,0.5-0.9c-0.1-0.4-0.1-0.6-0.2-1.1c0.3,0.2,0.6,0.3,0.6,0.4C345,205.1,345.4,205.6,345.1,206.4z M345.7,195.6
		c-0.1,0-0.2-0.1-0.2-0.1c0.1-0.3,0.3-0.6,0.4-0.9c0.1,0,0.1,0.1,0.2,0.1C345.9,195,345.8,195.3,345.7,195.6z M347.1,239.7
		c0.2,0.1,0.4,0.2,0.4,0.3c0.1,0.4,0.1,0.7,0,1.1c-0.1,0.4-0.5,0.5-1.1,0.3C346.6,240.9,346.8,240.3,347.1,239.7z M347,190.5
		c-0.4-0.8-0.3-1.1,0.5-1.9C347.3,189.3,347.4,189.9,347,190.5z M368.1,171.5c-0.1,0.4,0.2,0.8-0.4,0.8c-0.1,0-0.1-0.1-0.1-0.2
		C367.3,171.6,367.6,171.6,368.1,171.5z M366.6,171.6c-0.2,0.4-0.4,0.3-0.7,0.2C366.1,171.7,366.4,171.6,366.6,171.6z M367.2,173.8
		c-0.5-0.2-0.6,0.4-1,0.7c-0.3-1,0.6-1.5,0.6-2.4c0.5,0.4,0.5,0.4,1.6,0.4c0,0.2,0,0.4,0,0.6c0,0.2,0.2,0.3,0.4,0.5
		C368.2,173.7,367.7,174,367.2,173.8z M369.5,173.4c0-0.1-0.1-0.2-0.1-0.3C369.4,173.2,369.4,173.3,369.5,173.4
		c0.1,0.1,0.3,0.1,0.4,0.1C369.7,173.5,369.6,173.4,369.5,173.4z M374.9,172.4c0,0.4,0.1,0.6,0.1,0.9
		C374.3,173.1,374.3,173.1,374.9,172.4z"/>
</g>
</svg>
